{"glyphs":{"0":{"ha":720,"x_min":72,"x_max":686,"o":"m 365 970 l 405 970 q 656 751 591 970 q 686 498 686 627 l 686 463 q 536 15 686 100 q 384 -21 473 -21 l 374 -21 q 115 161 182 -21 q 72 472 72 279 l 72 483 q 201 917 72 831 q 365 970 271 970 m 414 966 q 422 957 418 958 l 426 962 q 414 966 420 962 m 344 964 l 344 961 l 348 961 q 351 964 351 961 l 344 964 m 323 953 l 323 947 l 329 947 l 327 943 q 336 936 332 943 q 344 932 344 936 l 344 926 l 346 926 l 348 936 l 348 938 q 329 957 348 941 l 327 957 q 323 953 323 956 m 243 938 q 249 924 245 924 l 254 924 q 277 947 254 930 l 277 951 l 243 938 m 469 945 q 458 940 469 941 l 456 930 q 466 923 466 930 l 467 923 q 473 940 467 924 q 471 945 471 943 l 469 945 m 513 940 l 513 938 q 521 919 519 938 q 519 913 519 915 q 526 905 521 905 q 534 917 534 907 q 521 930 534 920 q 513 940 521 940 m 309 936 l 308 932 l 308 928 q 313 923 308 926 l 313 932 q 309 936 313 936 m 338 921 l 340 921 q 344 924 344 921 l 342 924 q 338 921 338 924 m 380 909 l 380 905 q 384 902 380 902 l 388 902 q 393 907 388 907 l 399 907 q 408 913 408 911 q 399 924 406 921 q 384 909 389 918 l 380 909 m 270 919 l 268 915 q 279 894 275 915 l 283 894 l 285 903 q 270 919 282 919 m 448 913 l 452 911 l 452 917 q 448 913 448 916 m 186 883 q 205 852 186 880 q 224 822 205 835 l 226 822 q 239 844 239 831 q 237 858 237 852 l 239 862 q 211 877 239 877 l 209 888 q 211 903 211 899 q 205 911 208 911 q 186 883 186 899 m 327 902 q 338 875 338 880 l 342 875 l 342 883 q 346 898 342 884 q 340 911 343 911 q 327 902 327 909 m 566 902 q 551 886 551 890 l 551 884 q 555 881 552 881 q 572 898 572 881 l 566 902 m 458 858 q 464 854 464 856 l 467 856 l 477 856 l 494 835 l 494 844 q 483 867 483 860 l 483 883 q 498 890 498 886 q 490 900 498 893 q 471 875 483 900 q 458 858 458 871 m 401 898 l 401 894 l 410 896 l 410 898 l 401 898 m 403 869 l 403 864 q 422 892 422 876 l 418 892 q 403 869 403 884 m 372 884 l 372 883 q 380 881 376 883 l 382 881 l 382 883 q 376 884 380 883 l 372 884 m 507 881 l 507 873 q 513 867 507 871 l 517 867 l 517 869 q 511 881 517 880 l 507 881 m 353 867 l 353 850 q 363 833 357 833 q 368 844 368 835 l 368 854 l 378 856 q 384 854 382 854 q 361 879 374 863 q 353 867 359 879 m 165 875 q 153 848 161 869 q 152 846 152 848 q 165 820 165 833 l 165 812 q 155 772 155 802 q 152 763 152 772 q 163 778 163 775 l 174 778 q 190 749 180 775 q 197 740 195 740 l 201 740 l 203 749 l 203 751 q 178 793 203 764 l 178 797 q 182 812 178 799 q 169 854 182 819 l 171 864 q 165 875 168 875 m 544 862 q 563 839 549 849 l 564 839 q 568 844 568 839 q 547 864 568 848 l 544 862 m 214 864 l 222 864 q 233 843 233 858 l 233 841 q 230 837 233 837 l 226 837 q 209 854 209 837 l 209 856 q 214 864 212 864 m 443 843 q 445 837 445 839 l 450 837 l 452 846 l 452 862 l 450 862 q 443 843 446 862 m 393 852 l 393 848 q 405 831 393 842 l 408 833 l 410 833 q 446 806 419 825 q 458 799 450 799 q 471 808 471 800 l 477 808 q 481 805 481 808 l 481 803 l 477 797 q 504 765 486 781 l 505 755 l 504 742 q 513 738 510 738 q 523 747 516 738 q 536 759 536 758 q 507 772 534 767 q 494 814 494 783 q 492 824 492 814 q 473 812 488 819 q 467 806 473 810 l 464 806 q 433 824 457 806 q 408 839 420 825 q 393 852 404 852 m 616 835 q 606 812 616 812 q 604 810 606 810 q 606 799 606 800 l 604 786 l 608 784 l 610 784 q 614 789 614 784 l 623 789 l 629 786 q 631 789 629 789 q 616 805 631 793 l 616 806 q 622 825 616 814 q 618 835 618 832 l 616 835 m 393 831 q 382 816 390 816 q 367 820 376 816 l 361 799 q 363 793 363 795 l 380 793 q 407 787 392 793 q 410 797 410 793 q 399 803 403 803 q 391 795 399 800 l 386 795 q 382 799 382 795 l 382 803 l 403 827 q 393 831 398 827 m 536 808 l 536 795 q 555 770 536 788 q 563 780 563 772 q 544 799 544 784 q 545 818 545 816 q 544 820 544 818 q 536 808 536 818 m 256 774 q 277 736 275 752 q 289 696 283 736 q 290 692 290 696 l 283 666 q 285 660 285 662 q 294 704 289 660 q 277 768 288 753 l 289 795 q 285 801 287 801 q 270 786 270 797 q 258 776 270 780 q 256 774 258 774 m 420 782 q 450 738 440 758 q 477 709 465 738 l 483 709 q 490 723 490 713 q 467 738 490 731 q 443 776 443 756 l 441 776 q 437 770 437 776 l 433 770 q 427 776 431 770 l 427 787 l 439 787 q 429 799 432 799 q 420 782 424 799 m 283 481 l 283 475 q 342 179 283 219 q 378 165 363 165 q 467 304 447 165 q 475 472 475 374 q 431 759 475 708 q 376 789 407 789 q 289 628 302 789 q 283 481 283 565 m 627 774 q 623 766 623 770 q 627 751 627 755 l 625 738 q 629 723 629 731 l 627 709 l 631 707 q 642 719 634 707 l 642 723 q 629 744 629 735 q 633 766 629 751 q 627 774 630 774 m 585 763 q 601 746 589 746 l 601 753 q 589 763 601 756 l 585 763 m 142 738 q 136 727 136 731 q 146 700 136 700 q 155 721 155 700 q 142 738 150 734 m 209 727 l 205 721 l 205 715 q 224 704 213 704 q 209 727 218 727 m 544 721 l 544 718 q 547 713 544 713 l 549 713 q 553 718 553 713 l 547 721 l 544 721 m 585 721 q 580 700 585 720 l 580 696 q 595 711 583 696 q 591 721 591 718 l 585 721 m 515 702 l 515 692 q 524 673 519 675 l 534 687 q 523 704 534 691 l 523 706 l 519 706 q 515 702 515 705 m 462 702 q 481 666 462 684 l 481 677 q 462 702 471 702 m 233 692 q 251 624 240 648 l 262 572 q 270 555 270 564 l 270 542 q 266 532 270 532 q 271 479 268 497 l 270 468 q 277 447 275 447 l 279 451 l 279 477 q 277 503 279 493 q 279 529 279 514 l 279 571 q 273 593 279 576 l 273 610 q 256 643 273 626 q 251 656 251 650 l 251 687 l 249 696 l 247 696 q 233 692 233 696 m 161 645 l 165 645 q 193 683 193 669 q 192 688 192 686 q 163 662 179 674 l 161 645 m 519 664 q 509 641 509 653 l 509 639 l 515 639 q 523 647 518 639 l 523 660 q 519 664 523 664 m 188 628 q 186 624 188 624 q 195 612 190 614 l 195 616 q 190 628 195 626 l 188 628 m 475 607 l 475 593 l 477 593 l 479 607 l 475 607 m 102 605 l 102 600 q 115 586 115 600 l 115 578 q 112 567 115 573 q 123 553 115 558 l 125 553 l 129 555 l 127 559 l 127 569 q 104 605 127 605 l 102 605 m 477 563 l 477 561 l 479 548 q 485 559 485 550 l 485 561 q 477 563 478 563 m 77 542 l 77 527 l 79 527 l 81 536 l 81 538 q 77 542 81 542 m 75 513 l 75 491 q 85 510 80 491 l 85 512 q 79 517 85 515 q 75 513 75 517 m 178 494 l 178 489 q 209 441 197 470 l 211 441 l 214 447 l 214 453 q 199 487 214 462 l 199 489 l 201 498 q 195 506 198 506 q 178 494 184 494 m 603 464 q 618 430 606 452 l 618 428 q 610 411 618 420 l 610 407 q 614 405 614 407 q 642 424 642 415 q 614 477 617 477 l 610 477 q 603 464 606 477 m 479 463 l 479 447 l 483 447 q 490 454 486 447 l 490 460 q 485 464 490 464 q 479 463 481 463 m 75 454 l 75 451 q 79 424 77 424 q 89 435 89 427 q 77 454 77 449 l 75 454 m 165 449 l 165 447 q 176 416 171 416 l 178 420 l 178 432 q 169 449 174 449 l 165 449 m 211 424 q 205 399 205 408 q 214 369 214 381 q 220 378 219 369 q 212 424 218 424 l 211 424 m 667 409 l 681 401 l 681 416 l 675 416 q 667 409 672 416 m 492 190 l 492 189 q 500 173 494 174 l 505 173 q 523 222 515 173 q 559 312 532 243 q 593 357 574 343 q 606 388 593 361 l 606 395 q 601 401 606 398 q 557 345 595 401 q 528 281 541 296 q 494 203 523 263 l 492 190 m 180 395 l 178 392 l 178 385 q 186 371 178 374 l 186 390 q 180 395 186 393 m 637 380 l 639 380 q 644 392 642 380 q 637 380 641 392 m 79 378 l 79 367 l 81 367 l 81 378 l 79 378 m 279 376 q 275 369 279 374 l 275 363 q 281 357 275 361 l 281 376 l 279 376 m 81 363 l 81 350 l 83 350 l 83 363 l 81 363 m 201 352 q 216 317 205 327 l 216 308 q 211 291 211 301 l 211 241 q 220 182 211 182 q 224 186 224 182 l 224 198 q 220 222 224 205 l 222 227 q 220 239 220 234 q 224 249 220 249 q 220 276 220 260 q 228 321 226 291 q 214 361 224 339 q 201 352 208 359 m 603 331 l 606 329 q 616 346 616 340 q 603 331 603 340 m 83 338 l 83 327 q 87 331 87 327 l 87 335 q 83 338 87 338 m 496 317 q 488 295 488 304 q 502 316 492 295 l 498 317 l 496 317 m 597 316 l 595 307 q 601 316 598 307 l 597 316 m 285 308 l 283 298 l 283 297 l 285 287 q 289 291 289 287 l 287 308 l 285 308 m 89 289 q 98 276 89 282 l 98 245 q 102 217 102 218 q 110 238 105 217 l 108 248 q 112 270 111 267 q 89 291 104 291 l 89 289 m 165 286 q 159 264 163 271 l 161 255 q 159 243 159 245 q 176 222 167 224 q 180 227 177 227 l 172 255 q 174 276 174 272 q 167 286 171 284 l 165 286 m 574 251 q 559 222 574 246 q 561 217 561 219 l 563 217 q 576 249 563 220 l 576 251 l 574 251 m 547 192 l 547 190 l 553 190 q 557 203 557 202 q 547 192 554 203 m 178 196 l 174 190 l 174 170 l 172 150 q 178 146 174 150 q 184 158 184 149 l 184 184 q 178 196 184 195 m 329 182 q 323 175 325 175 q 340 149 328 162 q 346 156 343 149 q 329 182 342 176 m 446 173 l 446 165 q 466 152 451 152 q 469 149 466 149 l 473 150 q 446 173 465 168 m 407 165 l 407 163 l 410 163 l 410 170 q 407 165 407 169 m 313 150 l 313 149 l 317 149 q 321 152 321 149 l 317 154 q 313 150 313 153 m 542 152 q 521 130 539 144 q 519 123 519 125 l 532 112 l 534 112 q 538 121 534 121 q 536 127 536 125 q 549 146 549 143 l 542 152 m 446 137 l 450 135 q 454 140 454 135 q 452 146 452 144 q 446 137 448 146 m 211 137 l 211 135 l 216 104 q 220 109 220 104 l 220 133 l 218 142 l 216 142 q 211 137 214 142 m 431 140 q 407 120 425 120 q 380 83 380 98 q 382 78 382 80 q 395 101 395 78 q 403 109 401 109 l 408 109 q 439 81 425 87 q 443 76 439 76 l 445 76 l 445 78 q 420 102 445 80 l 420 111 q 437 133 420 118 l 437 140 l 431 140 m 317 116 l 319 106 l 317 97 l 319 83 q 311 34 311 64 q 315 31 315 33 q 306 15 315 22 l 306 13 q 309 7 308 7 q 338 36 336 27 q 329 40 334 40 q 327 68 327 59 l 327 71 q 336 139 332 89 l 334 139 q 317 116 317 120 m 349 118 l 351 114 l 351 112 q 349 83 351 102 q 361 106 354 83 q 349 118 361 111 m 564 99 l 564 97 q 568 93 565 93 l 570 93 q 572 97 570 97 q 570 111 570 100 q 564 99 564 109 m 479 101 q 483 97 479 97 l 488 97 q 483 104 486 104 q 479 101 479 104 m 271 80 l 271 74 q 275 71 272 71 q 287 80 287 77 l 287 83 l 275 83 q 271 80 271 83 m 511 34 l 511 31 l 504 31 l 494 38 l 492 38 q 488 34 488 37 q 498 9 493 30 l 500 9 q 505 15 500 12 l 515 15 q 523 34 515 22 q 532 59 527 59 q 524 78 524 70 l 523 78 q 513 42 515 78 q 511 34 511 42 m 422 71 l 414 45 l 414 43 l 416 43 q 427 64 416 47 l 427 66 q 424 71 427 71 l 422 71 m 353 64 q 349 59 351 59 q 351 53 351 55 l 359 53 l 359 59 q 353 64 359 62 m 441 53 q 445 21 445 31 l 443 21 q 456 9 446 9 l 462 13 q 446 24 459 24 l 446 31 q 454 52 454 40 q 448 59 451 59 l 446 59 q 441 53 444 59 m 201 42 l 216 31 q 209 52 214 52 q 201 42 201 50 m 464 42 q 469 43 467 43 l 469 47 q 464 42 467 47 m 277 45 q 252 7 277 32 q 262 5 255 5 q 287 36 287 24 l 287 38 q 281 45 284 45 l 277 45 m 414 33 l 414 26 q 422 3 422 14 l 422 -4 q 418 -16 422 -9 l 431 -14 l 437 -14 q 441 -4 437 -10 q 431 12 441 4 q 416 33 416 31 l 414 33 m 466 9 q 462 -7 466 -1 l 466 -7 q 471 -6 469 -6 l 471 -4 l 467 9 l 466 9 m 292 -7 l 304 -9 l 304 2 q 300 5 304 5 q 292 -7 292 3 m 344 -4 q 349 -9 344 -7 l 353 -4 q 348 0 349 0 q 344 -4 344 -1 m 329 -9 l 327 -14 l 332 -14 q 329 -9 332 -9 z "},"1":{"ha":720,"x_min":119,"x_max":553,"o":"m 374 972 l 553 972 l 553 -2 l 338 -2 l 338 628 q 194 524 254 551 q 123 495 147 503 l 119 495 l 119 715 q 156 732 119 719 q 363 940 300 800 l 374 972 m 392 940 q 397 930 396 940 q 386 919 397 926 q 384 911 384 916 q 393 909 391 911 q 409 916 403 916 q 430 907 428 907 l 431 907 q 445 928 431 920 l 445 935 q 437 940 445 937 q 418 921 428 922 q 405 944 411 921 l 405 949 q 411 968 411 966 l 405 968 q 392 940 403 968 m 369 944 q 365 921 365 926 q 376 938 376 928 l 369 944 m 462 942 l 462 936 q 471 902 469 936 l 475 900 q 479 904 479 900 q 464 942 476 916 l 462 942 m 536 900 q 546 877 536 898 l 548 877 l 548 916 l 546 916 q 536 900 536 910 m 367 897 q 380 864 377 880 l 386 864 q 388 871 388 871 q 382 887 382 881 l 382 907 l 378 907 q 367 897 372 905 m 340 888 q 334 877 340 884 q 340 862 334 863 q 348 876 348 865 l 348 877 q 342 888 348 887 l 340 888 m 428 877 q 422 866 423 866 l 424 862 l 424 845 q 435 839 429 845 l 439 839 l 441 848 q 428 877 433 877 m 468 862 q 466 857 468 857 l 468 847 l 468 841 l 470 841 q 477 850 472 841 l 477 857 q 471 862 477 859 l 468 862 m 433 654 l 435 654 q 460 689 452 670 q 511 791 508 760 q 525 828 525 827 q 515 847 519 847 q 500 789 511 847 q 433 654 500 751 m 308 841 q 281 808 281 811 q 283 803 283 805 q 310 841 294 807 l 308 841 m 331 820 q 336 812 334 812 l 342 812 q 352 836 347 812 l 353 836 q 352 841 352 839 l 346 841 q 331 820 341 839 m 449 791 q 458 779 458 788 q 454 758 458 768 l 454 755 l 456 755 q 464 780 464 777 q 458 801 462 801 q 449 791 453 800 m 258 789 q 249 765 249 772 l 251 765 q 262 788 262 772 l 258 789 m 371 765 l 367 760 q 395 734 367 757 l 401 734 q 371 765 401 765 m 262 725 l 262 720 q 287 746 264 720 q 283 750 287 750 l 281 750 q 262 725 271 743 m 405 683 l 392 687 l 390 683 q 395 659 395 675 q 412 685 408 666 q 452 750 422 685 l 451 750 q 424 701 435 743 l 405 683 m 222 744 l 203 721 l 196 721 q 184 740 193 721 l 182 740 q 177 739 179 739 q 190 701 181 713 q 207 689 195 701 l 213 689 l 215 699 l 215 721 q 226 742 215 728 l 222 744 m 306 729 q 296 708 306 726 l 300 708 q 310 723 310 713 q 308 729 308 727 l 306 729 m 365 727 l 363 723 l 363 720 q 369 713 363 717 l 372 713 l 374 721 l 365 727 m 140 721 l 140 720 q 144 715 141 715 q 150 718 148 718 l 150 725 q 140 721 144 721 m 513 711 l 513 710 q 527 694 527 699 l 532 689 l 532 691 q 523 720 532 706 q 513 711 514 715 m 123 704 l 123 696 q 135 687 129 687 q 146 696 142 690 l 146 699 q 123 704 142 699 m 323 704 q 321 701 323 701 q 323 694 323 696 l 325 694 q 327 702 327 701 l 323 704 m 266 702 q 235 668 266 683 l 234 668 l 222 670 l 222 664 l 234 664 q 253 611 245 664 q 224 576 245 606 l 224 574 q 239 567 224 571 q 249 574 248 571 q 245 578 245 574 q 262 632 245 584 q 256 652 256 645 l 256 666 q 270 692 270 675 q 274 696 274 692 l 266 702 m 157 661 l 159 647 l 159 637 l 156 632 l 156 630 l 157 621 l 161 621 q 175 661 170 621 q 184 677 184 668 l 184 680 q 180 683 184 683 l 178 683 l 157 661 m 504 671 q 513 662 505 667 l 515 662 q 523 673 523 666 l 519 675 l 508 675 q 504 671 504 675 m 546 670 q 540 652 540 656 l 544 651 l 548 664 l 548 670 l 546 670 m 205 637 q 213 626 209 626 l 215 626 q 216 630 215 630 l 215 633 l 215 652 l 213 652 q 205 637 207 652 m 319 649 l 319 643 l 327 643 q 329 647 327 647 q 327 652 327 650 l 323 652 q 319 649 319 652 m 384 643 l 384 640 l 386 640 q 392 645 389 640 l 392 651 q 384 643 389 651 m 371 559 l 372 559 l 416 624 q 431 647 416 628 l 431 651 q 395 600 406 623 q 371 559 376 575 m 123 640 l 123 626 q 131 586 131 590 q 123 559 131 571 l 123 545 q 138 581 130 545 l 146 586 l 150 586 q 168 552 155 585 l 173 552 l 168 562 l 168 565 q 169 583 168 572 q 157 593 169 588 l 146 592 l 144 592 l 144 605 q 127 621 127 615 q 125 626 125 624 q 138 637 130 637 l 138 642 q 135 645 138 645 q 123 640 123 644 m 327 628 l 327 626 q 334 633 330 626 l 333 633 q 327 628 330 633 m 291 609 q 296 597 293 597 q 306 609 306 606 q 298 616 304 616 q 291 609 291 614 m 188 609 l 188 607 q 192 603 189 603 l 196 603 q 197 607 196 607 q 196 613 196 611 l 192 613 q 188 609 188 612 m 500 603 l 494 576 l 494 571 q 509 584 509 571 l 509 588 q 500 603 509 598 m 405 559 l 405 557 q 428 534 415 534 q 437 548 437 537 q 420 557 437 555 l 420 565 q 435 581 420 568 q 431 592 431 588 l 428 592 q 416 569 425 591 q 405 559 410 569 m 365 552 q 342 515 342 525 l 342 514 l 344 514 q 367 552 344 517 l 365 552 m 180 545 q 186 536 183 536 q 192 543 189 536 l 192 546 q 188 550 192 550 q 180 545 180 547 m 462 519 q 466 515 463 515 q 470 519 470 515 l 470 525 l 468 525 q 462 519 465 525 m 492 430 l 496 428 q 527 479 513 450 q 548 510 548 500 l 548 522 q 492 436 524 496 l 492 430 m 388 491 q 403 466 388 469 q 407 472 407 471 l 405 481 q 426 495 405 488 l 426 500 q 414 514 417 514 l 411 514 l 393 493 q 388 491 390 491 m 487 500 q 458 458 458 460 l 458 453 q 489 500 463 455 l 487 500 m 405 436 q 395 394 399 427 q 424 380 395 382 q 473 366 427 377 q 485 359 475 359 l 492 359 q 498 368 495 359 q 492 387 492 380 q 475 377 483 377 l 470 377 q 435 396 458 377 q 412 427 412 399 q 405 436 409 435 m 342 415 l 342 404 l 344 404 q 352 413 347 404 l 352 420 l 348 420 q 342 415 345 420 m 519 399 l 519 397 q 532 406 530 397 l 532 408 q 527 411 532 411 q 519 399 519 409 m 511 358 q 546 349 517 352 q 548 347 546 347 l 548 373 l 538 373 q 511 358 511 373 m 388 278 q 399 267 393 267 q 412 272 404 267 q 405 293 410 293 l 399 293 q 388 278 388 286 m 409 250 q 420 229 414 229 q 426 238 425 229 q 418 255 422 255 l 414 255 q 409 250 412 255 m 498 149 q 506 127 504 139 l 513 127 q 519 154 519 149 q 517 160 517 158 l 511 160 q 498 149 499 149 m 500 66 l 500 65 q 506 59 500 62 l 509 59 l 517 76 q 515 82 515 80 l 509 82 q 500 66 500 77 m 350 33 l 350 28 l 352 28 q 361 36 360 33 l 359 40 q 350 33 351 37 m 447 36 l 445 26 l 452 14 q 460 23 460 16 q 451 36 454 36 l 447 36 z "},"2":{"ha":720,"x_min":34,"x_max":662,"o":"m 327 974 l 376 974 q 624 838 561 974 q 656 694 656 777 q 496 374 656 517 q 371 254 409 296 l 342 220 l 662 220 l 662 -1 l 34 -1 l 34 1 q 85 201 38 85 q 222 389 123 283 q 380 549 222 393 q 409 585 380 552 q 443 679 443 642 l 443 690 q 393 778 443 745 q 355 787 378 787 q 264 656 281 787 l 262 642 q 50 665 83 660 q 93 844 52 745 q 327 974 163 974 m 312 966 q 317 947 317 949 l 317 936 q 314 932 317 932 l 308 932 q 296 947 298 947 l 294 947 q 293 941 294 945 q 310 926 293 938 q 319 913 319 916 q 317 897 317 899 q 331 915 331 907 q 327 924 327 921 q 329 949 329 947 q 321 970 325 970 l 315 970 q 312 966 312 969 m 395 968 q 376 945 395 952 q 371 939 376 939 l 371 937 l 388 934 l 390 934 q 411 958 390 948 l 411 964 q 407 968 411 968 l 395 968 m 439 943 l 439 941 q 443 937 440 937 l 445 941 l 445 947 l 443 947 q 439 943 439 946 m 169 922 q 173 911 173 916 l 175 911 q 178 930 177 925 q 169 922 170 926 m 272 922 q 266 907 267 907 q 275 896 269 899 l 279 903 q 272 922 277 922 m 418 915 q 405 869 418 905 q 424 848 405 863 l 428 854 q 420 871 420 864 l 420 886 q 428 909 420 888 q 426 915 426 913 l 418 915 m 475 913 l 475 907 q 483 901 475 904 l 485 905 q 477 913 485 908 l 475 913 m 525 911 l 525 909 q 540 892 525 901 l 542 896 q 525 911 530 911 m 357 907 l 357 903 q 371 877 364 896 l 373 877 q 376 880 376 877 l 376 886 q 367 907 374 907 l 357 907 m 171 903 l 169 899 q 171 884 171 886 l 169 875 q 178 865 172 865 l 178 858 q 171 846 171 848 q 175 825 175 839 l 175 821 q 163 802 175 814 q 175 789 163 789 q 188 833 175 809 q 197 854 188 854 l 197 858 q 173 882 197 861 l 175 901 l 171 903 m 207 903 l 199 880 l 205 877 q 215 890 215 879 q 207 903 215 900 m 133 890 l 133 888 q 137 884 134 884 l 137 894 q 133 890 133 893 m 464 886 q 449 846 464 857 l 449 842 l 452 840 q 475 865 473 865 l 477 865 q 485 863 481 865 q 494 873 490 863 l 489 877 q 479 867 479 875 l 471 867 l 471 873 l 475 878 l 475 880 q 464 886 473 886 m 559 875 q 553 859 556 859 q 578 819 572 819 q 599 814 591 814 l 601 818 q 580 848 601 837 q 561 875 580 850 l 559 875 m 338 869 l 338 867 q 344 846 338 862 l 348 846 l 350 856 q 338 869 346 867 m 279 863 q 274 850 274 857 q 275 844 275 846 q 285 850 282 850 l 285 858 q 279 863 285 861 m 601 859 l 601 858 q 607 850 604 850 l 610 852 q 605 859 608 859 l 601 859 m 91 823 l 100 823 l 100 831 q 116 850 100 839 q 112 854 116 854 l 109 854 q 99 837 104 854 q 91 823 91 836 m 314 844 l 314 842 q 323 823 323 831 l 323 819 q 312 791 323 819 l 317 781 q 323 783 321 783 l 323 793 l 331 827 l 331 829 q 319 848 319 841 l 317 848 q 314 844 314 848 m 135 840 q 131 835 133 835 q 133 829 133 831 q 119 808 133 814 l 118 804 q 135 776 118 800 q 138 757 137 772 q 127 728 127 734 l 127 726 l 133 726 q 148 772 145 726 q 137 791 137 785 l 137 812 q 142 825 142 819 l 142 827 q 135 840 142 838 m 411 818 l 411 804 q 414 800 412 800 q 420 814 420 808 l 420 833 l 418 833 q 411 818 411 831 m 513 831 l 510 825 l 510 819 q 513 816 510 816 l 517 816 q 521 819 517 819 l 521 829 l 513 831 m 268 810 q 270 804 270 806 l 272 804 q 289 819 282 804 l 289 823 l 285 823 q 268 810 271 814 m 355 795 l 355 791 l 371 791 q 378 789 375 791 l 380 789 l 380 791 q 369 797 376 791 l 371 810 l 371 818 q 365 823 371 821 q 355 795 355 819 m 456 766 q 466 757 458 761 l 468 757 q 487 789 476 764 q 477 804 481 804 q 456 766 468 804 m 207 783 l 211 781 l 215 781 q 222 789 216 781 q 220 795 220 793 l 218 795 q 207 783 208 787 m 177 787 q 171 768 177 780 q 178 757 176 757 l 182 757 q 190 783 182 774 l 190 787 l 177 787 m 500 755 l 500 745 q 504 741 500 741 q 513 774 507 741 q 511 779 511 778 q 500 755 500 771 m 279 766 l 279 764 q 287 751 279 754 q 291 757 289 757 l 287 778 l 285 778 q 279 766 279 776 m 90 766 q 81 753 84 753 l 78 753 l 68 760 q 66 736 66 747 q 79 724 77 732 q 68 692 68 696 l 68 684 q 78 665 68 680 l 90 665 q 78 690 78 678 l 78 692 q 93 722 78 707 q 90 734 93 728 q 93 764 90 740 l 90 766 m 437 757 q 431 749 433 749 q 435 740 435 743 l 437 740 q 443 749 437 745 q 437 757 440 757 m 627 747 q 622 741 627 741 q 620 743 622 743 l 616 736 q 626 713 626 720 l 626 709 l 612 696 q 629 675 612 677 q 635 688 633 675 q 631 703 631 698 q 635 719 635 711 l 635 747 l 627 747 m 470 738 q 468 730 468 734 l 470 713 q 449 690 469 708 q 447 669 449 676 l 452 665 l 458 665 q 468 673 458 673 l 468 690 q 471 694 469 694 l 477 694 l 487 688 l 487 690 q 483 703 483 698 q 487 724 487 721 q 470 738 481 738 m 213 724 q 228 705 216 705 q 230 711 230 709 q 220 736 230 715 q 213 724 213 734 m 177 734 q 171 722 171 726 q 178 711 176 711 q 182 715 182 711 l 182 722 q 177 734 182 732 m 266 732 l 266 724 q 272 719 266 722 q 275 730 275 726 l 272 732 l 266 732 m 561 724 q 576 690 572 690 q 584 696 584 693 q 578 705 580 705 q 582 728 580 709 l 572 728 q 561 724 567 728 m 106 709 q 114 662 114 699 l 123 662 l 123 663 q 119 684 123 666 l 123 709 q 112 713 117 713 q 106 709 106 711 m 536 711 l 536 705 q 544 701 539 705 l 551 701 l 551 709 l 538 711 l 536 711 m 551 686 l 551 682 q 563 669 561 669 q 565 673 563 673 q 551 686 561 686 m 211 656 l 211 652 l 215 652 l 228 650 q 216 671 228 661 q 211 656 211 670 m 648 667 q 647 663 648 663 q 648 656 648 660 l 650 656 l 650 667 l 648 667 m 607 656 l 607 650 q 618 631 616 638 q 616 601 616 612 l 616 593 q 626 576 623 576 q 631 587 631 578 l 631 601 q 620 639 631 631 q 616 648 616 639 l 616 662 l 618 665 l 614 665 q 607 656 612 665 m 508 660 l 510 646 l 510 642 q 504 631 504 635 q 515 627 510 627 q 513 633 513 631 l 515 646 q 510 660 513 660 l 508 660 m 456 646 q 464 631 456 641 l 470 631 q 475 646 473 631 l 471 648 q 456 646 461 646 m 567 642 q 572 637 570 642 l 572 633 l 548 606 l 548 599 l 551 599 q 578 641 568 599 q 572 646 578 644 l 570 646 q 567 642 567 646 m 479 625 l 475 591 q 481 555 479 587 l 485 553 l 487 553 q 496 564 490 553 q 489 593 490 577 q 492 618 490 615 q 481 625 490 625 l 479 625 m 426 601 l 430 599 l 431 599 q 433 606 433 606 q 431 612 431 610 q 426 601 426 610 m 525 572 l 529 542 l 536 542 q 538 547 536 544 l 536 555 l 538 572 l 532 580 q 525 572 526 578 m 395 534 l 397 530 q 395 509 397 522 q 401 500 398 500 q 407 511 407 502 l 407 523 q 403 538 407 524 l 403 542 q 416 576 416 556 q 395 534 412 576 m 608 555 q 610 526 610 531 q 608 525 608 526 l 610 525 l 618 544 q 612 559 617 559 q 608 555 608 558 m 437 540 l 437 536 l 460 507 q 466 509 464 509 l 466 513 q 452 536 463 513 l 443 544 l 441 544 q 437 540 437 543 m 544 523 l 544 490 q 555 450 552 450 q 559 454 559 450 q 553 469 553 464 l 557 483 l 555 492 l 557 492 l 555 496 l 555 507 q 559 511 556 511 l 567 511 l 567 507 l 568 507 l 568 538 q 563 542 568 542 q 544 523 544 535 m 359 519 l 359 513 q 367 504 364 504 q 371 515 371 510 q 365 525 370 525 q 359 519 362 525 m 479 464 l 479 462 q 473 456 479 459 l 470 456 l 460 458 q 479 426 460 447 q 481 418 481 422 q 464 388 464 391 l 466 376 l 466 372 q 464 365 466 368 q 466 359 466 361 l 473 359 l 473 380 q 487 427 487 421 l 481 437 l 481 445 q 500 479 481 452 q 490 496 494 496 l 487 496 q 479 464 479 496 m 355 481 q 361 469 357 469 l 369 469 q 371 475 369 475 q 367 492 367 482 l 365 492 q 355 481 355 487 m 264 357 l 264 351 l 266 351 q 291 376 291 374 q 314 439 291 420 l 327 469 l 321 469 q 298 427 298 457 q 274 374 286 427 l 264 357 m 378 466 q 373 445 378 456 q 378 427 378 434 l 376 424 q 392 391 384 395 l 393 391 l 395 401 q 386 420 395 408 l 386 424 q 392 450 392 448 l 392 458 q 384 466 392 461 l 378 466 m 447 458 l 458 458 q 454 462 458 462 l 451 462 q 447 458 447 461 m 426 439 l 426 437 q 437 414 426 431 q 428 374 437 410 l 431 372 q 445 408 442 372 q 435 443 437 422 l 431 445 q 426 439 429 445 m 536 433 l 534 429 q 538 426 535 426 q 544 431 541 426 l 536 433 m 234 393 l 234 378 q 237 374 235 374 q 243 403 241 379 q 234 393 241 403 m 401 361 l 407 357 l 409 361 l 409 365 l 405 365 q 401 361 401 364 m 294 351 l 285 334 l 289 332 l 293 332 q 300 349 297 332 l 300 351 l 294 351 m 182 336 q 201 325 193 326 l 201 329 q 192 348 192 338 q 182 336 189 348 m 430 336 q 435 325 431 325 l 443 334 q 437 340 443 337 l 433 340 q 430 336 430 340 m 380 308 q 386 296 382 296 l 392 296 q 397 308 397 298 q 388 319 397 316 q 380 308 380 317 m 237 294 l 241 294 q 253 313 247 294 l 249 315 q 237 294 244 315 m 336 300 q 333 281 336 294 l 333 279 l 334 270 q 352 289 352 283 q 336 300 338 300 m 146 283 l 146 279 l 150 279 l 148 275 l 152 275 l 152 277 l 150 281 l 152 281 q 150 287 150 285 q 146 283 146 286 m 125 186 q 131 159 131 165 q 125 142 125 149 q 137 114 125 140 l 137 108 l 133 102 q 184 79 133 97 q 203 68 184 78 l 205 68 l 205 70 q 199 79 200 70 l 197 79 l 199 83 q 180 112 190 91 l 173 112 l 168 108 l 161 108 q 154 125 158 108 q 144 142 148 125 l 144 153 q 156 159 146 159 l 184 153 l 184 167 l 180 167 l 182 171 l 182 173 q 175 186 182 183 q 168 169 171 186 l 161 169 q 146 178 151 169 l 146 188 q 154 232 152 203 l 182 270 l 182 273 l 180 273 q 184 285 184 279 l 184 287 l 182 287 q 125 186 125 255 m 283 271 l 281 268 l 281 264 l 285 264 q 287 270 285 266 l 283 271 m 215 258 q 216 237 216 252 q 224 252 222 237 l 222 260 l 218 260 l 215 258 m 325 228 q 334 203 328 203 l 338 203 q 342 207 342 203 l 342 209 q 334 216 339 216 q 336 224 334 220 q 334 230 334 228 l 329 230 l 325 228 m 462 216 l 462 214 q 468 207 465 207 l 470 207 l 470 216 l 462 216 m 502 216 l 502 199 q 506 195 503 195 q 511 212 511 203 l 511 216 l 502 216 m 549 216 q 561 186 555 186 q 568 199 568 189 l 568 212 q 565 216 568 216 l 549 216 m 201 211 l 199 201 l 205 197 l 209 197 q 211 201 209 201 q 203 211 208 210 l 201 211 m 407 201 q 411 197 408 197 l 412 201 l 412 205 l 411 205 q 407 201 407 204 m 588 188 l 589 176 q 588 157 589 174 l 591 155 q 607 186 591 162 q 601 193 604 193 l 599 193 q 588 188 592 193 m 312 184 q 308 178 312 183 q 315 152 313 169 q 333 125 333 152 q 346 138 336 125 q 321 178 339 138 l 312 184 m 449 165 l 439 153 q 449 144 439 151 l 452 150 l 452 161 q 449 165 452 165 m 534 165 l 532 161 q 536 146 536 148 l 536 142 q 527 134 536 140 q 555 96 529 123 l 563 96 l 563 98 q 548 131 563 109 q 546 146 546 138 l 546 148 l 549 153 l 549 155 q 534 165 549 157 m 641 165 q 635 152 635 158 l 635 150 q 643 140 640 140 l 645 140 q 650 146 646 140 q 641 165 646 165 m 66 136 q 64 123 64 130 q 116 98 104 100 l 116 104 l 90 121 q 68 136 90 124 l 66 136 m 329 119 q 323 106 329 117 l 327 104 q 331 117 327 105 l 331 119 l 329 119 m 390 114 q 397 104 393 105 l 399 104 q 403 108 403 104 l 403 112 q 395 119 403 115 l 393 119 q 390 114 390 119 m 490 95 l 489 85 q 490 79 490 81 q 494 83 494 79 l 494 91 q 490 95 494 95 m 624 62 l 631 56 l 637 56 q 648 81 638 68 l 648 83 q 639 89 648 87 q 624 62 624 82 m 574 81 q 588 56 583 56 l 588 77 q 589 79 588 79 q 588 85 588 83 l 578 85 q 574 81 574 85 m 631 32 q 618 16 631 28 l 618 15 q 627 5 618 12 l 629 5 q 635 11 632 5 l 633 24 q 635 30 635 28 l 631 32 m 192 28 q 188 18 192 24 q 197 3 188 9 q 203 22 203 13 l 203 24 q 199 28 203 28 l 192 28 m 119 18 l 119 15 l 121 15 q 127 16 125 16 l 127 22 l 123 22 q 119 18 119 22 m 152 7 q 156 3 153 3 l 165 3 l 165 5 q 159 11 165 8 l 156 11 q 152 7 152 10 z "},"3":{"ha":719,"x_min":39,"x_max":659,"o":"m 321 982 l 363 982 q 610 826 554 982 q 621 753 621 781 l 621 719 q 534 546 621 622 q 522 538 526 538 q 566 517 525 536 q 659 331 659 452 l 659 293 q 587 83 659 185 q 361 -9 512 -9 l 351 -9 q 102 104 171 -9 q 39 264 56 168 q 252 298 237 298 l 252 297 q 277 205 252 271 q 349 158 307 158 l 353 158 q 444 267 421 158 q 446 298 446 289 q 389 425 446 391 q 353 434 370 434 l 349 434 q 281 418 333 434 l 279 418 q 290 614 283 467 q 323 611 309 611 q 410 694 382 611 q 412 715 412 707 l 412 721 q 357 810 412 791 l 340 812 q 252 699 269 812 l 252 685 l 250 685 l 50 729 l 50 732 q 123 898 70 838 q 321 982 199 982 m 309 978 l 309 972 l 307 972 l 307 976 l 305 976 l 305 966 q 307 964 305 964 l 304 957 l 305 957 q 313 978 311 967 l 309 978 m 387 976 l 387 974 q 395 968 387 971 q 404 972 401 972 l 404 974 q 387 976 394 974 m 359 959 l 353 951 l 353 949 q 376 935 357 949 l 378 935 q 385 940 385 937 q 359 959 371 959 m 277 947 q 284 954 284 950 l 284 955 q 277 947 278 954 m 444 923 q 448 919 445 919 q 460 924 450 924 l 480 919 l 486 919 l 486 924 q 477 928 486 928 l 477 932 q 486 949 477 939 l 479 949 q 444 924 463 931 l 444 923 m 499 947 q 496 940 499 945 l 499 938 l 505 945 l 501 947 l 499 947 m 317 930 l 317 926 q 323 913 323 920 l 323 909 l 313 909 l 309 911 l 307 904 q 321 898 314 898 q 326 911 323 911 l 338 911 l 340 921 q 328 938 328 932 l 324 938 q 317 930 321 938 m 427 913 l 427 905 q 437 898 437 905 q 441 902 441 898 q 431 917 433 917 q 427 913 427 916 m 488 917 q 484 904 488 912 q 496 873 488 898 q 507 862 499 873 l 513 869 l 513 871 q 501 885 501 884 l 501 898 q 503 900 501 900 q 488 917 503 908 m 539 909 q 545 902 543 902 l 547 902 l 549 911 q 545 915 549 915 q 539 909 544 915 m 208 913 l 206 904 q 214 909 214 907 l 214 913 l 208 913 m 456 896 q 437 869 456 892 l 441 867 q 444 876 444 872 l 461 876 l 463 885 q 458 896 463 895 l 456 896 m 134 841 q 136 833 136 838 l 138 833 q 146 845 138 839 l 144 854 q 159 892 144 863 l 159 895 l 157 895 q 149 879 153 895 q 134 841 142 879 m 216 892 l 216 888 q 224 881 216 886 l 227 881 q 222 892 222 888 l 216 892 m 334 860 l 332 860 q 326 869 328 860 l 324 869 l 321 867 q 332 845 321 853 q 338 839 332 842 q 355 864 355 852 q 378 883 378 864 l 374 883 q 357 867 357 883 q 334 860 349 863 m 246 879 l 245 876 l 245 867 l 252 867 q 254 873 254 871 l 246 879 m 94 845 q 106 836 94 841 q 115 822 109 826 q 117 824 115 824 q 119 822 117 822 q 121 824 119 824 l 121 812 q 128 829 128 815 l 128 837 q 113 860 113 837 l 113 867 l 115 877 q 94 845 101 861 m 305 876 l 305 871 l 309 869 q 307 876 307 873 l 305 876 m 408 860 l 408 852 q 410 850 408 850 q 408 845 408 847 l 404 845 l 395 846 q 389 841 395 844 q 397 824 397 829 q 425 841 408 835 l 425 843 q 414 862 425 853 q 408 860 410 860 m 541 856 q 557 826 557 830 q 555 814 555 816 l 558 814 q 570 829 570 822 q 551 862 559 862 l 549 862 l 541 856 m 467 848 l 460 848 l 456 850 l 450 843 l 450 837 l 452 837 l 461 845 l 465 845 l 473 839 q 486 850 486 848 l 486 854 l 479 856 q 467 848 477 856 m 349 829 q 345 817 349 826 q 374 808 359 817 l 374 810 q 351 829 374 827 l 349 829 m 248 810 q 258 807 254 807 l 260 810 l 260 824 q 248 810 248 819 m 490 820 q 492 808 490 819 l 490 791 l 498 786 l 501 786 l 501 795 q 494 812 501 800 q 490 820 494 820 m 79 812 l 79 810 q 81 805 81 807 l 83 805 l 83 807 q 81 812 81 810 l 79 812 m 579 780 q 583 777 583 779 l 597 778 l 600 778 l 604 777 q 612 798 612 785 q 610 803 610 801 l 602 803 q 579 780 579 798 m 111 799 q 104 784 111 795 q 109 777 106 777 l 119 798 l 115 799 l 111 799 m 250 799 l 250 798 q 264 765 250 796 l 265 765 l 269 777 q 254 799 269 791 l 250 799 m 448 795 l 450 782 l 452 782 l 454 791 l 454 799 l 452 799 q 448 795 448 798 m 189 793 l 191 784 q 189 782 189 784 q 195 770 195 780 l 195 761 l 197 761 l 205 765 q 195 793 195 791 l 189 793 m 522 791 q 509 761 522 786 l 513 759 l 515 759 q 532 768 524 768 l 534 768 q 543 755 543 760 l 551 755 q 553 767 551 757 q 530 789 535 789 l 522 791 m 404 782 l 404 778 q 412 774 408 778 l 412 777 q 410 782 410 780 l 404 782 m 421 759 l 421 758 l 423 748 l 427 748 q 435 761 427 751 l 435 765 l 427 765 q 421 759 425 765 m 262 761 l 260 758 l 260 755 l 262 755 q 264 761 262 758 l 262 761 m 494 761 l 492 758 l 499 751 l 501 755 l 501 759 l 494 761 m 469 746 l 469 742 q 479 729 479 742 l 480 729 q 492 736 490 736 q 482 755 482 751 l 480 755 q 469 746 469 748 m 191 751 q 186 742 187 742 q 199 727 188 727 l 201 730 l 201 734 l 195 734 l 195 748 q 191 751 195 751 m 536 734 q 539 730 536 730 q 547 739 543 730 l 545 739 q 536 734 539 734 m 448 732 l 448 725 q 460 702 460 709 q 456 699 460 699 l 454 699 l 450 700 q 448 699 450 699 q 463 690 448 692 q 469 704 469 700 q 456 719 459 711 q 461 736 456 724 q 448 732 454 732 m 239 727 l 237 718 l 239 708 l 237 708 q 241 692 241 701 q 239 690 239 692 l 245 690 q 248 696 248 690 q 241 727 248 701 l 239 727 m 425 713 l 416 702 l 416 700 q 431 704 427 704 l 431 711 q 425 713 429 711 m 570 614 q 558 600 567 600 q 568 588 561 591 l 581 607 q 570 614 579 614 m 465 531 l 469 531 q 479 544 469 536 l 486 544 q 503 525 488 544 l 503 529 l 494 543 l 494 559 q 498 574 494 568 q 496 581 496 578 l 492 581 q 479 548 482 581 q 465 531 471 548 m 538 574 l 536 571 q 541 559 538 559 q 549 569 549 568 l 538 574 m 429 552 l 427 548 q 431 536 431 542 q 421 514 427 536 q 427 504 424 504 q 439 538 439 531 q 429 552 432 552 m 385 544 q 383 536 385 536 l 385 533 l 385 524 l 380 514 q 391 496 380 506 l 391 489 l 387 475 l 391 475 q 404 498 391 484 q 389 544 389 538 l 385 544 m 290 534 l 290 525 q 296 504 296 510 l 300 504 q 304 512 300 507 q 290 534 304 521 m 349 517 l 349 515 l 353 515 l 353 522 q 349 517 349 521 m 520 517 l 520 515 q 532 500 520 502 q 536 515 536 507 l 528 522 l 524 522 q 520 517 520 521 m 334 487 q 347 455 347 461 q 355 460 352 460 l 353 470 l 353 485 q 361 498 353 498 l 363 498 q 359 506 359 503 q 334 489 345 489 l 334 487 m 477 504 l 477 503 q 499 484 477 499 l 503 484 l 498 491 l 498 504 l 496 504 l 482 503 q 477 504 479 504 m 292 496 q 286 474 286 481 q 294 489 292 474 l 294 496 l 292 496 m 572 491 q 570 485 572 489 q 576 477 573 477 q 581 484 578 477 l 581 485 q 576 491 581 488 l 572 491 m 416 477 l 416 475 q 418 455 416 468 q 404 430 404 434 q 433 439 414 439 q 421 451 426 451 l 421 458 q 427 466 425 466 q 421 484 421 481 q 416 477 418 484 m 437 460 l 437 458 l 442 451 l 442 441 l 439 441 l 439 439 q 452 432 444 439 l 454 432 q 460 444 460 434 l 460 449 l 456 447 l 446 447 l 446 451 q 450 466 446 452 l 446 468 l 444 468 q 437 460 441 468 m 558 460 l 558 455 l 562 455 l 562 456 q 558 460 562 460 m 566 446 q 576 416 567 429 q 587 420 582 420 l 587 413 l 579 404 l 579 401 l 581 392 q 593 407 587 395 q 591 415 591 414 q 593 437 591 418 q 587 460 591 460 q 566 446 572 446 m 526 447 l 526 441 l 532 441 l 539 458 l 538 458 q 526 447 536 458 m 473 453 l 473 446 l 475 446 q 477 451 475 447 l 473 453 m 349 449 l 349 437 l 355 437 l 355 439 q 351 449 351 439 l 349 449 m 307 437 l 304 432 l 304 430 q 311 432 307 432 l 311 434 q 307 437 311 437 m 522 428 l 520 425 l 520 415 q 541 397 520 400 l 543 397 q 522 428 543 424 m 437 396 q 442 394 439 396 l 446 399 l 446 413 l 448 422 l 444 425 q 437 399 441 425 q 435 396 435 399 l 437 396 m 631 413 l 635 411 l 636 415 l 636 416 l 635 416 q 631 413 631 416 m 547 396 q 557 388 549 388 q 551 396 553 396 l 547 396 m 461 385 l 471 382 l 471 385 q 467 388 471 388 l 465 388 q 461 385 461 387 m 635 373 l 638 371 q 642 382 642 377 l 642 388 q 635 373 636 388 m 558 382 l 558 380 q 570 352 558 372 q 578 359 573 352 q 572 375 572 369 l 572 377 l 576 382 q 572 387 576 387 q 558 382 566 382 m 442 361 q 454 347 442 351 q 467 331 465 331 l 469 335 l 469 348 l 465 347 l 460 347 l 442 361 m 619 352 l 614 323 q 616 318 616 320 l 617 318 q 627 345 624 318 q 621 352 624 352 l 619 352 m 515 345 q 513 333 515 336 q 515 312 515 320 l 515 302 l 509 283 q 530 262 509 278 l 538 262 l 538 270 q 522 281 531 270 l 522 283 q 528 304 528 302 q 519 326 519 320 l 522 338 q 520 345 520 342 l 515 345 m 475 318 l 475 310 l 479 310 q 490 316 488 310 l 490 319 q 484 326 490 322 l 482 326 q 475 318 479 326 m 616 286 l 616 281 q 619 279 619 281 q 629 291 629 283 q 627 293 627 291 q 616 286 616 288 m 241 289 q 235 257 237 286 q 231 250 231 257 l 235 248 l 243 248 q 254 260 243 248 q 243 289 249 289 l 241 289 m 448 262 q 463 259 458 262 q 475 272 475 271 l 475 276 q 469 281 475 279 q 448 267 448 274 l 448 262 m 128 272 l 132 270 l 134 270 q 136 276 134 272 l 132 276 q 128 272 128 275 m 43 260 q 54 224 43 258 l 58 224 q 64 230 61 224 l 64 232 q 49 251 64 240 l 47 260 l 43 260 m 488 255 l 488 251 l 507 219 l 509 219 l 515 229 q 494 259 515 245 l 492 259 q 488 255 488 258 m 132 255 q 146 230 132 235 q 153 241 153 232 q 146 257 146 254 l 142 257 l 132 255 m 583 245 q 606 222 583 239 l 608 222 q 612 227 612 222 l 612 230 l 591 251 l 589 251 q 583 245 587 251 m 452 240 l 458 232 q 465 238 465 235 l 465 240 q 460 245 465 243 l 458 245 q 452 240 456 245 m 241 200 l 241 189 q 245 184 241 184 l 246 184 q 258 234 258 214 l 254 236 q 241 200 241 227 m 574 220 l 574 217 q 581 208 578 208 l 583 208 l 585 217 l 585 219 q 581 227 581 223 l 579 227 q 574 220 576 227 m 435 217 l 433 208 l 437 208 l 437 217 l 435 217 m 153 215 q 146 192 146 202 q 157 184 146 189 q 163 168 163 172 l 163 163 l 157 144 q 163 135 159 135 l 165 135 l 168 137 l 167 146 q 170 192 167 164 q 157 213 158 192 l 153 215 m 587 194 l 587 189 q 602 158 601 177 l 606 158 l 616 163 l 610 173 q 612 201 610 182 q 608 205 608 201 q 587 194 587 196 m 281 189 q 279 175 281 182 l 284 141 q 292 158 292 143 l 292 170 q 281 189 292 180 m 100 186 l 104 173 q 109 175 107 175 q 106 186 106 183 l 100 186 m 410 177 q 421 165 421 170 l 441 165 q 488 141 446 154 l 566 111 l 591 99 q 604 122 604 117 q 574 137 602 122 q 541 146 553 137 q 484 179 497 161 l 475 173 l 461 173 q 437 186 454 173 l 420 186 q 410 177 417 186 m 619 161 l 619 151 l 621 151 q 633 182 633 179 q 623 161 629 182 l 619 161 m 212 172 q 233 132 228 151 l 243 132 q 248 137 245 132 q 216 173 248 159 l 212 172 m 328 109 q 336 97 332 97 q 349 103 349 99 l 347 113 q 355 132 350 132 l 363 132 l 363 123 l 361 120 l 364 120 q 374 133 370 120 l 372 137 l 372 141 l 376 141 l 374 144 l 376 144 q 374 151 374 149 q 347 127 347 140 q 328 109 347 119 m 229 113 l 227 95 q 235 83 232 83 q 239 87 239 83 l 239 97 q 231 113 239 107 l 229 113 m 351 83 q 364 52 361 52 l 368 52 l 380 54 q 397 40 397 54 l 399 40 q 406 61 403 40 q 391 82 403 70 l 389 82 q 382 68 387 68 l 374 68 q 364 93 370 68 q 361 97 361 93 q 351 83 351 94 m 144 64 q 151 57 144 62 q 168 78 165 78 l 168 92 q 165 95 168 95 q 153 74 163 95 q 144 64 151 74 m 189 93 q 187 87 187 90 l 191 74 q 189 61 189 66 q 212 52 205 57 l 214 55 q 193 93 213 71 l 189 93 m 243 71 q 241 64 243 68 q 246 57 243 57 q 250 63 248 63 q 245 71 248 71 l 243 71 m 324 66 l 324 64 q 330 57 328 57 q 334 66 334 63 l 324 66 m 311 55 l 309 52 l 313 50 l 315 54 l 311 55 m 182 47 l 182 42 q 189 35 182 39 l 191 38 l 189 47 l 182 47 m 406 23 l 406 21 q 421 15 418 15 l 423 19 l 423 21 q 414 40 423 30 q 406 23 410 40 m 201 38 l 201 35 q 206 28 201 31 q 208 33 206 33 q 206 38 206 36 l 201 38 m 226 14 l 235 9 l 237 14 q 233 17 237 17 l 229 17 q 226 14 226 16 m 298 5 q 294 2 298 2 l 294 -2 l 340 -5 q 321 0 340 -1 q 307 -2 313 -2 q 298 5 307 1 z "},"4":{"ha":720,"x_min":50,"x_max":707,"o":"m 425 974 l 613 974 l 613 388 l 707 388 l 707 176 l 613 176 l 613 -1 l 427 -1 l 427 176 l 50 176 l 50 401 q 425 974 425 970 m 471 970 l 469 960 q 473 956 469 956 q 476 966 476 963 l 471 970 m 492 970 q 490 945 490 954 q 497 936 493 937 q 514 964 514 951 q 512 970 512 968 l 492 970 m 575 901 q 594 873 584 882 l 594 875 q 589 899 589 888 q 598 922 595 899 q 610 947 606 929 l 610 970 q 590 922 598 970 q 575 901 575 913 m 564 958 l 564 953 q 570 941 565 941 q 575 947 572 941 l 575 953 q 570 958 575 956 l 564 958 m 434 928 q 433 926 434 926 q 446 894 446 910 q 436 869 436 874 l 436 858 q 440 854 437 854 l 442 854 q 465 899 452 854 q 440 926 450 905 q 434 928 436 928 m 543 928 q 541 922 543 926 q 549 909 544 909 q 554 920 554 911 q 547 928 554 923 l 543 928 m 408 897 l 408 896 q 414 880 408 882 q 419 892 419 882 l 419 894 l 414 899 q 408 897 410 897 m 503 886 l 501 882 l 501 875 l 503 875 q 509 880 505 875 q 503 886 509 883 m 372 880 l 355 854 l 355 852 l 358 854 l 364 854 l 374 852 q 389 869 376 863 l 389 875 q 372 880 382 880 m 516 846 l 511 846 l 501 854 q 499 852 501 852 q 503 840 503 846 l 503 837 q 490 831 503 833 q 480 818 484 826 q 492 814 486 814 q 499 831 499 827 l 507 831 q 522 808 509 831 q 532 816 530 812 l 524 825 l 524 833 q 535 856 535 854 l 528 861 l 526 861 l 516 846 m 571 844 q 573 838 573 840 l 575 838 l 579 840 q 577 846 577 844 l 575 846 l 571 844 m 355 808 q 347 795 347 802 q 353 772 353 777 l 337 764 q 353 751 344 751 q 364 774 360 772 q 366 776 366 774 q 362 787 362 782 q 366 802 362 789 q 355 808 364 808 m 446 778 l 457 768 q 465 793 463 768 l 465 797 l 471 797 l 482 789 l 484 789 q 473 808 484 800 q 455 787 456 808 q 446 778 453 787 m 539 806 l 539 797 q 545 785 540 785 l 547 785 q 552 791 549 785 q 543 806 552 802 l 539 806 m 497 781 l 497 779 q 501 772 501 775 q 490 751 501 751 l 490 747 l 495 740 l 505 741 l 511 741 q 524 774 511 758 l 524 776 q 507 787 517 787 q 497 781 497 786 m 400 766 l 395 759 l 395 757 q 406 749 395 753 l 406 751 q 400 766 406 765 m 539 741 q 526 719 526 732 q 537 703 532 705 q 545 709 545 706 l 545 724 q 547 732 545 728 q 539 741 543 741 m 412 726 l 412 717 l 415 717 q 425 734 415 728 q 412 726 412 730 m 573 734 l 573 730 q 579 724 573 728 q 581 726 579 726 q 575 734 578 734 l 573 734 m 349 724 l 349 722 q 355 721 351 722 l 355 728 l 353 728 q 349 724 349 728 m 316 715 l 316 709 l 318 709 q 322 713 322 709 l 322 719 l 320 719 q 316 715 316 718 m 571 703 q 579 696 573 696 q 590 711 587 696 q 589 717 589 715 l 585 717 q 571 703 583 717 m 549 622 l 549 612 l 547 601 q 549 591 549 597 q 541 574 545 576 q 554 549 549 555 l 554 540 q 543 534 552 534 l 535 534 q 532 540 535 540 l 528 534 l 528 532 q 535 521 535 532 l 539 521 q 571 544 554 536 l 571 551 q 558 564 571 553 q 583 603 569 603 q 598 644 589 603 q 610 658 600 644 l 610 698 l 608 698 q 589 673 604 698 q 562 633 589 654 q 549 622 562 622 m 320 696 l 318 692 l 318 681 l 311 681 l 307 682 q 303 675 307 680 l 303 663 q 307 660 304 660 l 309 660 q 330 681 323 677 l 334 686 l 334 688 q 320 696 330 696 m 450 692 q 444 688 450 688 l 444 684 q 453 667 448 667 q 459 673 455 667 q 450 692 456 692 m 425 673 q 237 388 391 618 l 427 388 l 427 673 l 425 673 m 473 663 l 471 660 l 471 656 q 482 648 471 652 q 484 650 482 650 q 473 663 481 659 m 488 620 l 486 612 l 490 610 l 493 616 l 493 620 l 488 620 m 438 584 l 436 576 l 436 574 l 438 574 q 440 582 440 581 l 440 584 l 438 584 m 157 547 q 159 542 159 544 l 160 542 q 168 568 167 542 q 157 547 157 557 m 511 568 l 511 549 l 514 536 q 507 525 511 530 q 511 513 511 518 q 499 485 501 513 q 486 469 486 485 q 499 460 486 463 q 507 475 505 475 q 520 486 520 475 q 530 492 520 492 q 532 498 532 496 q 518 515 529 515 l 518 519 q 522 530 518 524 q 518 551 518 549 q 522 563 522 557 l 512 568 l 511 568 m 431 544 l 431 525 l 434 525 q 442 542 434 531 l 442 545 l 440 545 l 431 544 m 248 523 l 248 521 q 252 517 248 517 l 254 521 l 250 523 l 248 523 m 571 506 q 573 500 573 502 l 579 500 q 585 506 581 500 l 583 509 l 583 521 l 581 521 q 571 506 576 521 m 121 498 l 122 486 q 115 479 119 486 l 115 467 q 121 464 115 464 q 132 490 130 464 q 136 496 136 490 q 130 509 130 506 q 121 498 127 509 m 554 479 l 552 475 l 556 473 l 558 473 l 558 475 q 554 479 558 479 m 193 460 q 200 443 196 443 l 202 443 q 199 456 199 450 q 212 469 212 458 q 202 475 205 475 q 193 460 196 475 m 446 466 q 450 462 446 462 l 452 462 q 448 466 452 466 l 446 466 m 96 431 l 98 420 l 98 414 q 92 401 92 408 l 92 380 q 86 369 92 370 q 65 370 73 370 l 65 369 q 67 348 65 365 l 65 336 l 69 336 l 92 353 l 98 353 l 100 344 q 98 338 98 340 q 107 346 100 338 l 101 355 q 113 382 101 369 l 111 405 q 119 439 114 405 q 132 448 131 444 l 132 456 q 100 441 100 452 q 96 431 98 441 m 467 448 l 467 437 l 461 429 l 461 414 q 453 399 461 408 l 453 397 q 473 380 456 391 l 473 378 l 474 378 l 474 380 l 473 391 q 484 418 475 408 q 471 441 477 418 l 471 448 l 467 448 m 499 435 l 497 431 l 503 427 q 507 433 507 432 q 499 435 500 435 m 214 429 q 210 422 210 425 q 216 403 214 415 l 221 403 q 227 408 224 403 l 227 414 q 214 429 221 425 m 81 420 q 77 405 81 417 q 86 420 79 405 l 81 420 m 189 388 l 189 382 q 197 374 189 379 l 199 374 l 199 376 q 189 388 192 388 m 583 374 q 590 353 586 353 l 594 353 q 598 357 598 353 q 592 388 598 368 l 590 388 q 583 374 587 388 m 414 370 q 423 353 415 353 q 440 386 437 353 l 438 386 q 414 370 414 377 m 316 384 l 316 369 l 322 342 l 324 342 q 336 361 330 344 q 318 384 333 370 l 316 384 m 358 384 q 370 370 366 370 q 374 384 374 378 l 358 384 m 60 374 l 63 372 l 63 378 q 60 374 60 378 m 526 376 q 524 372 526 372 l 526 369 l 526 351 l 530 351 l 530 372 q 526 376 530 376 m 473 372 q 469 355 469 360 q 476 342 469 345 l 480 342 q 482 346 480 346 q 473 372 477 372 m 355 313 q 341 330 341 323 l 339 330 q 334 310 339 315 q 339 283 335 283 l 341 283 q 366 313 366 300 l 377 313 q 383 310 378 313 q 396 336 389 317 q 402 342 399 336 l 402 357 q 398 361 402 361 l 387 361 q 362 315 380 355 q 355 313 359 313 m 221 353 l 219 349 l 219 346 q 223 344 223 346 q 229 346 227 346 l 229 348 q 221 353 229 351 m 577 334 l 577 330 q 589 338 587 330 q 587 348 587 341 l 585 348 q 577 334 577 345 m 275 340 l 273 336 l 277 334 l 278 338 l 275 340 m 75 294 q 77 289 77 291 l 82 289 q 100 308 100 296 q 98 323 98 321 q 100 329 100 327 q 98 336 98 332 q 81 300 81 326 q 75 294 79 300 m 539 334 q 532 325 535 326 q 549 287 547 287 l 552 287 q 558 311 558 302 q 543 319 545 319 l 543 330 q 539 334 543 334 m 54 332 l 54 296 q 63 292 57 296 l 62 296 l 62 304 q 65 317 62 317 q 54 332 65 324 m 452 327 l 452 323 q 455 319 452 319 l 457 323 l 457 327 l 452 327 m 256 313 q 261 292 261 296 l 261 287 l 259 273 q 265 268 262 273 l 265 260 q 246 245 256 245 q 229 230 246 240 q 221 209 221 214 l 221 205 q 259 237 242 237 q 286 205 275 237 q 324 195 321 195 l 343 201 q 387 186 382 192 l 396 180 l 414 180 l 436 182 q 446 161 440 178 l 450 159 q 453 182 453 167 l 455 182 q 433 203 451 193 l 423 201 l 377 214 q 375 212 375 214 q 309 222 355 212 q 271 243 279 222 l 267 256 l 267 258 q 278 262 267 262 l 271 285 l 271 287 l 273 298 q 269 310 269 304 l 269 315 l 259 315 l 256 313 m 667 311 l 667 310 q 670 306 667 306 l 674 306 l 674 315 l 670 315 q 667 311 667 315 m 693 313 l 693 311 q 701 283 699 307 l 703 283 l 703 311 l 693 313 m 471 311 q 469 302 471 305 q 474 304 472 304 l 474 311 l 471 311 m 185 308 l 185 300 l 189 300 l 189 304 q 185 308 189 308 m 212 292 q 202 273 202 276 q 221 270 212 273 l 221 277 q 212 292 221 289 m 294 251 l 299 243 q 315 260 315 248 l 315 266 q 307 279 315 276 q 294 251 294 279 m 473 275 q 474 270 474 272 l 480 270 l 478 279 l 476 279 q 473 275 473 279 m 493 266 q 497 262 494 262 l 501 262 l 501 264 q 499 270 499 268 l 497 270 q 493 266 493 269 m 54 251 l 54 233 q 77 252 77 233 q 84 260 79 252 l 81 268 q 54 251 54 254 m 223 266 q 227 262 224 262 q 231 266 231 262 l 231 268 q 223 266 227 266 m 362 249 l 364 239 q 374 252 374 245 q 368 260 370 260 q 362 249 362 258 m 575 212 l 575 205 l 577 205 q 581 209 581 205 q 577 212 581 212 l 575 212 m 75 207 q 71 199 75 204 q 75 195 71 195 l 82 201 q 81 207 81 205 l 75 207 m 473 192 l 473 184 q 499 163 488 163 q 514 167 513 167 l 522 167 q 530 152 526 152 l 532 152 q 562 176 537 161 l 562 178 q 516 193 552 187 q 499 182 512 193 l 492 182 q 484 199 488 182 l 480 199 q 473 192 477 199 m 219 190 l 218 180 l 223 180 q 221 190 221 183 l 219 190 m 577 167 q 585 157 581 158 q 606 174 595 157 q 596 178 601 174 l 594 178 q 577 169 577 172 l 577 167 m 431 140 l 431 121 q 438 117 433 121 l 440 117 q 444 121 444 117 l 444 140 l 431 140 m 499 140 q 480 115 490 115 q 476 106 477 115 q 482 98 479 98 l 492 106 l 497 106 q 509 98 507 98 l 511 102 l 511 115 l 512 127 q 499 140 508 140 m 511 74 l 511 70 q 514 68 514 70 q 532 83 524 68 q 526 93 529 93 l 524 93 q 511 74 522 93 m 434 22 l 434 7 l 433 3 l 440 3 q 452 28 448 3 l 446 37 q 434 22 434 34 z "},"5":{"ha":720,"x_min":64,"x_max":690,"o":"m 157 971 l 655 971 l 655 753 l 321 753 l 321 751 l 305 620 q 423 656 372 656 l 450 656 q 665 494 591 656 q 690 360 690 431 l 690 338 q 608 87 690 200 q 383 -8 531 -8 l 374 -8 q 88 175 159 -8 q 64 261 75 210 q 281 292 132 273 l 281 290 q 317 191 281 243 q 378 160 347 160 l 380 160 q 473 276 452 160 q 477 324 477 313 q 418 475 477 439 q 378 486 397 486 l 372 486 q 273 418 320 486 l 271 418 q 92 450 97 450 l 92 452 q 157 971 92 467 m 572 954 q 579 947 574 948 l 579 960 l 577 960 q 572 954 576 960 m 345 906 l 345 901 l 347 901 q 351 905 351 901 l 351 906 l 345 906 m 612 853 l 612 851 q 616 847 612 847 l 619 847 l 617 857 l 616 857 q 612 853 612 856 m 353 795 l 355 786 q 359 790 359 786 q 357 795 357 793 l 353 795 m 446 769 q 452 758 448 758 l 458 758 l 458 762 q 448 769 455 762 l 446 769 m 128 706 q 125 685 127 689 l 127 685 q 134 699 134 688 l 134 702 q 130 706 134 706 l 128 706 m 233 559 l 227 551 l 227 547 l 231 542 q 239 551 239 544 q 233 559 236 559 m 627 544 l 625 540 q 629 536 625 536 l 631 536 l 631 540 q 627 544 631 544 m 343 534 l 342 526 q 343 521 343 523 l 347 521 l 353 524 q 345 534 349 533 l 343 534 m 107 498 q 102 481 104 494 q 107 473 104 473 q 115 484 115 483 q 107 498 113 498 m 340 492 l 336 486 l 336 484 l 340 484 q 343 488 343 484 q 340 492 343 492 m 254 448 l 254 446 q 260 441 254 444 q 264 444 264 441 l 264 448 q 260 452 264 452 l 258 452 q 254 448 254 452 m 224 431 l 231 431 q 227 435 231 435 q 224 431 224 434 m 479 359 l 479 357 q 482 353 479 353 l 482 355 q 479 359 482 359 m 534 343 q 524 328 534 340 q 526 322 526 324 l 528 322 q 536 341 532 322 l 536 343 l 534 343 m 168 252 l 168 245 l 172 245 q 178 254 175 245 q 176 261 176 257 q 168 252 174 261 m 153 210 q 163 198 156 201 l 163 202 q 157 214 157 211 q 153 210 153 213 m 625 205 q 621 194 621 199 l 621 191 q 629 177 621 180 q 636 200 635 177 q 625 205 629 205 m 585 160 q 581 139 581 153 l 585 137 l 587 137 l 589 146 l 589 156 q 585 160 589 160 m 303 132 l 309 132 q 326 151 309 136 l 328 154 l 328 156 l 326 156 q 303 132 303 137 m 107 146 q 111 137 111 140 l 113 137 l 113 142 q 107 146 109 146 m 313 120 q 319 112 316 112 l 321 112 q 334 125 334 112 q 330 130 330 125 q 313 120 320 126 m 146 121 q 172 99 146 119 q 176 104 176 104 q 151 125 172 116 l 146 121 m 264 120 q 246 97 264 107 q 277 85 246 94 q 288 95 285 88 l 288 97 q 283 102 288 100 l 271 102 l 267 120 l 264 120 m 391 112 q 395 100 395 106 l 395 97 q 391 81 395 89 q 401 24 397 77 q 391 -3 391 3 l 391 -4 q 420 -3 410 -3 l 425 -3 q 440 22 425 8 l 440 55 q 402 83 440 68 l 401 91 q 402 106 402 102 q 395 118 395 111 q 391 112 391 118 m 581 102 q 591 87 581 93 l 595 87 q 600 100 597 100 q 591 118 594 118 l 589 118 q 581 102 583 118 m 220 106 l 225 106 l 225 111 l 224 111 q 220 106 220 110 m 319 87 l 315 81 q 322 43 322 59 q 296 13 322 37 l 292 7 l 292 3 l 294 3 l 338 -3 q 351 30 351 26 q 328 49 351 35 l 328 55 l 334 74 q 319 87 330 87 m 342 70 q 349 57 342 59 q 359 70 359 60 l 359 76 q 353 81 359 79 l 347 81 q 342 70 342 79 m 467 68 l 463 62 l 463 59 q 488 32 463 47 q 503 17 488 20 l 528 28 q 501 62 518 62 l 499 51 l 490 51 q 467 68 473 68 m 547 47 l 547 45 q 551 41 547 41 q 560 51 560 50 l 551 51 q 547 47 547 50 m 458 7 l 458 3 l 459 3 q 463 7 463 3 l 458 7 z "},"6":{"ha":720,"x_min":61,"x_max":682,"o":"m 370 982 l 404 982 q 630 852 566 982 q 667 746 667 778 q 455 713 464 713 l 455 715 q 382 814 439 814 q 294 699 319 814 q 278 563 286 648 q 441 649 346 649 q 665 456 596 649 q 682 347 682 397 l 682 309 q 581 54 682 155 q 396 -9 513 -9 l 389 -9 q 120 156 191 -9 q 61 481 61 271 q 235 945 61 844 q 370 982 300 982 m 539 944 l 539 938 q 543 942 543 938 l 539 944 m 238 886 l 238 885 q 242 888 242 885 l 242 890 q 238 886 238 890 m 568 843 q 587 810 570 824 l 588 810 q 594 827 594 821 q 577 845 577 830 l 577 850 l 575 850 q 568 843 572 850 m 606 787 l 627 765 q 636 774 631 765 q 623 798 626 774 l 618 798 q 606 787 606 791 m 549 746 l 549 742 q 564 734 549 737 l 566 734 q 569 739 569 734 q 558 755 569 749 q 549 746 555 755 m 303 581 q 315 572 307 572 q 307 584 307 581 q 303 581 303 583 m 130 562 q 124 548 124 554 l 124 546 q 130 534 125 534 l 136 538 q 130 562 134 562 m 373 544 q 370 541 373 541 q 377 529 374 529 l 381 531 q 373 544 376 544 m 309 453 q 311 447 311 449 l 313 447 q 337 472 315 447 l 337 477 q 334 481 337 481 q 316 458 322 475 q 309 453 309 458 m 286 337 l 286 316 q 366 165 286 200 q 387 161 373 161 q 478 274 458 161 q 480 309 480 292 l 480 326 q 404 475 480 444 q 382 479 401 477 q 301 413 332 479 q 286 337 286 378 m 455 458 q 461 451 458 451 q 465 455 465 451 l 465 465 l 463 468 q 455 458 455 466 m 160 432 l 157 426 l 157 404 l 166 394 l 166 392 q 157 367 166 383 l 160 366 q 183 388 176 371 q 176 399 176 392 l 178 404 l 160 432 m 522 366 l 522 363 l 526 363 l 526 369 q 522 366 522 368 m 600 310 q 606 295 606 297 l 608 295 l 613 314 l 613 316 l 609 316 l 600 310 m 178 279 l 176 276 l 178 267 l 187 269 q 178 279 187 279 m 88 267 l 88 262 l 90 253 l 96 253 l 96 259 q 88 267 96 262 m 552 220 q 554 215 554 217 l 558 215 q 568 240 565 215 q 562 243 563 243 l 559 243 q 552 220 555 243 m 117 196 l 111 189 q 120 172 117 172 q 130 181 120 172 l 130 186 q 117 196 124 196 m 592 194 q 590 189 592 192 l 594 186 l 596 186 l 596 194 l 592 194 m 276 158 l 276 156 q 280 160 280 156 l 280 161 q 276 158 276 161 m 592 122 l 592 120 q 604 104 601 104 l 604 106 q 598 127 600 113 q 592 122 595 127 m 216 118 q 221 103 221 111 l 225 103 l 225 109 l 223 122 l 219 122 q 216 118 216 121 m 345 57 l 345 52 q 349 55 349 52 l 345 57 m 299 19 q 316 14 312 17 q 320 17 317 17 q 307 33 320 24 q 299 19 303 33 m 389 26 l 389 19 l 391 19 q 394 23 394 19 q 391 26 394 26 l 389 26 z "},"7":{"ha":720,"x_min":52,"x_max":672,"o":"m 52 973 l 672 973 l 672 791 q 629 736 672 783 q 525 562 568 649 q 444 332 484 473 q 395 1 395 125 l 392 -1 l 179 -1 l 179 1 q 226 295 179 62 q 315 546 265 445 q 421 739 355 631 l 52 739 l 52 973 m 152 939 q 158 931 155 931 l 161 933 l 160 945 l 158 945 q 152 939 157 945 m 88 873 l 88 869 q 108 846 88 866 l 113 846 l 115 854 q 94 867 94 863 q 88 873 90 873 m 121 793 l 121 788 q 125 784 121 784 q 129 793 129 790 q 127 800 127 798 q 121 793 124 800 m 241 798 l 241 790 q 249 782 241 787 l 251 782 q 252 786 251 786 q 241 798 252 790 m 433 751 q 442 732 435 732 l 460 753 l 460 755 q 446 763 454 755 q 433 751 433 753 m 448 720 l 448 716 l 454 716 q 460 728 458 716 l 458 728 q 448 720 448 723 m 538 662 q 537 656 538 660 l 541 654 l 543 654 q 547 659 547 654 l 538 662 m 444 614 l 444 612 q 469 559 462 566 l 475 570 q 461 581 461 578 l 461 593 q 450 620 461 615 q 444 614 447 620 m 446 372 q 440 359 446 370 q 442 353 442 355 q 450 372 446 353 l 446 372 m 431 332 l 431 330 q 436 324 431 327 q 440 339 440 334 l 438 339 q 431 332 435 339 m 399 324 q 394 307 394 310 q 406 293 394 293 l 415 309 l 415 311 q 404 324 407 324 l 399 324 m 417 289 l 417 283 l 421 283 l 421 289 l 417 289 m 357 258 l 359 248 l 357 237 q 378 281 371 237 l 374 283 q 357 258 369 282 m 293 231 q 297 218 297 219 q 304 223 304 220 l 304 229 q 299 235 304 232 l 297 235 q 293 231 293 234 m 288 189 l 290 184 l 290 175 q 272 161 289 172 l 274 144 q 262 134 262 137 l 262 129 l 274 113 q 279 115 277 115 l 279 117 l 278 129 q 286 150 282 150 l 288 150 q 299 144 295 144 q 303 148 300 148 l 301 157 l 301 159 q 315 195 305 189 l 315 202 q 309 208 315 205 q 288 189 300 203 m 212 119 l 214 102 l 212 94 q 214 88 214 90 q 235 115 226 92 q 222 127 231 127 q 212 119 213 123 z "},"8":{"ha":720,"x_min":56,"x_max":680,"o":"m 336 989 l 380 989 q 637 832 570 989 q 654 739 654 787 l 654 711 q 564 523 654 608 q 680 297 680 439 l 680 273 q 587 45 680 140 q 376 -18 510 -18 l 367 -18 q 156 38 222 -18 q 56 281 56 124 l 56 291 q 175 521 56 458 l 175 523 q 79 724 79 593 l 79 732 q 218 964 79 885 q 336 989 279 989 m 361 985 l 361 983 q 370 973 361 978 q 376 985 376 981 l 361 985 m 297 966 l 291 966 l 283 972 q 262 948 277 956 q 254 935 254 941 q 264 927 256 927 q 299 950 281 940 l 307 950 q 318 937 309 950 q 338 948 330 948 l 343 948 l 345 958 l 343 968 l 340 968 q 328 948 334 968 l 326 948 q 315 958 315 948 q 317 973 317 968 l 309 979 q 297 966 299 966 m 431 933 q 446 923 446 926 l 446 911 q 440 906 446 909 q 425 925 425 906 l 419 925 q 411 911 411 922 q 419 898 411 901 l 429 900 l 446 890 l 446 879 q 431 869 441 869 l 427 869 q 411 884 417 884 q 399 875 403 882 q 404 857 404 863 q 392 852 401 852 l 392 848 q 395 844 393 844 l 397 844 l 408 852 l 415 852 l 415 842 q 408 827 408 834 q 419 819 419 822 l 417 805 q 446 766 427 798 l 446 770 l 454 770 q 459 765 456 770 l 459 763 q 450 749 459 749 l 450 745 l 458 749 l 469 747 q 475 755 473 755 q 436 790 468 774 l 434 804 q 444 819 434 805 l 444 821 q 434 834 444 823 l 434 842 q 446 848 436 848 q 456 846 448 846 q 458 848 456 848 q 456 863 456 859 l 458 881 q 450 895 458 884 l 450 900 q 458 931 458 926 l 458 933 q 452 939 458 936 l 442 939 q 431 933 431 937 m 229 925 l 245 906 q 256 886 245 900 l 260 886 q 264 890 264 886 l 264 895 q 245 923 245 905 q 235 929 245 926 q 229 925 229 927 m 303 927 q 274 918 303 920 l 274 916 q 301 898 274 913 l 309 904 q 303 927 307 927 m 543 904 q 538 896 543 901 l 538 892 q 549 865 538 891 l 554 865 q 560 871 557 865 q 549 904 551 886 l 543 904 m 144 900 q 108 840 108 850 q 111 829 111 833 l 111 817 l 109 805 q 123 782 121 792 q 142 766 127 782 q 152 784 145 766 q 140 795 152 788 q 133 817 134 802 q 146 829 138 829 q 138 844 138 842 q 127 840 132 840 q 123 844 123 840 l 123 850 q 148 898 148 867 l 144 900 m 572 865 q 579 850 577 865 l 574 840 l 574 836 q 591 817 574 823 q 599 823 591 820 q 587 834 599 826 l 587 842 q 601 850 601 846 l 601 852 q 595 875 601 857 l 597 884 l 591 892 q 572 865 587 892 m 374 857 q 349 829 366 840 l 345 823 l 365 825 l 370 825 q 380 852 380 844 q 374 857 380 854 m 330 838 q 342 848 342 845 l 342 852 l 338 852 q 330 838 334 852 m 606 819 l 606 815 q 610 811 607 811 l 616 811 q 631 832 616 824 q 628 844 628 839 l 614 844 q 608 821 610 844 q 606 819 606 821 m 471 830 l 471 819 q 473 802 471 812 q 461 788 473 797 l 465 786 l 471 786 q 479 807 479 804 l 475 821 l 475 830 l 471 830 m 281 713 q 328 616 281 648 q 367 604 346 604 l 370 604 q 448 695 433 604 l 450 709 q 392 815 450 785 q 367 821 370 821 q 283 732 302 821 l 281 713 m 454 441 l 454 440 q 463 403 459 435 q 469 395 467 395 l 471 395 q 483 401 481 395 l 483 405 l 459 438 q 458 446 458 445 q 454 441 454 445 m 272 309 l 272 286 q 347 155 272 197 l 367 154 l 374 154 q 454 233 417 154 q 463 297 463 267 q 388 436 463 394 q 367 440 370 438 q 277 351 308 440 q 272 309 272 328 m 490 246 l 490 239 l 492 239 q 496 243 496 239 l 496 250 l 494 250 q 490 246 490 250 m 181 231 l 181 229 q 186 227 183 229 l 189 231 q 185 235 189 235 q 181 231 181 234 m 299 186 l 299 181 q 303 177 300 177 l 307 177 q 301 186 301 183 l 299 186 m 156 179 l 156 175 l 158 175 q 161 179 161 175 l 161 184 q 156 179 159 184 m 429 140 q 444 111 436 118 l 446 111 l 446 113 q 438 123 446 114 l 440 136 q 429 140 434 140 m 276 90 l 276 84 l 286 82 l 288 92 l 288 94 q 283 98 288 98 q 276 90 281 98 m 288 73 q 283 63 288 69 q 295 39 292 40 l 301 43 q 291 73 298 73 l 288 73 z "},"9":{"ha":720,"x_min":55,"x_max":685,"o":"m 333 989 l 370 989 q 654 755 581 989 q 685 523 685 646 l 685 457 q 490 9 685 107 q 358 -18 434 -18 l 351 -18 q 123 92 186 -18 q 72 221 88 139 q 287 254 269 254 q 355 154 304 154 l 366 154 q 444 241 414 154 q 467 407 457 288 q 300 320 397 320 q 94 467 168 320 q 55 650 55 547 q 169 935 55 830 q 333 989 239 989 m 306 983 l 306 981 q 326 964 306 966 l 323 977 l 323 981 l 326 985 l 323 985 q 306 983 313 983 m 339 973 l 339 972 q 347 937 347 946 l 356 929 q 364 950 359 929 q 374 958 370 950 l 374 964 q 370 966 370 964 q 349 960 352 960 l 347 960 l 347 962 q 356 985 347 968 l 351 985 q 339 973 348 985 m 399 983 l 397 979 q 405 972 399 973 l 410 979 l 410 981 l 399 983 m 244 970 l 248 964 l 248 956 q 237 923 237 945 q 231 909 233 923 q 248 895 239 895 q 254 898 248 898 l 254 904 q 265 927 254 916 l 265 948 l 273 958 q 262 975 273 968 q 244 970 248 970 m 482 952 q 478 945 482 949 q 484 933 479 933 l 486 933 l 486 935 l 484 952 l 482 952 m 153 913 l 155 909 l 155 900 q 140 892 155 895 l 138 888 l 138 884 q 144 879 138 882 l 148 879 q 157 888 149 879 l 169 888 l 169 881 q 157 854 161 871 l 153 850 l 155 840 l 155 836 l 148 836 l 138 842 q 136 838 138 838 l 140 827 l 138 815 l 138 813 q 151 791 151 800 l 151 782 q 146 768 151 776 q 149 753 146 767 q 142 741 147 747 q 148 734 144 734 l 153 734 q 173 763 160 736 q 169 780 169 770 l 171 790 q 153 809 153 807 q 163 830 157 830 l 180 830 l 180 823 q 174 805 180 818 q 182 793 178 793 l 186 793 q 212 807 186 807 l 212 809 l 201 857 l 200 857 q 198 844 198 850 l 188 844 l 188 861 q 203 888 192 888 l 201 896 l 203 906 q 194 933 198 933 q 190 943 190 933 q 153 913 171 928 m 275 877 l 275 873 q 304 856 282 856 q 319 846 305 851 l 321 850 l 319 859 l 304 859 q 296 879 296 874 l 296 881 q 304 886 296 886 q 310 884 308 884 l 317 898 l 317 904 q 302 929 302 916 l 298 929 q 283 892 292 929 q 275 877 280 882 m 432 886 l 428 881 l 428 873 q 435 881 431 873 l 435 882 q 432 886 435 886 m 262 661 l 262 654 q 328 502 262 538 q 356 494 340 494 l 362 494 q 455 597 427 494 q 459 645 459 625 l 459 659 q 405 798 459 751 q 356 817 389 812 q 269 730 298 817 q 262 661 262 696 m 121 790 l 121 788 l 124 782 l 124 761 q 136 768 134 761 q 121 790 123 789 m 190 780 l 190 774 q 194 779 194 774 l 190 780 m 196 741 l 192 736 l 192 734 q 200 716 192 719 q 205 736 205 728 l 196 741 m 157 705 l 157 703 q 165 689 157 692 l 171 689 q 165 705 165 699 q 171 718 171 712 q 167 722 171 722 l 165 722 q 159 707 161 722 q 157 705 157 707 m 260 536 q 254 515 254 524 l 258 513 l 262 513 q 267 521 267 513 q 260 536 267 535 m 463 498 l 463 486 q 460 479 463 482 q 465 469 465 472 l 467 469 q 473 475 469 469 l 473 492 q 467 498 473 495 l 463 498 m 271 475 q 265 461 265 467 l 265 459 l 271 459 q 277 471 277 461 l 271 475 m 606 446 l 606 444 q 614 430 606 433 q 617 434 617 430 l 617 438 q 610 446 617 441 l 606 446 m 242 415 q 244 409 244 411 l 246 409 q 256 427 250 409 q 254 432 254 430 l 252 432 q 242 415 242 427 m 471 395 l 471 391 q 473 386 473 388 l 474 386 l 478 388 q 471 395 477 393 m 598 307 q 594 295 594 300 q 600 291 594 291 q 617 302 617 298 q 598 307 614 305 m 621 273 q 614 264 614 265 q 619 258 614 261 l 621 258 q 627 266 624 258 q 621 273 624 273 m 474 202 q 473 196 474 200 l 476 195 l 480 196 q 478 202 478 200 l 474 202 m 511 98 l 515 96 l 517 96 q 525 104 520 96 l 525 111 q 511 98 522 111 m 215 77 q 212 73 215 73 q 215 59 215 62 l 221 59 q 225 63 225 59 l 225 66 q 215 77 225 69 m 323 61 l 323 52 q 335 36 323 44 l 335 32 l 331 26 q 345 20 338 20 l 355 32 l 355 39 q 331 64 338 64 l 328 64 q 323 61 323 64 m 269 45 l 269 41 q 275 36 269 39 q 283 47 283 38 l 283 50 l 281 59 l 277 59 q 269 45 269 56 m 316 -5 l 321 -9 l 328 -9 q 323 7 323 3 q 316 -5 316 5 z "},"\u0000":{"ha":0,"x_min":0,"x_max":0,"o":""},"\u001d":{"ha":0,"x_min":0,"x_max":0,"o":""}," ":{"ha":345,"x_min":0,"x_max":0,"o":""},"":{"ha":345,"x_min":0,"x_max":0,"o":""},"!":{"ha":402,"x_min":93,"x_max":316,"o":"m 93 973 l 316 973 l 314 302 l 96 302 l 93 973 m 239 970 l 239 968 q 252 960 241 968 q 256 970 256 966 l 239 970 m 94 869 l 94 867 q 103 855 100 855 q 109 880 106 859 q 105 886 105 880 q 94 869 94 880 m 98 782 l 98 778 q 103 772 98 775 l 105 772 l 105 778 q 102 782 105 782 l 98 782 m 184 749 q 186 743 186 745 l 192 743 q 198 749 195 743 l 198 759 q 194 763 198 763 l 192 763 q 184 749 184 760 m 123 749 l 127 747 l 128 747 l 128 753 l 127 753 q 123 749 123 752 m 96 680 l 100 677 q 121 707 121 677 q 123 711 123 707 q 96 680 113 704 m 198 705 l 198 699 l 205 697 l 208 701 q 204 705 208 705 l 198 705 m 216 494 q 198 477 215 489 l 198 471 q 210 450 198 456 l 212 450 q 218 455 214 450 l 218 457 q 214 479 214 476 l 214 481 l 219 488 l 219 490 q 216 494 219 494 m 157 366 l 161 365 q 175 382 175 370 l 175 384 q 171 388 175 388 l 169 388 q 157 366 163 388 m 94 224 l 308 224 l 308 -1 l 94 -1 l 94 224 m 134 220 l 134 218 q 144 186 138 192 l 144 174 q 136 131 140 142 l 130 127 l 127 127 l 121 131 l 121 129 q 128 125 125 125 l 128 117 q 113 95 128 109 q 127 66 120 66 l 144 66 q 169 59 167 59 q 191 111 185 59 q 194 118 191 114 l 194 120 q 189 124 194 124 q 167 117 176 117 q 150 133 161 117 l 150 142 l 169 158 q 161 174 161 168 q 175 191 161 182 q 157 207 174 197 l 157 220 l 134 220 m 227 186 q 229 182 229 183 q 239 192 232 182 l 239 196 l 237 196 q 227 186 235 196 m 266 169 l 266 165 q 269 161 267 161 l 271 161 q 279 173 279 165 l 275 174 l 271 174 q 266 169 269 174 m 233 129 q 235 124 235 126 l 243 124 q 248 135 248 125 q 244 144 248 144 q 233 129 239 144 m 281 120 q 304 131 304 124 q 293 138 302 138 q 281 120 281 128 m 163 97 l 171 97 q 179 89 174 97 l 179 84 q 161 70 179 70 q 153 80 153 71 l 153 82 q 163 97 153 92 m 205 82 q 210 70 210 75 q 198 55 210 68 l 198 52 q 210 41 198 50 q 219 64 216 41 q 229 73 222 64 l 229 77 q 216 88 229 79 l 212 88 q 205 82 209 88 m 246 32 q 260 21 260 24 q 254 3 256 14 l 273 3 q 262 23 271 23 l 262 28 q 271 42 271 36 l 271 44 q 264 50 271 47 q 246 32 246 43 m 233 21 q 231 16 233 19 q 239 4 235 4 l 243 4 l 243 6 q 235 21 239 21 l 233 21 z "},"\"":{"ha":572,"x_min":45,"x_max":537,"o":"m 45 973 l 277 973 l 277 828 q 245 587 277 640 q 120 453 215 515 q 95 441 100 441 q 45 566 50 545 q 141 662 119 608 q 153 714 149 689 l 45 714 l 45 973 m 307 973 l 537 973 l 537 761 q 466 523 537 599 q 356 441 393 451 q 307 562 307 558 l 307 568 q 414 714 414 627 l 307 714 l 307 973 m 109 928 l 109 925 q 114 919 109 922 q 120 925 117 919 q 114 932 117 932 l 112 932 q 109 928 109 932 m 85 909 l 83 900 l 83 892 q 87 888 84 888 q 97 890 92 888 q 87 909 92 909 l 85 909 m 48 855 q 52 852 49 852 l 58 852 q 62 855 62 852 l 54 861 q 48 855 52 861 m 87 589 q 75 577 87 587 q 100 550 89 566 q 109 548 104 548 l 112 554 l 112 557 q 102 581 102 566 q 87 589 94 589 m 52 556 q 58 548 55 548 l 60 552 l 60 556 q 56 559 60 559 q 52 556 52 559 z "},"#":{"ha":770,"x_min":64,"x_max":701,"o":"m 408 989 l 371 753 l 477 753 l 514 989 l 667 989 l 667 987 l 632 753 l 701 753 l 701 566 l 601 566 q 576 404 601 553 l 701 404 l 701 216 l 547 216 l 510 -18 l 357 -18 l 357 -16 l 392 216 l 286 216 l 286 214 q 250 -18 286 209 l 96 -18 q 134 216 134 207 l 64 216 l 64 404 l 162 404 l 189 566 l 64 566 l 64 753 l 218 753 q 255 989 251 974 l 408 989 m 485 777 q 483 763 485 765 l 485 763 l 487 766 l 487 777 l 485 777 m 471 722 l 471 720 q 489 709 478 709 l 491 709 l 491 724 l 493 734 l 498 734 q 518 714 515 734 l 519 714 l 519 718 q 508 753 513 753 l 507 753 q 481 734 498 743 l 471 722 m 315 734 l 315 728 l 323 728 q 325 732 323 732 q 323 738 323 736 l 319 738 q 315 734 315 737 m 522 687 q 528 682 524 687 l 532 684 l 539 684 q 557 670 547 684 q 570 684 562 670 q 578 689 578 684 l 578 695 q 562 714 562 712 q 551 711 556 711 q 547 716 547 711 q 549 730 549 723 q 545 734 545 730 q 524 689 532 734 q 522 687 522 689 m 199 687 l 201 684 l 201 664 q 197 661 201 661 l 195 661 q 189 672 189 661 l 185 672 q 174 662 175 662 l 166 662 q 159 680 163 662 l 157 680 l 153 673 q 166 650 157 650 q 187 633 187 650 l 187 622 q 174 610 187 620 l 174 606 q 180 585 178 602 q 195 554 195 576 q 201 548 198 554 q 212 570 208 548 l 212 571 q 195 622 212 578 l 195 643 q 209 656 195 646 l 218 656 l 224 652 l 226 652 l 230 664 l 245 664 l 245 670 q 230 677 245 673 q 222 709 224 690 l 218 711 q 205 691 216 711 l 199 687 m 493 709 q 503 695 499 695 l 516 695 l 516 697 l 514 707 q 516 709 516 707 l 514 709 q 510 705 514 705 l 505 705 q 493 709 499 705 m 408 701 l 408 697 q 416 693 408 693 l 416 686 q 402 670 416 684 q 406 656 406 662 q 382 633 382 635 l 382 629 q 398 623 384 623 q 419 659 404 659 q 439 635 427 656 l 439 614 q 429 581 429 587 l 429 570 l 441 570 q 439 589 441 572 q 446 606 441 606 l 454 606 q 477 562 459 606 q 466 546 477 546 l 460 546 l 450 548 q 448 536 450 539 q 450 529 450 533 l 454 529 q 471 532 459 529 q 481 511 480 532 q 471 484 481 510 l 471 450 q 456 427 471 441 q 454 420 454 422 q 460 405 460 411 l 460 399 l 456 376 q 479 351 456 374 q 493 338 479 338 q 514 336 497 338 l 516 336 l 516 338 q 485 372 503 338 l 485 405 q 505 455 485 440 l 498 463 l 498 473 l 507 482 q 500 506 500 500 l 500 509 q 503 517 500 514 q 493 546 496 528 l 494 559 q 471 610 490 577 q 448 650 450 633 q 429 691 439 659 q 414 703 417 703 q 408 701 410 701 m 485 672 q 487 666 487 668 l 491 666 q 500 673 500 671 l 500 677 l 496 677 q 485 672 490 677 m 83 620 l 83 616 q 108 648 90 616 q 116 656 111 648 l 116 662 q 108 672 111 671 l 104 672 q 93 650 102 672 q 83 620 83 642 m 253 656 q 259 652 253 652 l 259 637 q 273 618 270 618 q 278 629 278 620 l 278 637 q 255 656 278 653 l 253 656 m 353 656 q 352 650 353 654 q 359 639 356 639 l 359 652 q 355 656 359 656 l 353 656 m 127 612 l 127 610 q 151 596 127 603 l 151 602 q 159 631 159 626 l 159 635 q 153 641 159 638 l 151 641 q 127 612 134 641 m 355 585 l 355 577 q 371 575 360 577 l 371 581 q 377 620 377 611 l 375 620 q 355 585 362 620 m 522 581 q 543 562 531 562 l 549 570 q 535 591 543 591 l 532 591 q 522 581 530 591 m 241 570 l 243 559 q 241 523 241 534 q 253 498 253 502 l 253 488 q 276 475 264 488 l 278 475 q 286 482 281 475 l 286 484 q 269 513 286 495 q 251 564 269 533 l 241 570 m 342 566 l 317 404 l 423 404 l 423 405 l 448 566 l 342 566 m 522 519 l 526 517 q 530 521 526 521 l 528 525 l 528 527 l 535 541 q 533 546 533 544 l 532 546 q 522 519 527 546 m 328 523 q 321 504 328 518 q 325 494 325 497 l 327 494 q 330 521 327 501 l 330 523 l 328 523 m 184 475 q 189 467 186 467 q 207 481 207 471 q 199 496 203 496 l 195 496 q 184 475 193 496 m 301 473 q 284 457 301 463 q 276 446 284 456 l 282 442 q 307 469 292 444 l 315 469 l 321 465 l 323 473 l 321 473 q 313 471 314 471 l 301 473 m 176 461 q 174 444 176 451 q 185 454 182 446 q 176 461 184 458 m 269 461 q 257 425 257 441 q 276 407 264 407 l 278 407 q 282 411 282 407 l 282 415 q 267 430 282 416 l 267 436 q 273 448 268 448 q 271 461 271 450 l 269 461 m 317 454 q 309 436 317 451 l 315 432 q 319 452 317 435 l 319 454 l 317 454 m 543 425 q 549 409 549 415 l 549 401 q 533 363 533 366 q 555 349 533 354 q 574 320 563 331 l 574 318 q 564 277 564 296 l 568 275 q 574 293 572 275 q 587 314 587 306 q 582 328 587 321 l 582 336 l 585 341 q 568 349 585 345 q 553 370 553 362 l 553 378 q 560 393 553 385 l 560 416 l 562 430 q 557 434 557 432 q 543 425 545 430 m 209 432 l 209 430 q 216 416 209 420 l 220 425 l 212 432 l 209 432 m 216 413 l 214 401 q 232 365 218 365 l 236 365 q 239 368 239 365 l 237 386 q 241 401 237 391 q 232 411 241 406 q 224 409 229 409 l 216 413 m 139 399 l 139 397 q 166 334 166 341 l 164 322 l 168 283 q 132 249 152 260 q 123 237 123 247 l 123 220 l 139 220 l 139 208 l 146 212 l 145 222 q 162 249 145 227 l 174 249 q 176 252 174 252 q 170 270 170 265 l 170 277 q 187 288 170 283 q 180 302 180 296 l 180 311 q 182 324 180 321 q 180 341 180 334 l 180 359 q 164 380 180 367 l 162 399 l 139 399 m 389 399 q 404 386 393 392 l 406 386 q 412 391 408 386 l 412 399 l 389 399 m 624 399 l 624 386 q 628 365 628 367 l 628 363 q 624 345 628 358 q 634 334 627 337 l 634 353 q 646 374 634 359 q 634 399 634 390 l 624 399 m 98 382 q 108 357 98 376 l 110 357 l 110 363 q 100 382 110 376 l 98 382 m 284 355 l 284 334 q 298 272 298 302 q 284 258 298 270 q 292 252 284 252 q 307 254 294 252 q 332 231 311 254 q 336 229 336 231 q 350 250 344 229 q 344 254 350 254 l 344 258 q 359 264 345 264 q 367 245 365 264 l 367 243 l 365 229 q 369 220 369 229 l 394 220 q 400 231 396 231 l 404 231 q 408 227 408 231 l 408 222 q 394 191 394 214 l 392 183 q 414 206 395 183 l 421 206 q 425 202 425 205 l 425 197 q 412 183 412 185 q 402 165 410 172 q 408 159 402 163 l 410 159 q 433 186 410 165 q 444 233 438 196 q 460 252 458 233 q 454 258 460 255 l 450 258 l 442 252 l 435 252 l 423 260 l 421 256 q 433 249 423 249 l 442 250 q 448 249 446 249 l 448 237 q 433 231 440 237 l 425 231 l 414 245 q 406 247 410 247 l 392 247 q 375 274 392 251 q 359 318 371 300 q 348 336 350 336 l 344 336 l 344 334 q 350 304 350 312 l 348 300 q 352 289 352 294 l 352 286 q 340 277 352 283 q 330 262 335 262 l 327 262 q 305 299 305 262 q 307 304 307 302 l 315 304 l 321 300 l 323 300 q 325 309 325 307 q 305 324 316 324 l 305 336 q 307 355 305 345 q 300 380 304 380 q 284 355 293 380 m 250 351 l 269 314 l 269 309 q 261 293 264 302 q 275 275 268 278 l 276 275 q 271 309 276 283 l 271 320 q 259 345 264 326 l 251 351 l 250 351 m 68 339 l 68 309 q 77 316 77 312 q 68 339 74 339 m 448 314 l 448 313 q 462 297 448 300 q 466 300 463 300 l 469 300 l 477 293 q 481 309 477 296 l 477 332 l 466 332 q 450 322 460 325 q 448 314 448 319 m 635 328 l 635 322 l 640 320 l 640 322 q 637 328 637 326 l 635 328 m 201 320 q 211 300 205 302 l 212 300 l 212 304 q 203 320 212 315 l 201 320 m 87 304 q 98 286 98 291 q 85 266 95 275 q 89 262 85 262 q 114 274 98 274 l 116 277 q 93 311 104 304 l 91 311 q 87 304 87 311 m 635 311 q 628 295 635 308 q 634 279 634 286 q 623 245 623 256 q 610 231 614 240 q 612 225 612 227 l 624 235 l 630 235 q 644 220 644 235 l 655 220 l 644 237 l 644 241 q 648 258 644 245 q 640 272 640 269 q 646 283 644 283 l 644 293 l 646 302 l 637 311 l 635 311 m 661 299 l 661 297 q 673 288 661 294 l 676 288 l 676 307 q 673 311 676 311 l 667 311 q 661 299 661 309 m 394 300 q 392 295 394 298 l 404 281 q 406 288 406 286 q 396 300 401 300 l 394 300 m 68 275 l 68 264 q 71 268 71 264 l 71 272 q 68 275 71 275 m 539 252 q 535 243 539 249 l 539 241 q 545 249 542 241 q 539 252 540 252 m 431 158 l 431 142 l 433 142 q 452 152 446 152 q 462 123 459 146 q 487 96 487 115 q 505 63 497 87 q 516 52 509 63 q 519 79 519 71 q 508 104 515 80 q 483 144 486 122 l 483 159 l 485 172 q 471 183 485 174 l 473 200 l 468 204 q 442 172 456 196 q 431 158 431 172 m 151 109 q 146 92 149 105 l 149 92 q 155 104 155 94 l 155 106 q 151 109 155 109 z "},"$":{"ha":750,"x_min":39,"x_max":687,"o":"m 493 827 l 499 827 l 499 819 l 493 819 l 493 827 m 377 149 q 400 131 384 147 l 402 135 l 402 146 l 377 149 m 402 -38 q 355 -109 374 -79 q 398 -73 390 -94 q 404 -68 404 -73 l 404 -38 l 402 -38 m 212 14 q 243 5 238 5 l 245 9 l 245 20 q 241 26 241 25 q 212 14 212 19 m 445 -9 l 446 -9 q 481 3 470 -9 l 491 3 q 493 1 493 3 q 518 24 518 6 l 518 26 l 514 28 q 462 1 482 28 q 445 -9 445 -4 m 543 34 q 540 30 543 30 q 541 24 541 26 q 553 30 551 30 l 553 32 l 543 34 m 326 61 q 330 52 330 55 q 319 13 330 17 q 305 9 315 13 q 317 -13 312 -13 l 321 -13 q 336 32 326 13 q 332 47 332 39 q 346 61 335 47 l 342 63 l 330 63 l 326 61 m 481 65 l 481 63 q 491 54 481 60 l 493 54 q 495 61 495 60 q 489 69 492 69 l 486 69 q 481 65 481 68 m 431 110 l 433 106 l 433 100 l 404 83 l 400 59 q 406 36 406 48 q 391 20 406 33 q 396 18 393 20 q 416 40 412 18 q 408 69 408 52 l 408 73 l 416 73 l 421 69 l 425 69 q 435 102 431 69 q 448 123 444 106 q 446 129 446 127 l 443 129 q 431 110 438 129 m 583 154 l 581 151 q 594 129 594 147 l 594 123 q 572 92 572 100 q 576 88 573 88 q 602 102 589 101 l 602 104 l 596 111 l 596 117 q 606 125 596 120 l 615 125 q 617 123 617 125 q 633 127 629 127 q 583 154 633 136 m 642 154 l 642 152 q 646 142 646 147 l 648 142 l 652 156 l 652 162 l 650 162 q 642 154 647 162 m 121 165 q 127 160 121 163 q 125 165 125 163 l 121 165 m 619 165 l 619 162 l 629 160 l 631 164 q 625 170 631 167 l 623 170 q 619 165 619 169 m 315 172 q 332 131 332 136 q 326 123 329 123 l 321 123 l 307 125 q 278 102 307 121 l 276 92 l 276 81 q 281 57 276 76 l 281 56 q 260 24 281 41 l 260 14 l 267 14 q 297 38 297 22 q 309 56 305 45 q 301 79 301 68 l 301 86 q 315 106 301 100 q 330 100 321 106 l 338 100 q 359 125 338 110 q 361 131 361 129 q 342 158 346 149 q 328 164 330 164 l 315 172 m 443 172 q 481 160 443 163 q 522 135 511 152 q 524 133 524 135 q 540 138 534 138 l 541 138 q 551 129 550 129 l 555 129 q 569 142 558 129 q 528 162 560 151 q 497 172 528 172 q 487 174 497 174 l 479 172 q 456 181 456 178 q 443 172 443 175 m 522 191 l 524 181 l 528 181 l 530 191 q 528 197 528 195 q 522 191 525 197 m 254 228 l 254 224 q 281 199 270 205 l 286 199 q 270 228 270 222 l 254 228 m 503 237 l 503 234 q 524 212 503 231 l 528 220 l 507 237 l 503 237 m 216 226 l 216 222 q 227 216 218 216 q 249 243 240 227 l 247 243 q 216 226 216 228 m 148 251 q 157 232 155 232 l 161 232 q 168 235 163 232 l 175 235 q 191 201 186 217 l 195 201 q 202 210 199 201 l 195 235 l 199 235 l 199 239 l 186 239 q 181 243 182 243 q 175 239 175 241 q 157 257 172 239 q 148 251 150 251 m 123 271 q 132 255 130 255 l 134 255 l 134 267 q 129 278 134 277 q 123 271 127 278 m 45 276 q 86 237 72 242 q 115 205 97 219 q 140 174 115 201 q 154 156 140 166 l 156 156 q 159 165 156 161 l 157 170 q 163 172 161 172 q 159 197 163 176 l 157 197 l 157 193 q 138 214 147 193 q 125 237 133 214 q 82 267 115 237 q 76 284 79 273 q 45 276 45 280 m 127 292 q 130 288 127 288 l 132 292 l 127 292 m 165 275 l 171 271 l 181 271 q 191 298 184 271 l 191 300 l 183 300 q 165 275 165 283 m 481 309 q 491 288 488 288 l 493 292 l 493 300 q 481 309 493 302 m 522 267 l 526 264 q 557 296 530 274 q 565 307 559 302 q 563 313 563 311 q 538 290 554 313 q 522 267 522 275 m 475 321 l 475 319 q 479 315 476 315 l 479 317 q 475 321 479 321 m 481 373 q 511 361 489 366 l 514 354 q 513 338 513 343 l 516 336 q 536 356 524 356 l 538 356 q 559 325 541 356 l 563 323 q 567 334 567 329 q 561 348 561 342 l 561 366 q 540 379 550 379 q 528 373 530 373 q 491 385 509 373 q 481 373 481 384 m 448 393 q 437 385 448 389 l 439 361 l 439 356 q 443 352 439 352 q 460 361 443 356 l 462 366 l 462 379 q 448 393 462 393 m 281 420 l 281 418 q 337 400 330 403 q 349 398 344 398 l 351 398 q 355 395 355 398 l 406 380 q 419 389 410 373 q 418 395 418 393 l 412 395 q 394 402 403 395 l 391 400 l 387 400 q 355 410 380 400 q 315 408 321 408 q 283 420 315 412 l 281 420 m 338 447 l 334 441 l 334 437 l 338 437 q 342 441 342 437 l 342 443 q 338 447 342 447 m 367 465 l 367 460 l 373 460 q 369 465 373 465 l 367 465 m 631 465 q 633 435 633 445 l 633 420 q 611 387 622 387 q 592 371 597 387 q 574 357 592 368 l 574 352 q 578 346 576 346 q 590 348 589 348 q 625 311 625 330 l 623 307 q 631 294 627 294 l 635 294 l 635 298 q 629 311 635 304 l 629 313 q 648 330 632 330 l 650 330 q 667 303 667 311 l 667 288 l 673 288 q 677 292 677 288 q 673 321 673 315 q 683 325 678 325 l 681 334 l 681 342 q 658 336 664 336 q 642 354 653 349 l 638 352 q 608 359 631 352 l 608 373 q 637 402 608 376 q 638 408 637 404 q 637 429 637 421 q 646 449 637 436 l 638 470 l 631 465 m 278 513 q 270 509 278 509 l 270 507 q 274 501 270 506 l 272 492 q 280 470 276 470 q 292 484 281 470 q 280 509 292 496 l 280 513 l 278 513 m 503 517 q 509 484 506 511 q 518 456 518 475 l 522 454 l 524 454 q 536 463 534 454 q 520 478 536 466 q 511 519 513 505 l 513 530 l 509 532 q 503 517 504 532 m 567 540 l 567 538 q 590 522 567 532 q 567 540 590 525 m 340 544 q 322 515 322 518 q 315 480 321 492 q 322 472 315 477 l 322 468 q 328 474 326 468 q 321 481 326 481 l 321 490 q 336 511 331 490 q 357 532 351 511 l 340 544 m 237 553 l 237 551 q 243 546 237 549 l 243 553 l 237 553 m 313 559 l 311 546 l 315 544 l 317 544 q 322 549 319 544 l 322 551 q 313 559 322 554 m 524 565 l 524 553 q 530 559 527 553 q 524 565 530 562 m 391 567 l 391 565 l 410 542 q 421 538 416 538 l 421 546 q 398 567 401 567 l 391 567 m 475 585 q 472 569 472 577 l 472 565 q 477 559 472 562 q 466 521 477 541 q 460 505 466 519 q 468 492 463 492 q 479 530 473 498 q 493 581 493 564 q 475 585 482 585 m 262 587 l 270 575 l 270 573 q 262 563 262 567 l 251 563 l 251 569 l 254 575 l 254 576 q 251 581 254 581 q 247 563 247 576 q 262 557 248 563 l 262 562 l 268 562 q 286 548 268 553 l 288 559 q 262 587 281 587 m 439 602 q 431 587 439 595 l 431 585 q 443 573 431 582 l 445 573 l 443 583 q 450 598 443 589 q 439 602 447 598 m 84 610 l 84 608 q 105 573 92 573 q 140 546 121 565 q 181 517 159 543 q 235 468 223 495 l 237 468 l 247 474 q 241 494 244 494 q 224 490 237 490 q 222 495 224 492 l 224 495 l 222 499 l 222 509 l 218 509 l 218 515 l 224 515 l 224 522 q 175 549 178 549 q 146 573 175 552 q 138 589 142 588 q 129 585 132 585 q 86 608 115 595 q 84 610 86 610 m 157 675 l 154 662 l 165 650 q 171 660 165 654 l 171 662 q 159 675 159 669 l 157 675 m 75 682 l 75 670 q 107 641 75 647 q 142 623 113 631 q 181 606 146 615 q 204 589 184 599 q 210 581 205 581 l 210 583 q 206 589 206 583 q 208 594 208 592 l 214 594 l 216 581 l 216 578 l 212 578 q 237 571 212 573 q 241 583 237 574 q 237 598 237 593 l 243 598 q 233 618 237 604 q 231 619 231 618 l 222 614 l 220 614 q 189 625 209 625 q 156 643 167 643 q 123 660 149 643 q 75 682 80 682 m 183 687 q 189 675 184 675 q 195 682 191 675 q 186 691 191 690 q 183 687 183 690 m 237 686 q 247 695 240 686 q 243 699 247 699 q 237 686 239 699 m 154 689 q 156 684 156 686 q 179 701 168 701 q 197 718 179 709 l 200 718 l 200 716 l 199 707 l 202 705 q 206 722 202 718 q 173 713 173 715 l 165 701 q 154 689 157 701 m 464 728 q 470 716 466 716 l 472 716 q 473 720 472 720 q 468 728 471 728 l 464 728 m 226 728 l 231 728 q 235 732 235 728 l 229 732 q 226 728 226 731 m 119 736 q 113 711 119 722 q 115 693 115 700 l 115 691 l 121 691 q 136 709 121 709 l 136 722 l 140 728 l 140 730 q 136 734 140 734 l 125 732 l 119 736 m 543 722 l 545 722 q 572 740 572 730 l 570 740 q 543 722 550 740 m 615 740 l 615 738 l 625 738 q 619 743 625 741 q 615 740 615 743 m 171 749 q 173 741 173 746 l 175 741 l 175 749 l 171 749 m 526 767 q 518 740 520 756 q 514 736 514 739 l 514 734 l 520 734 q 532 755 520 737 l 532 757 q 528 767 528 764 l 526 767 m 606 777 l 606 774 l 608 770 q 615 777 615 774 l 615 779 l 613 782 q 606 777 606 779 m 105 786 q 100 772 105 782 q 113 743 109 772 l 117 741 l 117 772 q 109 786 117 783 l 105 786 m 640 784 q 658 755 645 755 l 658 757 q 648 788 652 788 l 644 788 q 640 784 640 787 m 561 772 q 567 759 563 759 l 569 759 q 574 788 569 763 q 572 790 572 788 q 561 772 564 790 m 443 796 l 435 782 l 445 779 q 450 781 448 781 l 450 782 l 446 782 q 450 792 450 789 q 445 796 446 796 l 443 796 m 94 817 q 88 798 88 799 l 92 790 q 105 802 100 793 q 94 817 103 808 m 181 821 q 195 802 182 802 l 195 800 q 189 761 192 761 q 210 747 197 747 q 220 767 220 751 l 218 767 q 206 763 212 763 l 202 763 q 199 767 199 763 l 199 768 l 206 790 l 206 792 q 191 825 191 804 l 186 827 q 181 821 184 827 m 559 852 q 567 823 564 823 l 569 827 l 569 848 q 576 860 576 858 q 559 852 559 857 m 129 881 q 121 869 129 880 l 121 867 l 125 867 l 125 856 l 117 856 l 113 858 q 111 852 113 856 l 115 854 l 119 854 q 132 821 126 854 l 132 806 l 129 792 l 134 796 l 142 796 q 163 770 163 796 q 159 753 159 756 l 159 751 l 161 751 q 173 779 171 766 l 179 779 l 179 786 q 161 794 179 791 q 140 825 161 817 q 138 846 140 833 q 140 871 140 863 q 129 881 137 881 m 355 858 q 359 846 359 852 l 359 838 q 361 829 359 833 q 363 831 363 825 q 371 837 363 836 q 404 808 402 817 l 408 808 l 414 804 l 414 806 q 404 829 404 813 q 391 854 395 854 q 375 850 383 850 q 369 858 371 858 q 389 879 369 872 q 391 891 389 881 l 389 891 q 375 883 375 891 q 355 864 375 880 l 355 858 m 574 887 l 574 885 q 604 862 574 866 q 606 856 606 858 q 604 850 604 852 l 606 850 q 602 838 602 844 q 617 810 602 830 q 627 794 623 794 l 637 794 q 640 798 640 794 l 640 802 l 637 802 q 638 823 637 810 q 611 856 625 856 q 604 879 606 856 q 590 901 597 886 q 574 887 581 897 m 146 901 q 157 891 157 901 q 165 881 160 890 l 165 871 q 156 864 165 867 q 170 829 159 829 l 173 835 l 173 846 l 171 860 l 175 862 q 208 844 201 862 l 208 840 q 202 823 202 827 l 212 823 q 222 804 216 823 q 226 802 226 804 q 247 829 247 808 q 256 850 247 831 q 247 860 256 855 q 241 858 243 858 l 243 844 q 239 840 239 844 q 197 864 220 840 q 173 892 180 864 l 173 895 q 193 924 173 903 l 191 924 q 170 912 186 924 q 146 901 151 912 m 241 939 q 235 920 241 935 q 253 892 243 918 l 254 892 q 256 899 254 895 q 249 932 251 906 l 241 939 m 210 935 l 212 926 l 212 922 q 197 899 197 906 q 224 869 205 869 q 227 873 227 869 q 216 920 216 896 q 222 937 216 925 q 218 939 218 937 l 210 935 m 450 962 l 450 930 q 466 885 455 925 l 466 883 q 454 831 460 867 q 472 784 465 831 q 477 765 477 784 l 479 765 q 487 774 479 772 q 489 781 489 779 q 475 794 489 787 l 475 808 l 484 813 q 486 819 486 817 l 489 819 l 495 815 q 511 838 505 823 q 503 852 506 838 q 516 895 503 857 l 514 899 q 520 914 517 914 q 514 933 514 924 l 514 935 q 520 941 514 938 l 532 941 q 547 897 532 935 l 547 891 q 534 858 534 873 q 538 852 536 852 q 551 885 549 852 q 549 891 549 889 q 563 901 563 899 q 547 935 556 935 q 513 955 520 955 l 513 951 l 516 951 l 516 943 l 514 943 l 505 945 q 503 943 505 943 q 500 945 503 945 q 487 932 500 941 l 487 924 q 495 922 488 924 l 495 908 q 481 846 495 880 l 470 846 l 470 848 q 475 879 470 865 l 473 889 q 484 910 473 910 l 484 920 l 464 920 l 462 933 l 475 949 l 475 953 l 462 953 q 456 966 456 962 l 454 966 q 450 962 450 966 m 241 959 q 233 960 237 959 q 227 959 229 959 q 235 947 231 947 l 237 947 l 237 953 l 247 953 q 256 945 248 953 l 260 945 l 262 955 l 262 970 q 241 959 249 966 m 301 960 q 305 951 302 951 q 324 959 324 952 l 324 966 q 313 972 322 972 q 301 960 301 972 m 408 978 l 404 968 q 408 926 408 933 q 394 906 404 915 l 394 903 q 406 885 401 903 q 418 860 418 875 l 431 856 l 433 856 q 441 864 436 856 l 441 897 q 435 903 441 899 l 433 903 q 425 881 430 881 l 421 881 q 410 903 410 893 l 410 908 q 425 922 415 918 q 419 960 419 930 l 419 970 l 425 978 l 408 978 m 342 1066 q 332 1041 342 1059 q 330 1002 330 1010 l 330 984 q 334 980 331 980 q 349 998 339 994 q 348 1034 348 1008 q 355 1043 351 1042 l 363 1043 q 373 1034 366 1043 l 373 1009 q 355 982 373 1002 l 355 974 q 357 916 355 955 l 349 916 q 326 903 340 916 l 317 903 l 317 908 q 328 926 328 918 q 321 933 328 928 l 317 933 q 307 916 307 928 q 315 889 307 908 l 313 879 l 315 867 q 295 852 315 861 l 283 829 q 286 811 286 819 q 280 800 280 810 q 281 781 281 783 q 309 802 304 802 l 309 804 q 294 823 302 804 q 305 837 296 831 q 322 819 322 834 q 319 808 322 814 l 332 813 q 324 846 324 840 q 340 864 324 849 q 336 889 336 875 l 342 892 l 353 891 l 367 897 q 363 912 363 904 l 363 914 q 375 922 368 922 l 375 924 q 371 928 375 928 q 373 960 373 950 q 369 986 373 968 q 392 1045 369 989 q 404 1049 392 1049 l 404 1063 l 402 1066 q 400 1064 400 1066 l 380 1066 l 342 1066 m 326 647 l 412 617 q 617 507 541 578 q 687 317 687 422 l 687 284 q 597 61 687 162 q 493 -5 543 9 q 408 -18 454 -14 l 408 -115 l 326 -115 l 326 -18 q 210 9 297 -18 q 61 181 104 61 q 39 284 39 254 l 41 284 q 254 315 48 284 q 286 208 258 262 q 326 172 318 172 q 408 163 368 154 q 460 195 429 166 q 487 264 487 230 q 410 363 487 327 l 326 396 q 181 456 250 422 q 68 695 68 538 q 189 945 68 863 q 326 984 259 984 l 326 1070 l 408 1070 l 408 984 l 410 984 q 574 926 491 984 q 648 815 627 873 q 664 741 664 765 q 466 703 481 703 q 426 784 462 751 l 396 805 q 326 806 359 821 q 272 726 272 781 q 326 647 272 673 z "},"%":{"ha":1026,"x_min":24,"x_max":987,"o":"m 216 1004 l 248 1004 q 416 881 360 1004 q 440 749 440 828 l 440 747 q 309 502 440 559 q 243 490 275 490 l 223 490 q 45 622 96 490 q 24 745 24 677 l 24 749 q 140 987 24 922 q 216 1004 184 1004 m 666 1004 l 782 1004 q 668 730 782 995 l 345 -35 l 231 -35 q 322 187 231 -27 q 666 1004 666 999 m 131 975 q 140 968 131 972 q 146 979 146 970 q 144 981 144 979 q 131 975 134 975 m 107 956 l 107 952 q 119 947 112 952 l 119 948 q 111 960 115 960 q 107 956 107 960 m 150 954 l 150 948 l 154 948 q 157 952 157 948 l 157 954 q 154 958 157 958 q 150 954 150 958 m 718 950 l 718 948 q 734 921 718 939 q 736 927 736 925 q 728 958 734 958 q 718 950 719 954 m 247 916 q 264 904 252 904 q 268 918 268 911 q 256 933 265 926 q 247 916 252 933 m 175 745 q 237 606 175 606 q 283 677 269 606 q 289 747 289 713 q 229 886 289 886 q 179 804 191 886 q 175 745 175 777 m 179 869 l 177 865 l 177 861 q 181 857 178 857 l 183 857 l 183 865 q 179 869 183 869 m 389 863 l 389 857 q 395 852 389 854 q 399 856 399 852 q 389 863 391 863 m 286 844 l 283 840 q 287 817 287 825 l 291 817 q 295 821 295 817 l 295 825 q 286 844 295 835 m 391 813 l 391 811 q 405 793 391 801 l 409 795 q 399 817 399 814 l 395 817 q 391 813 391 817 m 395 768 q 413 757 400 757 q 416 763 416 762 l 416 766 q 399 772 403 772 q 395 768 395 772 m 127 757 l 125 747 q 138 732 138 735 q 134 705 138 722 q 165 684 149 684 q 177 668 170 668 l 175 682 l 175 688 q 157 699 157 695 q 152 715 152 713 q 163 751 163 745 l 154 757 q 142 747 149 747 q 129 757 140 747 l 127 757 m 318 730 l 318 726 q 330 715 318 724 l 332 715 l 332 718 q 320 730 332 721 l 318 730 m 84 656 l 88 631 l 84 629 l 68 629 q 57 650 61 650 l 54 650 l 43 643 l 57 606 l 61 608 l 63 608 q 67 604 67 608 l 67 599 l 61 599 q 68 587 66 587 q 75 599 71 599 l 80 599 q 94 581 88 594 q 111 547 111 574 q 123 525 115 547 q 186 500 168 501 l 186 508 q 175 517 186 511 l 171 515 l 168 515 q 163 519 163 515 l 165 543 q 156 570 159 554 q 142 597 144 570 q 129 618 139 597 q 106 650 115 628 q 88 659 95 659 l 84 656 m 289 652 l 295 649 l 298 649 l 298 656 l 293 656 q 289 652 289 656 m 102 625 q 111 618 111 622 l 111 612 q 104 599 111 602 l 98 599 q 90 618 90 601 q 102 625 92 625 m 256 606 q 270 595 265 604 l 275 595 l 275 587 l 272 587 q 268 593 268 587 q 245 585 245 589 l 245 577 q 248 574 245 574 q 264 579 258 579 l 268 579 l 277 564 q 297 591 290 574 q 286 602 297 593 q 272 622 286 612 q 256 606 269 622 m 541 600 l 541 589 q 544 585 541 585 q 550 591 547 585 q 543 600 546 600 l 541 600 m 181 564 l 183 564 q 200 572 197 572 l 200 574 q 195 589 200 577 l 191 589 q 181 564 185 589 m 123 564 l 132 564 q 144 548 144 559 l 144 536 l 142 527 l 134 527 q 121 558 121 539 q 123 564 123 562 m 210 554 l 210 552 q 216 547 210 549 q 214 508 214 520 l 214 500 l 212 496 l 216 494 l 220 494 q 227 504 220 499 l 225 517 l 225 533 q 227 541 225 537 q 216 554 223 551 l 210 554 m 184 547 q 193 523 189 523 l 195 523 q 200 529 197 523 q 189 547 195 544 l 184 547 m 573 523 l 573 522 l 575 522 q 583 543 575 524 l 579 543 q 573 523 574 543 m 258 533 l 258 527 q 270 502 258 524 l 270 498 l 275 498 q 281 515 279 498 q 272 525 279 515 l 272 536 l 262 536 q 258 533 258 536 m 469 504 q 463 488 463 496 q 465 481 463 488 q 448 471 465 474 l 448 465 q 463 458 448 463 q 471 450 463 454 q 480 469 480 461 q 475 492 475 488 l 475 502 q 469 504 473 502 m 778 483 q 975 322 926 483 q 987 224 987 264 q 882 -8 987 60 q 793 -33 838 -33 l 762 -33 q 600 75 659 -33 q 571 208 571 141 l 571 239 q 637 427 571 351 q 778 483 694 483 m 813 438 q 814 436 814 438 l 819 438 l 828 438 q 840 434 833 438 l 842 438 q 834 452 834 448 q 848 465 834 459 l 848 467 q 832 471 842 467 q 813 438 813 471 m 479 438 q 471 419 471 421 l 475 417 l 488 427 l 490 427 q 500 413 500 422 l 500 407 q 492 395 493 395 l 494 386 l 492 367 l 496 365 q 504 388 500 365 q 509 395 507 388 q 482 434 509 425 q 479 438 482 438 m 825 431 q 817 409 820 425 q 826 399 817 407 q 840 411 835 403 l 840 417 q 825 431 840 431 m 722 237 l 722 208 q 766 85 722 104 l 778 83 q 832 168 819 83 q 834 206 834 189 l 834 239 q 789 361 834 340 l 778 363 q 724 270 734 363 q 722 237 722 258 m 646 357 l 645 353 l 645 351 q 650 345 645 349 l 652 349 q 646 357 650 357 m 830 334 q 842 291 830 300 l 842 290 q 840 277 840 279 q 848 270 842 270 q 863 281 861 275 l 863 283 q 848 299 863 298 q 846 328 848 311 l 853 328 l 853 336 q 840 343 851 336 q 830 334 837 343 m 861 322 l 861 301 l 865 301 q 875 315 875 307 q 867 324 871 323 q 861 322 863 322 m 441 274 q 452 256 448 256 q 463 277 463 265 q 455 288 459 286 l 452 288 q 441 274 446 286 m 366 212 q 359 185 361 185 q 343 158 348 177 q 336 144 336 155 l 341 140 q 355 163 355 140 l 364 163 q 374 146 374 159 q 364 133 372 146 q 368 129 365 129 l 370 129 l 395 156 l 395 158 l 380 175 l 380 181 q 391 195 391 193 l 391 197 q 378 208 391 208 l 378 206 l 366 212 m 612 210 l 612 202 l 616 202 q 620 206 620 202 q 616 210 620 210 l 612 210 m 909 197 q 907 195 909 195 q 909 189 909 191 l 917 189 l 917 197 l 909 197 m 311 119 l 298 119 q 260 17 260 26 q 252 -10 260 12 q 258 -31 258 -25 l 297 -31 q 309 -26 303 -26 l 309 -22 q 302 -8 302 -15 q 304 7 302 -7 q 289 34 289 25 q 298 58 295 58 l 302 58 q 312 36 309 58 l 312 22 q 336 -26 323 12 q 334 -31 334 -29 l 341 -31 q 345 -14 345 -19 q 332 19 339 -14 l 332 20 q 334 22 332 22 q 320 71 330 46 l 320 79 q 324 85 324 83 l 324 88 q 316 98 316 97 q 328 135 316 102 l 324 135 q 311 119 313 119 m 612 113 l 612 106 l 618 98 l 618 90 q 610 73 618 81 q 612 67 612 69 l 616 67 q 631 86 627 86 q 650 102 642 92 q 645 110 648 110 l 641 110 l 633 102 l 623 102 l 623 110 q 631 123 631 117 l 621 131 q 612 113 616 131 m 302 90 l 311 90 q 316 85 313 90 l 316 81 q 312 77 316 77 l 307 77 q 302 81 302 77 l 302 90 m 809 79 l 809 73 q 817 65 809 70 q 819 73 819 72 q 817 79 817 77 l 809 79 m 637 47 l 633 40 q 643 24 633 30 q 648 31 646 24 q 637 47 648 41 m 753 26 q 755 20 755 23 l 762 20 q 764 26 762 23 q 762 33 762 31 l 759 33 q 753 26 758 33 m 270 7 l 273 7 q 289 -20 279 7 l 289 -22 q 286 -26 289 -26 l 277 -26 q 266 3 266 -1 q 270 7 267 7 z "},"&":{"ha":863,"x_min":37,"x_max":850,"o":"m 376 983 l 416 983 q 637 825 591 983 q 642 783 642 802 l 642 757 q 513 536 642 635 l 494 519 q 618 378 522 477 q 673 483 655 436 l 834 387 q 751 244 810 332 q 850 163 824 178 l 850 161 q 779 55 850 153 q 736 -8 749 5 l 734 -8 q 614 85 701 14 l 612 85 q 334 -8 509 -8 q 54 161 121 -8 q 37 268 37 220 q 214 544 37 446 q 218 547 218 544 q 150 745 150 644 l 150 753 q 281 966 150 906 q 376 983 330 983 m 336 962 l 336 958 q 340 955 336 955 l 342 955 q 355 974 345 955 q 361 975 359 975 l 361 977 l 347 977 q 336 962 345 977 m 382 974 q 378 970 382 970 l 382 945 q 365 939 378 941 l 363 936 q 376 926 368 926 q 389 951 376 931 q 382 972 382 964 q 384 974 384 972 l 382 974 m 477 951 l 475 947 q 490 915 481 916 q 494 918 494 915 q 477 951 494 924 m 412 916 q 425 909 419 909 q 441 934 425 934 l 443 937 l 443 941 q 439 945 443 945 l 435 945 q 412 916 420 928 m 226 926 q 207 905 208 909 q 209 903 209 905 q 228 926 217 903 l 226 926 m 460 901 l 463 899 q 473 918 473 910 l 473 920 q 469 924 473 924 l 467 924 q 460 901 461 924 m 572 924 q 568 899 572 911 q 574 894 568 897 q 581 909 581 902 l 581 915 q 572 924 581 917 m 395 892 l 395 890 q 404 880 395 887 l 404 884 q 401 897 401 897 q 395 892 398 897 m 266 878 q 267 873 267 875 l 269 873 q 279 886 274 874 q 277 892 277 890 q 266 878 269 887 m 231 884 l 228 878 l 231 877 q 235 880 235 877 q 231 884 235 884 m 334 877 q 330 871 334 876 l 330 865 q 340 850 330 854 l 342 850 q 347 861 347 852 q 334 877 347 873 m 477 840 q 479 825 477 839 l 469 814 q 475 787 471 787 l 483 795 l 477 810 q 488 829 477 819 l 488 846 q 502 867 502 857 l 502 869 l 500 869 q 477 840 477 850 m 439 865 l 441 848 l 444 848 l 446 859 q 444 865 444 863 l 439 865 m 618 861 l 618 856 q 621 850 621 856 l 623 850 l 623 852 q 620 861 620 858 l 618 861 m 281 852 l 279 840 q 287 808 280 808 l 292 808 q 294 842 294 835 q 281 852 294 852 m 541 812 q 553 797 547 800 l 555 800 l 555 827 l 574 827 l 574 829 q 566 837 574 832 q 543 818 543 837 q 541 812 541 818 m 336 760 q 391 648 336 724 q 471 766 471 709 q 406 835 461 835 l 404 835 q 336 760 349 835 m 361 827 l 357 821 l 359 821 l 363 827 l 361 827 m 599 799 l 599 797 q 604 779 599 793 q 599 759 599 762 l 600 755 q 597 730 597 740 q 599 724 599 726 l 606 724 l 608 734 l 608 760 q 621 783 608 769 l 620 793 l 621 812 q 620 818 620 816 l 616 818 q 599 799 599 800 m 239 791 l 239 789 q 243 785 239 785 l 245 785 q 239 791 245 788 m 195 772 l 195 770 q 205 745 195 762 q 224 753 218 753 l 228 751 l 228 753 l 210 770 q 214 781 210 775 l 210 783 l 209 783 q 195 772 195 775 m 566 764 q 562 759 566 759 q 568 751 566 751 l 570 751 q 576 757 573 751 q 566 764 574 757 m 315 715 q 334 677 324 681 l 340 677 l 334 696 l 334 730 q 332 762 334 740 q 315 715 315 751 m 475 762 q 469 732 475 749 q 477 705 474 705 q 484 703 480 703 l 486 703 l 486 709 q 490 726 486 714 q 475 762 480 759 m 273 757 l 279 753 l 281 757 q 277 760 281 760 q 273 757 273 760 m 153 751 l 153 743 q 165 741 162 743 q 163 709 163 719 l 163 703 q 169 688 163 690 l 170 688 l 174 690 q 172 715 174 691 q 174 734 174 732 q 159 755 162 755 l 157 755 q 153 751 153 754 m 229 736 q 243 717 234 717 q 245 722 245 720 q 233 736 241 731 l 229 736 m 530 732 l 530 726 q 515 694 530 718 q 513 682 513 684 q 517 665 517 670 q 500 642 500 646 l 498 631 l 498 629 q 502 622 502 625 l 509 622 q 530 658 515 658 q 540 677 540 669 q 534 700 534 695 q 541 711 534 701 q 534 732 534 730 l 530 732 m 283 703 q 256 682 283 701 q 243 658 248 664 q 277 627 277 637 q 258 618 277 621 l 256 608 l 256 587 q 262 576 257 576 q 273 593 266 576 q 271 601 271 596 q 285 622 278 606 l 275 654 q 266 667 266 656 l 266 671 q 288 690 266 673 q 290 696 290 694 q 283 703 289 701 m 566 694 l 566 692 q 572 690 568 692 l 574 694 q 570 698 574 698 q 566 694 566 697 m 593 669 q 600 658 597 658 q 608 671 608 661 l 608 682 l 606 686 q 593 669 600 686 m 342 677 q 344 671 344 673 q 340 652 344 669 l 344 650 l 347 650 l 355 675 l 355 677 l 342 677 m 186 675 l 186 673 q 205 642 205 659 l 207 633 l 212 633 l 218 652 q 195 673 203 662 l 186 675 m 562 656 q 557 639 557 648 l 557 633 l 561 627 q 570 635 569 631 l 570 641 q 562 656 570 651 m 395 642 l 395 641 q 401 635 395 638 l 403 635 l 404 644 l 404 650 q 395 642 395 645 m 188 616 l 188 614 l 191 601 l 195 601 l 195 616 q 191 620 195 620 q 188 616 188 619 m 326 610 q 298 566 298 574 l 298 564 q 302 561 298 561 q 313 582 304 561 q 332 606 325 582 l 326 610 m 538 610 q 532 604 538 608 q 553 580 541 580 l 555 589 l 555 597 l 538 610 m 420 585 l 418 582 q 425 572 420 582 l 425 566 q 424 559 425 562 q 441 547 424 552 l 443 544 q 441 517 441 528 q 463 486 463 498 q 441 467 453 467 q 431 448 441 458 q 441 437 434 441 q 450 458 444 437 q 454 464 454 458 l 465 464 q 473 473 469 465 l 471 477 q 475 488 473 488 q 456 515 466 507 l 448 544 q 433 580 442 552 q 420 585 422 585 m 231 557 q 237 549 234 549 q 245 559 239 549 l 245 563 q 241 564 241 563 q 231 557 232 561 m 521 559 l 519 549 q 526 553 524 553 q 524 559 524 557 l 521 559 m 374 540 l 374 536 q 382 545 376 536 l 382 551 l 380 551 q 374 540 374 549 m 330 536 q 317 525 330 534 q 325 515 321 516 q 336 526 336 515 l 336 530 q 330 536 336 533 m 372 525 l 372 517 l 374 517 q 376 523 374 519 l 372 525 m 287 504 q 285 502 287 502 l 287 492 q 279 467 279 469 q 283 460 283 467 q 292 471 286 460 l 292 483 l 294 494 q 287 504 290 503 m 186 490 q 189 479 189 483 l 193 479 q 199 490 199 481 q 197 496 197 494 l 191 496 q 186 490 190 496 m 505 481 l 503 471 l 503 460 q 513 443 507 443 l 522 443 l 524 450 q 505 481 512 478 m 647 395 l 648 385 l 652 385 q 660 412 658 385 q 681 444 681 441 q 679 446 681 446 l 667 448 q 652 408 661 448 q 647 395 648 408 m 233 414 q 239 412 237 412 q 256 456 247 412 l 254 456 q 233 414 238 456 m 471 448 l 469 435 q 486 401 477 413 l 490 401 q 492 405 490 405 q 479 431 492 415 q 471 448 479 448 m 743 431 l 741 425 q 743 413 739 414 q 755 422 751 413 q 743 431 751 424 m 157 429 q 163 418 159 418 l 167 418 l 169 427 l 169 441 q 165 445 169 445 q 157 429 160 445 m 315 410 q 323 407 318 410 l 330 433 l 330 437 l 328 437 q 315 410 315 431 m 129 427 q 142 414 129 422 l 142 422 q 136 433 142 432 l 134 433 q 129 427 133 433 m 443 384 l 446 382 l 448 382 q 458 401 458 387 l 456 414 l 458 426 l 454 427 q 444 389 444 427 q 443 384 443 389 m 541 418 q 545 401 545 409 l 547 401 q 553 420 547 408 q 549 424 549 420 l 541 418 m 142 412 l 142 410 q 150 401 146 401 l 151 401 l 151 408 q 144 412 149 408 l 142 412 m 401 412 l 397 407 l 401 393 l 404 393 q 410 399 408 393 q 401 412 410 410 m 254 403 l 254 393 q 260 388 254 391 l 264 393 l 264 401 q 258 407 264 404 q 254 403 254 406 m 315 405 q 248 289 248 345 l 248 285 q 319 176 248 215 q 353 169 338 169 l 365 169 q 479 222 416 169 q 315 405 395 307 m 688 376 q 685 372 688 372 q 694 361 688 364 l 698 361 l 698 368 q 688 376 697 372 m 393 386 q 387 378 393 378 l 380 378 q 374 382 375 382 q 361 372 361 376 l 361 368 l 380 353 l 399 384 l 395 386 l 393 386 m 736 362 l 736 355 l 745 357 l 745 362 q 742 364 742 362 q 736 362 738 362 m 549 380 q 545 374 549 379 q 566 359 545 365 l 566 361 q 549 380 562 380 m 131 376 l 131 372 q 140 359 140 362 q 148 370 148 363 q 136 378 146 378 q 131 376 132 376 m 631 324 l 635 322 q 648 341 648 331 l 648 347 q 645 351 648 351 q 631 324 631 339 m 700 338 l 700 315 q 698 294 700 307 q 706 275 706 281 l 713 275 q 715 279 713 279 l 713 292 l 713 334 l 715 347 l 709 351 l 707 351 q 700 338 700 348 m 490 327 l 509 323 l 511 327 q 502 342 511 338 q 490 327 494 342 m 564 330 l 564 327 l 568 327 l 572 329 q 570 334 570 332 l 568 334 q 564 330 564 334 m 226 325 l 226 319 q 239 302 234 304 q 241 306 239 306 q 231 325 235 325 l 226 325 m 467 306 l 465 302 l 465 300 l 471 300 l 471 302 q 467 306 471 306 m 534 290 q 536 285 536 287 l 541 285 q 547 292 543 285 q 545 298 545 296 l 541 298 l 534 290 m 635 262 q 641 254 638 254 q 650 275 650 268 l 650 279 l 648 279 q 635 262 646 278 m 721 246 l 725 246 q 738 262 738 256 q 730 271 738 264 q 721 246 721 271 m 477 275 q 484 283 479 275 l 484 285 l 483 285 q 477 275 478 285 m 43 275 l 43 268 l 62 266 q 64 270 62 270 q 51 281 60 281 q 43 275 43 278 m 43 262 l 43 247 q 49 254 46 247 q 43 262 46 262 m 583 258 l 581 249 l 581 233 q 591 224 581 231 l 599 224 l 599 252 q 593 258 599 255 l 583 258 m 680 249 l 688 243 l 698 243 l 699 252 q 694 258 699 255 l 692 258 q 680 249 680 258 m 467 254 l 465 251 l 465 245 q 473 235 471 235 l 475 235 l 475 237 q 467 254 475 252 m 70 247 l 70 245 q 85 222 70 229 l 89 222 q 75 245 80 243 q 70 247 72 247 m 45 230 l 45 228 q 64 174 45 197 l 66 163 q 64 155 66 162 q 70 146 66 146 q 83 171 77 153 l 89 171 q 125 133 102 171 q 142 110 131 130 l 161 110 q 201 85 183 85 q 224 70 201 83 q 241 77 235 77 l 247 77 q 300 39 260 61 q 323 22 310 22 q 359 -3 359 8 l 366 -3 l 389 -1 q 334 43 368 28 q 235 98 281 90 q 176 131 221 108 q 144 153 176 139 q 96 193 117 186 q 68 209 93 198 q 45 230 59 219 m 808 186 l 808 180 q 814 174 808 178 l 819 174 l 819 176 q 808 186 819 179 m 614 163 l 614 155 q 620 144 615 144 q 623 148 620 148 l 620 174 q 614 163 614 173 m 186 157 l 186 155 q 191 150 186 153 l 193 153 l 188 157 l 186 157 m 821 134 l 817 129 l 819 129 l 823 134 l 821 134 m 85 117 q 91 110 87 110 q 94 114 94 110 l 94 125 q 91 129 94 129 q 85 117 85 127 m 469 119 q 467 104 467 106 l 471 102 l 473 102 q 477 106 477 102 l 477 119 l 469 119 m 288 100 q 294 98 290 100 q 302 106 302 100 l 306 106 l 319 104 q 306 117 319 117 l 304 117 q 288 100 302 117 m 326 79 l 347 72 q 370 53 355 53 q 359 68 370 68 q 344 85 347 68 l 334 87 l 332 87 q 326 79 330 87 m 372 53 l 372 51 q 389 24 380 48 q 401 20 395 20 l 403 20 q 410 30 406 20 q 372 53 410 39 m 678 39 l 684 36 q 692 47 686 36 q 690 53 690 51 l 686 53 q 678 39 678 50 m 220 47 l 220 43 q 243 16 229 16 q 245 22 245 20 q 226 49 236 39 q 220 47 222 47 z "},"'":{"ha":360,"x_min":49,"x_max":292,"o":"m 49 975 l 292 975 l 292 758 q 216 507 292 587 q 100 420 139 431 q 49 547 49 544 l 49 553 q 161 708 161 616 l 49 708 l 49 975 m 208 971 q 218 958 215 958 q 222 962 218 962 l 227 962 l 232 958 l 234 958 l 243 964 q 241 971 241 969 l 208 971 m 249 948 q 269 936 257 936 l 273 943 l 273 945 q 265 952 273 947 l 253 952 q 249 948 249 951 m 54 924 q 71 893 60 893 q 79 907 77 907 q 69 928 69 921 q 73 940 73 935 q 69 945 73 945 l 66 945 q 54 924 54 937 m 227 938 q 222 934 227 934 q 230 911 227 911 q 241 926 241 918 q 227 938 236 938 m 234 876 q 239 871 235 871 l 243 871 l 243 876 q 239 880 243 880 q 234 876 234 880 m 177 857 q 179 849 179 854 q 175 837 179 844 l 179 835 q 186 856 182 840 q 191 868 191 857 l 191 873 q 188 878 191 878 q 177 857 182 878 m 120 843 q 134 837 127 837 l 138 863 q 136 866 136 863 q 120 843 120 854 m 69 827 q 59 810 59 817 q 71 796 62 802 l 73 796 q 81 804 75 796 q 69 827 71 827 m 155 804 q 157 798 157 801 l 163 798 l 177 812 q 167 819 177 816 q 155 804 161 819 m 193 784 l 191 774 l 191 766 q 198 760 191 763 q 205 774 198 764 l 205 778 q 200 784 205 781 l 193 784 m 249 782 q 255 761 250 761 q 260 774 260 764 l 260 778 q 255 784 260 779 q 249 782 251 782 m 133 720 l 133 719 q 138 715 133 715 l 151 715 l 151 717 q 133 720 136 717 m 239 598 q 241 592 241 595 l 243 592 q 246 596 246 592 q 243 600 246 600 l 239 598 z "},"(":{"ha":389,"x_min":71,"x_max":391,"o":"m 391 1003 q 319 759 319 776 q 268 375 268 567 l 268 325 q 391 -273 268 60 l 391 -276 l 254 -276 q 175 -119 233 -246 q 71 366 71 111 q 253 1003 71 701 l 391 1003 m 332 991 l 328 985 l 328 980 q 334 974 328 977 q 338 980 338 974 q 332 991 336 991 m 239 903 q 264 879 239 888 q 292 848 278 870 q 323 819 323 831 l 328 815 q 332 835 328 819 q 307 858 321 840 q 268 890 277 890 l 256 890 q 247 908 252 908 l 245 908 q 239 903 242 908 m 197 763 l 197 759 l 200 759 q 204 763 204 759 l 204 766 l 200 766 q 197 763 197 766 m 210 743 l 204 736 q 216 728 208 728 l 220 734 l 220 736 q 210 743 219 740 m 278 734 q 268 712 268 720 q 272 709 269 709 q 290 714 276 712 l 290 716 q 278 734 290 729 m 229 728 l 229 726 q 233 722 230 722 l 235 722 q 239 726 239 722 l 239 728 q 235 732 239 732 l 233 732 q 229 728 229 731 m 154 718 q 144 699 154 713 l 144 693 q 150 687 144 692 q 156 689 154 689 l 156 701 q 159 716 156 703 l 159 718 l 154 718 m 264 637 q 262 631 262 633 q 274 623 264 623 l 278 623 l 278 625 q 264 637 278 629 m 146 600 q 140 587 140 593 q 150 569 144 569 l 152 569 q 146 600 152 600 m 103 576 q 102 571 102 573 q 113 557 104 562 l 119 557 q 125 563 121 557 q 103 576 125 571 m 231 549 l 237 549 l 237 553 l 235 553 q 231 549 231 553 m 134 479 q 131 474 132 474 q 132 468 132 470 q 138 474 135 468 l 138 476 q 134 479 138 479 m 111 385 l 105 377 l 105 373 q 125 363 105 369 q 131 375 131 371 l 111 385 m 86 327 q 80 321 86 323 l 82 317 l 82 315 l 78 309 l 78 305 l 88 305 l 88 311 q 92 323 88 316 l 86 327 m 94 301 l 94 298 q 100 294 95 298 l 100 296 q 96 301 96 296 l 94 301 m 105 262 q 103 259 105 259 q 111 249 104 256 q 117 251 115 251 l 117 253 q 105 262 113 260 m 134 237 q 142 220 142 221 q 158 224 148 224 l 158 230 q 142 243 142 230 l 140 243 q 134 237 139 243 m 168 210 l 168 208 l 170 208 q 175 216 172 208 l 173 216 q 168 210 170 216 m 175 165 l 175 163 l 193 163 q 197 168 197 163 l 197 170 q 189 176 197 174 q 175 165 176 170 m 134 162 l 132 158 l 132 156 l 134 156 q 138 160 138 156 l 134 162 m 208 123 l 208 117 q 212 113 209 113 l 214 113 q 218 117 218 113 l 218 119 q 214 123 218 123 l 208 123 m 237 111 q 241 108 238 108 l 245 108 q 249 111 249 108 q 245 115 249 115 l 241 115 q 237 111 237 115 m 185 94 l 185 86 q 199 79 199 83 l 199 71 q 183 63 199 66 q 200 55 183 60 l 202 59 q 197 100 202 71 q 185 94 187 94 m 150 57 l 150 55 l 152 52 q 172 65 161 52 l 172 68 q 168 71 168 68 q 150 57 160 71 m 115 63 l 115 61 q 117 53 117 58 l 119 53 l 119 57 q 117 63 117 61 l 115 63 m 253 45 l 253 39 q 270 24 257 39 l 272 24 q 276 28 276 24 l 276 32 q 254 45 254 37 l 253 45 m 193 -28 q 197 -32 193 -32 l 199 -32 l 199 -22 q 193 -28 195 -22 m 222 -40 q 224 -45 224 -43 l 226 -45 q 233 -36 229 -45 l 227 -36 q 222 -40 222 -40 m 283 -98 l 283 -102 q 288 -106 284 -106 q 292 -102 292 -106 l 292 -98 l 283 -98 m 231 -121 q 222 -131 222 -130 l 222 -133 l 226 -133 q 235 -123 228 -133 l 231 -121 m 258 -129 l 260 -149 l 260 -153 l 270 -153 q 274 -149 274 -153 l 258 -129 m 286 -176 l 281 -181 l 281 -185 q 286 -189 282 -189 q 294 -181 289 -189 q 286 -176 294 -178 z "},")":{"ha":394,"x_min":6,"x_max":326,"o":"m 6 997 l 142 997 q 250 780 188 928 q 326 361 326 575 q 167 -238 326 52 q 142 -282 144 -282 l 6 -282 l 6 -279 q 128 319 128 54 l 128 369 q 6 995 128 648 l 6 997 m 39 981 l 43 981 q 51 994 51 983 l 47 994 q 39 981 43 994 m 225 528 q 227 526 227 528 q 216 509 220 526 q 223 460 221 495 l 233 423 q 277 392 249 392 q 320 382 298 385 l 320 396 q 293 417 304 396 l 291 417 q 270 416 277 416 l 268 416 q 243 472 257 422 l 244 486 l 244 495 q 231 532 237 524 l 233 536 l 233 538 l 231 538 q 225 528 227 538 m 262 534 l 262 532 q 279 514 262 520 q 281 511 279 511 q 270 475 279 475 l 293 437 q 298 435 295 437 q 307 460 307 445 q 289 487 289 474 l 289 489 q 291 507 289 496 q 266 534 291 514 l 262 534 m 134 433 l 138 431 l 140 435 l 140 437 l 138 437 q 134 433 134 436 m 149 427 l 149 425 q 155 419 149 422 l 157 419 q 159 423 157 423 q 155 429 157 429 q 149 427 151 427 m 196 417 q 200 414 197 414 l 210 416 l 210 419 q 205 423 210 423 l 202 423 q 196 417 199 423 m 246 288 l 248 264 l 248 197 q 268 127 258 154 l 268 115 q 277 173 276 115 q 270 247 270 209 l 270 274 q 320 307 270 294 l 320 324 q 283 311 315 324 q 246 288 246 302 m 212 274 l 216 272 l 217 272 l 217 280 q 212 274 214 280 m 295 222 l 295 218 q 300 191 300 193 l 300 175 l 307 175 q 311 202 311 199 q 309 218 309 213 l 311 222 l 309 233 l 309 235 l 316 247 l 316 267 l 314 267 q 300 237 307 267 q 295 222 295 236 m 176 245 l 176 241 q 180 237 177 237 l 182 237 l 182 239 l 180 243 l 182 243 q 180 249 180 247 q 176 245 176 248 m 174 186 l 174 184 q 198 163 193 163 q 174 186 198 168 m 161 92 q 169 98 166 98 l 169 103 q 161 92 161 100 m 229 90 q 227 88 229 88 q 241 66 237 66 l 244 73 q 229 90 244 85 m 214 53 l 214 51 q 221 43 218 51 q 225 39 225 43 q 223 37 223 39 q 231 30 228 37 l 233 30 l 231 26 l 239 26 q 243 30 243 26 q 223 47 239 47 q 217 57 218 47 q 214 53 214 56 m 244 5 q 246 3 246 5 q 244 1 244 3 q 250 -1 248 -1 l 248 -5 l 254 -9 q 258 -3 258 -4 q 248 8 255 5 q 244 5 244 7 m 97 -50 l 97 -52 q 103 -58 97 -54 q 97 -50 100 -50 m 103 -112 l 103 -114 q 115 -119 105 -119 l 117 -116 q 105 -112 110 -112 l 103 -112 m 117 -174 l 117 -178 q 120 -182 117 -182 l 130 -182 l 130 -174 l 122 -172 q 117 -174 119 -174 m 76 -222 q 93 -207 86 -222 q 87 -201 93 -204 q 76 -222 80 -201 m 29 -228 q 43 -230 35 -228 q 37 -218 40 -218 l 35 -218 q 29 -228 32 -218 m 83 -269 l 79 -275 l 79 -279 l 87 -279 l 87 -273 q 83 -269 87 -269 z "},"*":{"ha":524,"x_min":22,"x_max":495,"o":"m 189 987 l 328 987 l 309 806 l 455 885 l 495 732 l 336 705 l 453 579 l 336 481 l 258 639 l 184 481 l 64 579 l 180 705 l 22 739 l 72 885 l 212 806 l 212 808 l 189 987 m 81 867 l 81 851 l 83 847 q 96 859 88 848 q 81 867 96 863 m 391 835 q 397 829 391 832 l 399 839 l 395 839 q 391 835 391 838 m 117 840 q 107 826 117 831 q 100 812 103 826 q 84 804 96 808 q 77 774 79 798 q 57 750 61 750 l 59 741 l 62 741 l 77 739 q 89 774 89 752 l 95 781 l 93 785 l 93 791 q 96 795 94 795 l 98 795 l 109 793 q 131 811 109 803 l 133 821 l 133 826 q 117 840 133 840 z "},"+":{"ha":658,"x_min":27,"x_max":623,"o":"m 235 770 l 415 770 l 415 525 l 623 525 l 623 336 l 415 336 l 415 91 l 235 91 l 235 336 l 27 336 l 27 525 l 235 525 l 235 770 m 238 762 l 238 703 l 240 703 q 246 743 243 713 q 252 766 249 743 l 242 766 q 238 762 238 766 m 355 766 l 337 732 q 296 701 337 722 q 276 681 284 701 q 257 671 257 679 l 257 669 l 263 665 l 273 665 q 297 678 279 665 l 303 678 l 307 676 l 307 690 q 345 716 307 703 q 368 747 364 726 q 377 762 377 760 l 372 766 l 355 766 m 297 762 l 296 759 l 296 757 l 301 757 l 301 759 q 297 762 301 762 m 356 705 l 356 699 q 370 685 368 699 q 334 661 359 661 q 322 650 326 657 q 330 632 330 637 l 330 628 q 311 602 330 621 l 311 597 q 330 585 311 595 q 343 542 337 542 l 353 549 q 345 568 345 560 q 353 586 351 576 q 332 593 332 589 l 332 598 q 355 628 355 616 q 368 641 368 639 q 364 650 364 646 q 370 656 367 656 l 379 656 q 383 653 383 656 l 383 639 l 385 639 q 396 663 392 639 l 396 669 q 387 711 396 711 q 374 718 380 711 q 356 705 369 718 m 355 586 q 366 579 366 586 q 364 574 366 577 q 374 547 364 568 q 381 528 381 530 q 375 505 380 509 l 375 501 l 379 501 q 400 516 391 516 q 412 517 403 517 l 410 526 l 410 549 q 400 542 408 549 l 396 542 q 374 570 379 542 q 402 593 376 578 q 410 621 404 614 q 355 586 385 611 m 545 519 l 545 512 q 550 496 545 509 l 556 496 l 556 507 l 552 519 l 545 519 m 229 516 q 227 514 229 514 q 233 507 230 507 q 237 510 237 507 q 229 516 237 513 m 60 514 l 54 499 l 58 498 q 73 508 70 503 q 60 514 69 508 m 589 510 q 587 507 589 507 q 589 501 589 503 l 592 501 q 594 505 592 505 q 592 510 592 508 l 589 510 m 303 490 l 303 488 q 328 450 317 475 l 328 445 l 316 427 l 316 426 q 332 441 332 429 l 339 441 q 391 430 365 430 q 398 418 398 412 q 394 429 398 423 l 391 427 l 387 427 q 355 457 355 437 l 351 470 l 341 468 q 324 490 341 477 q 316 499 324 496 q 303 490 304 495 m 389 475 q 398 444 391 444 q 413 447 400 444 l 419 447 q 429 426 425 447 l 433 426 q 450 444 435 426 l 455 444 q 467 431 465 444 q 457 408 457 414 q 480 421 457 426 l 507 428 l 509 412 q 480 418 509 416 l 472 438 q 461 457 461 448 l 461 490 q 457 494 461 494 q 436 473 445 473 l 436 471 q 450 466 447 466 l 450 459 q 434 444 446 444 q 429 445 431 445 l 429 448 l 427 461 l 417 461 q 402 471 402 469 q 410 490 410 490 l 406 496 q 389 475 399 496 m 216 490 q 206 479 216 490 q 210 475 207 475 l 214 475 l 219 490 l 216 490 m 609 490 q 585 456 609 490 l 585 447 q 575 441 575 446 q 592 435 575 437 l 592 420 l 587 413 l 587 410 q 592 422 592 429 l 594 422 q 611 427 594 413 q 613 435 613 431 l 602 433 q 590 447 590 433 q 609 471 601 448 q 617 477 617 474 l 617 484 q 609 490 617 486 m 509 482 l 509 481 l 520 481 q 514 484 520 484 q 509 482 511 482 m 242 477 l 244 465 l 244 457 l 235 457 l 225 456 q 229 445 229 450 l 229 435 q 223 429 229 432 l 219 429 l 204 439 q 178 417 193 439 q 181 414 178 414 q 193 410 187 414 q 202 418 202 413 l 208 422 l 214 422 l 214 412 l 204 410 l 204 426 q 216 405 204 422 l 216 404 l 214 399 l 216 399 q 225 422 221 406 q 235 428 229 428 l 244 422 l 250 422 q 252 426 250 426 q 248 422 248 415 q 271 456 248 456 q 284 431 279 456 q 290 429 286 431 q 301 447 296 429 q 282 461 300 454 q 265 475 282 468 q 252 482 262 482 q 242 477 247 482 m 486 461 l 486 459 l 505 436 l 507 436 q 492 465 499 461 l 490 465 q 486 461 486 464 m 164 456 l 164 452 l 168 452 l 168 459 q 164 456 164 458 m 119 401 l 122 399 q 143 415 143 418 q 149 429 147 415 l 145 431 q 122 414 122 412 q 119 401 119 414 m 516 426 q 514 420 516 424 l 518 418 l 524 418 l 524 420 q 518 426 524 422 l 516 426 m 492 393 q 472 406 490 393 q 453 384 463 386 l 442 386 q 431 373 436 386 q 436 366 433 366 q 453 377 443 377 l 465 377 q 478 366 475 377 q 474 352 474 355 q 495 378 484 358 q 535 406 518 382 l 545 408 l 556 399 l 556 426 q 550 431 556 429 l 547 431 q 501 393 521 431 l 492 393 m 590 417 q 589 412 590 415 q 590 397 590 399 l 589 389 q 598 378 589 387 l 598 373 q 590 362 590 364 q 594 343 594 355 l 594 340 l 600 340 q 609 366 606 340 q 617 371 617 366 q 592 397 617 374 l 594 415 l 590 417 m 246 386 l 246 378 l 250 378 q 265 399 252 383 q 254 404 258 404 q 246 386 248 404 m 208 393 q 193 371 193 378 l 197 370 q 210 393 210 391 l 208 393 m 141 375 l 130 375 q 120 351 120 353 q 130 343 124 343 q 168 387 168 370 l 164 389 l 162 389 q 141 375 151 375 m 343 342 l 343 338 q 349 311 343 337 q 318 264 332 267 l 292 237 q 290 231 290 234 l 290 227 q 322 197 290 215 l 355 172 q 410 130 373 172 l 410 158 q 400 174 400 167 q 410 189 400 177 l 410 190 q 385 206 389 190 q 394 229 386 220 l 394 235 q 391 250 394 237 l 391 252 q 394 260 391 260 q 391 275 393 275 q 398 285 391 276 l 398 290 q 385 269 385 290 q 370 246 385 262 q 383 233 372 246 l 383 233 q 374 215 383 227 q 372 206 372 212 l 372 202 q 385 191 385 193 l 385 189 q 381 184 385 184 l 377 184 q 358 195 369 195 q 345 204 345 199 l 345 216 q 356 231 356 223 q 349 235 349 233 q 337 213 340 235 l 330 213 q 313 229 313 215 q 330 248 313 238 q 375 310 355 267 q 377 317 377 313 q 366 343 366 333 l 366 349 q 377 353 368 353 l 383 353 q 389 349 386 353 q 387 334 387 338 q 389 329 389 331 l 394 329 q 410 355 405 337 q 400 384 408 384 q 356 352 368 375 l 343 342 m 79 368 q 84 359 81 359 l 88 359 q 94 364 91 359 q 86 375 90 375 l 84 375 q 79 368 81 375 m 505 347 l 505 343 l 522 340 l 522 353 q 535 362 528 362 l 535 366 q 531 370 535 370 l 528 370 l 514 353 q 505 347 505 351 m 172 355 q 178 349 174 349 q 183 359 183 351 l 181 362 q 172 355 178 362 m 554 357 q 550 352 552 352 l 552 349 l 552 343 l 550 340 l 562 340 l 562 345 q 554 357 562 354 m 455 342 l 455 340 l 467 340 l 467 342 l 465 345 q 455 342 458 342 m 238 308 l 238 297 q 252 292 238 293 l 252 296 q 238 308 248 304 m 292 299 q 288 292 292 292 q 290 287 290 289 l 296 287 l 296 290 l 294 299 l 292 299 m 377 121 q 366 96 366 100 l 383 96 l 383 115 q 377 121 383 119 z "},",":{"ha":312,"x_min":38,"x_max":269,"o":"m 38 249 l 269 249 l 269 53 q 172 -215 269 -140 q 94 -271 134 -250 l 88 -271 q 38 -153 80 -262 l 38 -149 q 144 1 144 -83 l 38 1 l 38 249 m 63 239 l 63 237 q 68 231 63 234 l 71 235 l 65 239 l 63 239 m 92 105 l 92 103 q 111 82 104 85 l 113 82 q 117 86 117 82 l 109 113 q 92 105 92 109 m 57 71 l 57 68 q 61 73 61 68 l 61 74 q 57 71 57 73 m 255 -11 q 260 -23 256 -23 l 260 -11 l 255 -11 m 137 -54 l 137 -56 q 140 -60 137 -60 l 142 -60 l 142 -58 q 138 -54 142 -54 l 137 -54 m 123 -81 q 113 -98 113 -95 q 138 -104 116 -102 q 142 -110 138 -105 l 146 -108 l 154 -108 q 164 -135 162 -108 l 165 -135 q 183 -121 174 -121 l 185 -121 q 208 -145 205 -145 q 214 -157 214 -145 l 224 -145 q 189 -110 217 -127 q 168 -83 189 -106 l 164 -85 q 168 -96 168 -91 l 168 -98 l 160 -98 q 127 -85 138 -94 q 123 -81 127 -81 m 131 -143 q 133 -149 133 -146 l 138 -149 l 138 -141 q 135 -137 138 -137 q 131 -143 131 -137 m 57 -186 l 57 -188 q 61 -191 58 -191 q 77 -164 68 -184 l 92 -149 q 84 -139 88 -140 l 82 -139 q 67 -168 77 -140 q 57 -186 57 -176 z "},"-":{"ha":464,"x_min":33,"x_max":429,"o":"m 33 522 l 429 522 l 429 342 l 33 342 l 33 522 m 315 519 q 340 475 323 499 q 379 381 340 458 l 387 347 l 406 347 l 406 350 q 387 387 406 355 q 365 439 387 396 l 365 443 q 367 450 365 446 q 350 488 350 462 q 330 517 336 502 l 326 519 l 315 519 m 212 428 l 212 424 q 218 420 213 420 q 222 433 222 426 l 220 433 q 212 428 216 433 m 212 409 l 212 406 q 218 403 213 403 l 220 403 l 220 404 q 218 409 218 407 l 212 409 m 186 347 l 191 347 q 207 385 199 347 q 205 389 205 387 l 200 389 q 186 347 188 389 z "},"":{"ha":464,"x_min":33,"x_max":429,"o":"m 33 522 l 429 522 l 429 342 l 33 342 l 33 522 m 315 519 q 340 475 323 499 q 379 381 340 458 l 387 347 l 406 347 l 406 350 q 387 387 406 355 q 365 439 387 396 l 365 443 q 367 450 365 446 q 350 488 350 462 q 330 517 336 502 l 326 519 l 315 519 m 212 428 l 212 424 q 218 420 213 420 q 222 433 222 426 l 220 433 q 212 428 216 433 m 212 409 l 212 406 q 218 403 213 403 l 220 403 l 220 404 q 218 409 218 407 l 212 409 m 186 347 l 191 347 q 207 385 199 347 q 205 389 205 387 l 200 389 q 186 347 188 389 z "},".":{"ha":307,"x_min":38,"x_max":269,"o":"m 38 252 l 269 252 l 269 1 l 38 1 l 38 252 m 42 248 l 42 186 q 58 216 58 196 q 46 228 46 220 q 54 244 54 239 q 50 248 54 248 l 42 248 m 230 248 q 226 228 230 243 l 243 214 l 243 213 q 241 189 241 191 l 265 188 l 265 191 q 261 205 261 204 l 261 207 q 265 213 265 212 l 265 228 l 261 234 l 261 248 l 230 248 m 129 182 q 135 172 131 172 l 137 172 l 149 188 q 160 189 151 189 q 155 200 158 200 q 129 182 129 192 m 180 180 l 178 177 l 178 176 q 187 166 178 174 l 187 159 q 183 156 187 156 l 180 156 q 164 159 178 156 q 160 154 160 159 q 178 138 161 151 q 199 124 178 135 q 218 96 206 117 q 250 67 223 96 q 263 52 263 58 l 265 52 l 265 77 q 201 144 225 109 q 193 168 195 144 q 180 180 189 168 m 234 165 q 265 121 234 146 l 265 124 q 248 161 265 161 q 238 168 248 163 q 234 165 234 168 m 42 163 l 42 156 q 58 124 56 156 l 63 121 l 67 121 q 77 142 73 121 q 54 152 77 151 l 42 163 m 121 142 q 81 110 94 110 q 65 80 65 87 q 92 32 65 70 q 112 25 109 25 l 114 25 l 114 28 q 81 73 81 64 l 81 75 q 102 104 89 104 q 125 136 114 104 l 125 138 q 121 142 125 142 m 203 60 l 201 57 l 201 55 q 205 52 201 52 l 207 55 l 207 57 q 203 60 207 60 m 226 18 l 226 13 q 232 7 226 11 l 234 7 l 234 14 q 243 36 234 27 q 241 41 241 39 q 232 24 237 41 q 226 18 229 24 m 191 38 q 185 25 191 36 l 189 24 q 195 36 195 30 l 191 38 z "},"/":{"ha":337,"x_min":22,"x_max":318,"o":"m 206 973 l 318 973 l 318 971 q 132 -18 318 965 l 22 -18 q 206 973 25 9 m 250 969 l 250 965 q 267 956 250 960 l 265 969 l 250 969 m 280 954 l 280 950 q 284 946 281 946 q 288 950 288 946 l 288 954 q 284 958 288 958 q 280 954 280 957 m 279 920 q 286 912 279 917 q 296 924 293 916 l 292 926 l 284 926 q 279 920 281 926 m 280 882 l 275 865 q 284 857 277 857 q 286 859 284 859 l 284 872 l 284 876 l 286 880 l 282 882 l 280 882 m 267 847 q 259 844 267 844 q 261 838 261 840 l 263 838 q 269 846 269 838 l 269 847 l 267 847 m 233 840 l 231 832 q 244 817 231 824 l 246 809 l 250 809 q 259 821 253 809 q 239 830 259 828 q 233 840 237 840 m 223 749 l 218 739 q 231 720 229 720 l 233 730 q 223 749 233 742 m 185 695 q 187 690 187 692 l 191 690 q 199 722 194 690 l 199 728 l 197 728 q 185 695 193 728 m 233 690 q 229 680 229 684 l 233 678 q 237 684 237 683 l 237 686 q 233 690 237 690 m 77 260 l 75 242 q 94 206 83 237 l 102 201 l 103 204 l 103 206 q 79 260 79 245 l 77 260 m 140 134 q 147 130 142 134 q 155 164 155 142 l 149 168 q 140 134 141 168 z "},":":{"ha":377,"x_min":71,"x_max":302,"o":"m 104 674 q 106 652 106 661 q 81 627 93 642 l 81 618 q 128 659 128 643 l 128 661 q 124 677 124 673 l 109 677 q 104 674 104 677 m 144 608 l 144 602 q 149 596 144 600 q 153 604 153 601 q 147 612 151 612 q 144 608 144 611 m 245 555 q 249 551 246 551 q 253 555 253 551 l 253 559 l 249 559 q 245 555 245 559 m 234 517 q 232 513 234 513 q 235 501 235 505 l 241 501 l 241 503 q 234 517 241 513 m 71 247 l 302 247 l 302 -1 l 71 -1 l 71 247 m 137 243 q 127 205 133 243 q 121 193 124 205 q 123 187 123 189 l 125 187 q 142 231 142 205 q 144 236 144 231 q 137 243 143 241 m 208 199 l 208 194 q 216 187 213 194 l 216 180 l 189 156 l 189 154 q 193 151 190 151 q 226 176 226 170 l 224 197 l 259 217 q 271 241 271 233 l 267 243 l 261 243 q 243 220 254 239 l 208 199 m 294 207 l 294 205 q 298 201 294 201 l 298 210 q 294 207 294 210 m 257 185 l 273 173 l 278 173 l 276 185 l 276 187 q 280 197 276 192 q 278 199 278 197 q 257 185 257 195 m 112 123 q 115 109 115 111 q 102 62 108 88 q 112 51 104 54 q 137 105 112 76 q 156 133 156 117 l 162 133 q 178 142 172 133 q 174 147 176 147 q 142 124 169 147 l 135 119 l 127 119 l 125 127 l 125 135 q 137 156 129 138 q 146 173 141 156 l 140 176 q 112 123 112 163 m 257 51 l 257 50 l 261 50 l 282 75 q 298 83 290 83 l 298 95 q 257 51 257 83 m 220 37 l 220 20 q 212 5 220 14 l 212 2 l 224 2 q 248 26 247 22 q 230 60 236 39 l 228 60 q 220 37 222 60 m 113 47 q 135 28 113 28 q 151 2 140 28 l 156 2 l 164 26 l 164 28 q 149 33 149 30 l 149 39 q 151 40 149 40 q 149 45 149 44 l 144 44 q 113 47 135 44 m 267 44 q 278 16 274 16 q 284 35 283 16 q 276 47 279 47 l 273 47 l 267 44 m 71 692 l 300 692 l 300 439 l 71 439 l 71 692 m 134 661 q 138 656 135 656 q 142 661 142 656 l 134 661 m 82 593 l 82 586 q 88 591 85 586 l 88 597 l 86 597 q 82 593 82 596 m 75 569 l 75 558 q 83 555 78 558 l 85 555 l 85 557 q 77 569 85 566 l 75 569 m 258 566 l 258 562 l 260 562 q 264 566 264 562 l 258 566 m 272 444 l 283 444 q 277 449 283 446 q 272 444 275 449 z "},";":{"ha":374,"x_min":70,"x_max":300,"o":"m 71 692 l 300 692 l 300 439 l 71 439 l 71 692 m 127 688 q 131 684 128 684 q 135 688 135 684 l 127 688 m 75 620 l 75 613 q 81 618 78 613 l 81 624 l 79 624 q 75 620 75 623 m 75 569 l 75 558 q 83 555 78 558 l 85 555 l 85 557 q 77 569 85 566 l 75 569 m 258 566 l 258 562 l 260 562 q 264 566 264 562 l 258 566 m 272 444 l 283 444 q 277 449 283 446 q 272 444 275 449 m 70 254 l 299 254 l 299 52 q 203 -214 299 -139 q 126 -269 165 -248 l 120 -269 q 70 -152 112 -260 l 70 -148 q 176 0 176 -83 l 70 0 l 70 254 m 99 248 l 101 243 l 101 232 q 92 227 101 227 q 106 178 106 210 q 115 149 108 178 l 120 149 q 130 176 124 149 l 128 188 q 134 242 131 198 q 143 245 140 245 l 143 248 l 128 248 q 111 245 121 248 q 99 248 108 248 m 106 134 l 103 128 l 106 126 q 111 130 111 126 q 106 134 111 134 m 128 77 l 128 71 q 132 68 128 68 l 134 68 l 132 77 l 128 77 m 286 -40 l 286 -48 l 288 -48 l 288 -40 l 286 -40 m 264 -90 q 267 -96 267 -94 l 274 -96 l 276 -86 l 276 -85 q 264 -90 264 -85 z "},"":{"ha":374,"x_min":70,"x_max":300,"o":"m 71 692 l 300 692 l 300 439 l 71 439 l 71 692 m 127 688 q 131 684 128 684 q 135 688 135 684 l 127 688 m 75 620 l 75 613 q 81 618 78 613 l 81 624 l 79 624 q 75 620 75 623 m 75 569 l 75 558 q 83 555 78 558 l 85 555 l 85 557 q 77 569 85 566 l 75 569 m 258 566 l 258 562 l 260 562 q 264 566 264 562 l 258 566 m 272 444 l 283 444 q 277 449 283 446 q 272 444 275 449 m 70 254 l 299 254 l 299 52 q 203 -214 299 -139 q 126 -269 165 -248 l 120 -269 q 70 -152 112 -260 l 70 -148 q 176 0 176 -83 l 70 0 l 70 254 m 99 248 l 101 243 l 101 232 q 92 227 101 227 q 106 178 106 210 q 115 149 108 178 l 120 149 q 130 176 124 149 l 128 188 q 134 242 131 198 q 143 245 140 245 l 143 248 l 128 248 q 111 245 121 248 q 99 248 108 248 m 106 134 l 103 128 l 106 126 q 111 130 111 126 q 106 134 111 134 m 128 77 l 128 71 q 132 68 128 68 l 134 68 l 132 77 l 128 77 m 286 -40 l 286 -48 l 288 -48 l 288 -40 l 286 -40 m 264 -90 q 267 -96 267 -94 l 274 -96 l 276 -86 l 276 -85 q 264 -90 264 -85 z "},"<":{"ha":683,"x_min":28,"x_max":620,"o":"m 618 899 l 620 899 l 620 661 q 273 488 618 658 l 271 488 q 579 334 273 484 q 620 315 617 315 l 620 76 l 618 76 q 351 216 590 87 q 28 386 52 375 l 28 587 q 212 684 31 590 q 618 899 587 886 m 437 796 l 437 764 q 445 755 437 760 q 452 779 449 763 l 452 792 q 448 804 452 798 q 437 796 437 800 m 321 734 l 328 727 l 328 698 q 312 692 328 694 q 306 684 308 684 q 339 650 306 680 q 351 598 345 642 q 366 581 363 581 l 366 583 q 363 602 366 585 q 368 613 363 605 q 366 621 366 616 l 366 625 q 372 627 368 625 q 391 615 391 627 q 379 606 388 606 l 379 600 l 391 590 l 391 587 q 387 571 391 585 l 387 551 l 389 551 q 395 553 393 553 l 393 563 q 406 571 396 571 l 408 571 l 408 565 l 406 562 l 408 562 q 429 571 426 571 q 412 592 429 583 q 408 608 412 595 q 410 623 410 618 q 393 633 393 629 l 393 636 q 410 650 393 650 l 410 658 q 385 677 391 658 q 383 690 383 684 q 387 707 387 703 l 381 707 l 368 692 l 360 692 q 354 704 354 694 q 356 734 356 732 q 347 750 349 750 q 321 734 321 739 m 445 743 l 447 729 l 447 721 l 445 709 q 454 684 449 684 q 466 702 466 689 l 466 713 q 460 748 466 748 l 450 748 q 445 743 449 748 m 342 690 l 352 690 q 372 671 363 673 q 379 652 372 661 l 379 648 q 375 644 379 644 l 374 644 q 347 671 355 666 l 342 684 l 342 690 m 200 671 q 223 659 200 664 q 233 633 227 640 l 233 625 l 225 625 q 198 635 218 631 l 198 642 l 196 652 l 191 652 l 189 642 q 212 619 189 631 l 212 617 l 210 608 q 221 590 213 590 q 237 602 224 590 l 248 602 l 248 596 q 235 581 248 585 l 233 576 q 235 559 235 566 q 221 532 235 557 q 225 521 221 529 q 223 494 223 505 l 223 492 q 231 471 223 487 q 229 450 229 458 l 229 444 q 214 420 217 431 l 221 408 l 221 397 q 216 392 221 395 l 208 392 l 196 408 l 193 408 l 193 394 q 204 376 204 385 l 204 359 q 195 344 197 344 q 189 338 189 339 l 189 321 l 191 321 q 198 330 191 326 l 206 330 q 212 305 212 310 l 212 301 l 210 298 q 243 280 241 280 q 250 294 247 294 l 258 294 q 267 284 260 294 q 264 269 267 275 l 275 263 l 281 271 l 281 296 q 271 324 271 304 q 298 351 271 330 q 306 376 298 376 q 326 371 326 375 l 323 357 q 326 355 326 357 q 331 357 329 357 q 342 342 338 357 q 354 359 352 342 q 333 371 354 368 q 308 399 323 399 q 304 411 304 406 l 304 431 q 287 461 304 447 q 262 486 279 478 l 262 488 l 252 479 l 246 479 q 239 496 241 479 q 258 513 245 513 l 258 517 q 243 538 249 517 q 258 550 246 550 q 273 525 263 550 q 298 509 298 511 l 298 507 q 306 513 306 510 q 285 534 303 513 q 264 557 281 534 l 262 575 l 267 585 l 267 587 q 252 602 267 602 l 250 606 l 250 619 q 225 665 250 645 q 216 681 219 681 q 200 671 200 674 m 250 656 q 254 652 251 652 l 256 652 l 260 654 q 258 659 258 657 l 254 659 q 250 656 250 659 m 69 583 q 110 548 81 548 q 117 517 115 543 q 131 511 124 511 l 135 511 q 140 517 138 511 l 140 525 q 136 530 136 530 l 136 538 q 138 546 136 543 q 119 555 138 552 q 96 594 96 578 q 125 629 111 624 q 136 633 132 633 l 138 629 q 136 619 138 623 q 142 596 139 600 l 142 588 l 135 588 q 142 569 135 584 q 152 585 148 569 l 156 587 l 165 587 q 170 583 170 586 l 170 576 l 159 553 q 158 542 158 543 q 175 525 158 532 l 177 521 l 177 517 q 161 509 177 515 q 158 498 158 503 q 170 473 170 486 q 150 431 150 445 q 127 419 135 419 q 108 427 120 419 l 108 422 q 125 399 108 420 q 135 378 125 394 q 133 361 133 368 l 133 353 q 113 349 125 353 l 113 347 q 140 334 118 347 q 165 367 140 359 l 165 369 q 150 401 150 396 l 150 417 q 177 442 150 420 q 181 457 181 449 l 181 488 q 183 490 181 490 q 179 503 179 500 q 181 509 181 507 l 186 509 q 204 496 199 496 l 206 500 l 206 502 q 198 513 198 511 l 200 525 q 191 534 191 532 l 191 546 l 196 553 l 196 562 q 173 590 196 590 l 172 600 l 172 606 q 173 608 172 608 q 158 633 170 621 q 161 652 158 636 q 81 606 83 612 q 69 583 81 598 m 366 578 l 366 571 q 370 567 366 567 q 374 571 374 567 l 374 573 q 366 578 374 576 m 340 562 l 347 557 l 351 557 l 351 563 q 347 567 351 567 q 340 562 344 567 m 308 550 q 312 530 312 538 l 314 530 q 326 550 326 541 l 326 551 q 315 562 326 554 l 314 562 q 308 550 308 559 m 35 555 q 39 536 35 552 l 33 525 l 33 500 q 37 496 33 496 q 46 505 46 499 q 40 523 40 517 q 42 528 42 526 l 52 528 l 58 532 q 37 555 47 555 l 35 555 m 88 517 l 88 513 q 102 494 102 497 l 100 486 q 110 448 110 472 l 115 444 l 117 444 q 131 463 120 444 q 110 502 123 502 q 88 517 100 517 m 262 490 l 264 490 q 277 496 273 496 q 269 509 277 506 l 267 509 q 262 490 263 509 m 52 482 l 52 475 q 62 467 52 472 l 64 467 q 71 482 68 467 q 62 496 71 496 q 52 482 52 493 m 256 471 l 266 471 q 277 446 277 450 l 275 436 q 294 390 280 407 l 294 380 l 287 380 q 267 394 275 392 q 262 392 264 392 l 262 390 l 277 369 l 277 367 q 260 338 266 338 q 239 351 239 338 l 239 355 q 244 371 239 361 l 243 382 q 254 406 243 387 l 254 408 q 246 422 254 414 l 246 427 q 254 444 246 432 q 250 459 250 451 q 256 471 252 471 m 306 463 l 306 461 l 314 455 l 317 455 q 306 463 317 458 m 39 454 q 50 427 45 427 q 58 450 56 427 q 46 459 46 458 q 39 454 39 456 m 328 436 q 333 429 330 429 l 339 429 l 342 446 l 333 448 q 328 436 328 446 m 87 446 l 81 438 l 81 431 q 87 425 81 427 l 88 425 q 92 429 92 425 l 92 440 q 87 446 92 443 m 399 417 l 397 408 l 400 394 l 400 390 q 397 382 397 385 q 402 363 402 372 l 402 359 q 395 344 395 351 q 414 330 414 334 l 422 321 l 422 311 q 412 292 412 300 q 423 278 412 278 l 425 278 q 445 298 433 288 l 445 300 q 441 311 441 306 q 456 334 441 322 l 456 336 q 435 367 439 367 q 425 372 425 368 l 425 380 q 439 386 439 382 q 399 417 439 401 m 52 415 l 50 411 q 54 408 51 408 l 67 408 q 71 411 71 408 q 52 415 65 411 m 33 397 l 33 394 q 46 384 33 391 l 48 384 l 48 392 q 44 401 48 401 q 33 397 38 397 m 98 372 l 96 369 l 96 367 q 102 361 96 364 l 104 361 q 108 365 108 361 l 108 367 q 98 372 108 370 m 368 309 l 370 296 q 352 273 370 292 q 366 253 366 261 q 340 232 357 238 q 339 230 339 232 q 370 215 339 225 q 383 238 376 216 q 399 264 393 238 q 379 276 399 274 q 377 296 379 279 q 387 303 386 299 l 387 305 q 377 328 381 328 l 375 328 q 368 309 370 328 m 237 326 l 241 326 q 244 323 244 326 l 244 317 l 243 307 l 239 307 q 231 315 235 307 l 231 321 q 237 326 231 323 m 181 315 q 189 309 181 312 l 189 317 l 186 317 q 181 315 183 315 m 589 170 q 595 163 592 163 q 601 176 601 171 q 599 178 599 176 l 589 170 z "},"=":{"ha":695,"x_min":63,"x_max":625,"o":"m 63 770 l 625 770 l 625 553 l 63 553 l 63 770 m 67 764 l 67 741 q 113 732 85 733 q 157 713 134 713 q 172 699 157 711 l 181 701 l 187 701 q 210 690 191 701 q 252 667 214 690 q 275 655 270 667 q 305 633 284 655 l 315 617 q 330 581 319 616 q 345 557 339 557 l 353 557 l 353 558 q 330 616 334 610 q 324 635 324 628 q 330 640 324 637 l 334 640 q 368 617 339 635 q 400 598 377 598 l 404 581 q 402 564 402 571 l 402 557 l 417 557 q 427 579 419 557 l 434 585 l 440 585 q 452 564 446 585 l 452 557 l 469 557 q 461 576 461 570 q 465 579 461 579 l 471 579 q 493 557 493 562 l 547 557 l 547 558 q 535 568 541 558 l 535 576 q 545 598 535 581 l 543 598 q 524 576 530 593 q 518 572 519 572 l 507 572 q 486 597 486 583 l 486 606 q 499 625 486 615 l 499 631 q 493 635 499 635 q 480 606 481 635 q 465 598 472 598 q 419 621 454 598 q 349 654 392 630 q 341 678 345 654 l 339 678 q 328 667 339 675 l 315 667 q 271 688 301 679 q 235 703 260 703 q 193 722 219 718 q 107 753 132 753 q 67 764 107 760 m 337 745 l 337 737 l 339 737 q 345 747 343 737 l 341 749 q 337 745 337 748 m 450 722 q 448 718 450 718 l 450 709 l 450 701 q 444 686 450 695 q 450 675 446 675 l 452 675 q 461 695 458 675 l 461 701 q 452 722 458 722 l 450 722 m 543 657 q 554 614 549 627 q 562 627 562 616 l 562 629 q 558 650 562 642 q 559 673 559 663 q 558 678 558 676 l 554 678 q 543 657 543 672 m 471 655 l 469 652 l 469 648 q 472 644 469 644 l 476 650 q 471 655 476 652 m 608 636 l 606 633 l 606 627 q 609 623 606 623 q 613 627 613 623 l 613 631 q 608 636 613 633 m 149 614 q 134 577 141 604 l 134 574 l 139 574 q 153 608 150 574 q 155 610 155 608 l 149 614 m 96 600 q 100 597 96 597 l 101 597 q 103 600 101 600 q 101 606 101 604 q 96 600 98 606 m 618 583 l 618 576 l 621 576 l 621 583 l 618 583 m 63 448 l 625 448 l 625 233 l 63 233 l 63 448 m 67 395 l 67 378 l 69 378 q 92 389 75 382 q 113 412 100 412 q 138 444 134 431 l 117 444 q 77 420 100 420 q 67 395 67 406 m 204 444 l 204 442 q 214 433 204 439 l 216 433 q 212 444 212 441 l 204 444 m 463 444 l 463 442 q 486 393 463 432 q 493 370 488 370 q 500 401 497 370 l 500 402 q 486 444 500 410 l 463 444 m 594 444 l 594 442 q 621 429 605 442 l 621 444 l 594 444 m 174 406 l 174 393 q 168 370 174 388 l 168 361 q 185 300 185 349 l 193 292 l 195 292 q 202 305 202 295 l 202 323 q 181 399 202 332 q 179 412 181 404 q 174 406 176 412 m 119 401 l 119 399 q 128 389 119 396 l 134 389 q 139 408 139 407 l 136 410 l 132 410 q 119 401 119 403 m 442 387 q 446 374 442 374 l 444 370 q 452 345 452 351 l 452 326 q 444 313 452 316 l 438 313 q 422 328 435 313 q 419 315 421 315 q 422 302 422 305 l 421 294 q 432 265 422 265 q 457 303 449 293 q 474 315 467 303 l 474 324 q 471 349 474 332 l 472 362 q 455 404 462 400 l 452 404 q 442 387 442 395 m 575 378 l 575 366 q 581 361 575 363 q 587 372 587 368 q 583 378 583 372 l 575 378 m 113 361 q 130 326 130 336 l 130 296 q 103 256 130 281 q 98 237 98 241 l 100 237 q 147 286 147 262 q 149 294 149 286 l 149 326 q 136 347 149 334 q 120 372 123 372 q 113 361 117 372 m 543 355 l 543 353 q 559 338 543 338 q 564 342 564 338 q 543 355 564 345 m 600 340 l 594 332 l 594 330 q 615 319 594 326 q 621 313 615 316 l 621 334 l 600 340 m 204 273 q 217 237 217 245 l 233 237 q 221 273 221 265 l 223 292 l 219 294 q 204 273 216 294 m 461 288 l 461 275 q 452 254 461 267 q 450 244 450 251 l 450 237 l 471 237 q 481 267 471 242 q 469 288 475 286 l 461 288 m 497 275 l 500 273 l 500 279 q 497 275 497 278 m 594 237 l 600 237 q 618 250 611 237 q 609 262 616 258 l 594 244 l 594 237 z "},">":{"ha":689,"x_min":63,"x_max":654,"o":"m 63 903 l 67 903 q 560 642 73 903 q 654 591 644 600 l 654 390 l 142 119 q 67 80 73 80 l 63 80 l 63 319 q 414 490 90 331 l 414 492 l 238 577 q 63 665 64 663 l 63 903 m 233 810 l 233 796 q 248 779 244 780 l 252 779 q 256 783 256 779 q 240 806 250 806 l 233 810 m 192 741 q 196 729 196 734 l 196 715 q 200 711 197 711 l 205 711 q 214 727 214 714 q 205 760 214 760 q 192 741 193 751 m 369 736 l 371 718 q 354 696 368 696 l 354 685 q 368 654 362 675 q 373 650 373 654 l 371 639 l 377 635 l 382 635 q 375 650 382 642 l 375 652 q 385 669 385 662 q 381 688 385 673 l 393 710 q 371 736 393 729 l 369 736 m 134 723 l 134 715 q 138 720 138 715 l 138 723 l 134 723 m 323 658 l 321 648 l 321 646 l 327 646 q 329 652 327 648 q 327 658 327 656 l 323 658 m 510 646 l 510 642 l 519 640 l 519 642 q 515 648 515 647 q 510 646 512 646 m 125 639 q 138 633 129 639 l 138 635 q 129 642 130 642 q 125 639 125 642 m 512 614 l 510 604 q 525 591 525 595 q 519 566 524 574 q 533 555 522 555 q 547 569 547 555 q 535 581 535 569 q 543 591 538 589 l 547 591 q 550 585 550 591 l 552 585 q 556 589 556 585 l 556 592 q 549 612 549 600 q 550 619 550 618 q 541 633 544 633 l 531 633 q 524 614 526 633 l 512 614 m 309 625 l 315 615 q 309 600 315 608 q 321 575 319 583 l 325 575 q 327 583 327 582 q 315 631 317 614 q 309 625 314 631 m 391 579 l 391 562 l 393 552 l 404 552 q 417 557 411 557 l 419 554 l 419 544 l 410 544 q 402 536 407 544 l 402 531 l 404 531 q 439 546 421 546 q 441 544 439 544 l 444 550 q 427 557 444 555 q 421 577 424 562 q 398 583 405 583 l 394 583 q 391 579 391 582 m 595 500 q 600 492 597 492 l 604 492 q 629 513 604 509 l 629 517 l 625 523 l 625 531 q 645 550 645 534 q 637 559 641 559 q 620 538 623 553 q 597 500 608 538 l 595 500 m 462 534 l 462 532 q 479 506 462 524 l 481 506 l 483 513 q 462 534 479 534 m 538 492 q 541 484 541 489 l 529 465 q 537 456 533 456 q 554 479 554 456 q 558 483 558 479 l 558 486 q 547 500 548 500 l 545 500 q 538 492 542 500 m 442 469 q 446 454 446 457 l 444 440 q 450 423 446 423 l 452 423 q 462 458 460 423 q 450 479 452 479 l 448 479 q 442 469 444 479 m 512 401 q 525 390 516 390 l 525 394 q 517 408 525 404 q 512 401 515 408 m 425 367 l 423 363 q 429 365 427 365 l 429 367 l 425 367 m 419 363 q 414 350 414 353 l 417 348 l 419 348 l 419 359 l 421 363 l 419 363 m 127 332 l 127 330 q 130 323 130 326 q 136 328 133 323 l 136 330 q 130 336 136 333 q 127 332 127 336 m 502 317 l 504 317 q 513 325 513 322 l 510 325 q 502 317 507 325 m 104 290 l 102 286 q 109 263 104 263 q 113 267 113 263 l 113 275 q 104 290 113 286 m 352 256 l 357 245 l 357 242 l 356 238 l 357 238 q 379 250 357 242 l 379 252 q 371 261 371 252 q 373 277 373 275 l 368 280 l 366 280 q 352 256 361 280 m 387 265 l 385 254 q 393 257 389 257 l 393 261 q 389 265 393 265 l 387 265 m 350 238 l 348 234 q 354 236 352 236 l 354 238 l 350 238 m 113 134 l 113 128 q 121 115 113 118 l 123 115 q 127 119 127 115 q 115 134 127 129 l 113 134 z "},"?":{"ha":606,"x_min":9,"x_max":587,"o":"m 286 991 l 327 991 q 565 835 488 991 q 587 728 587 781 l 587 699 q 445 454 587 582 q 387 354 392 393 l 383 290 l 181 290 l 181 334 q 273 567 181 483 l 348 652 q 370 709 370 683 q 329 777 370 758 l 303 781 q 222 687 244 781 q 216 641 216 654 q 9 672 200 641 l 9 673 q 71 881 9 774 q 286 991 145 991 m 366 982 q 358 968 366 968 l 352 964 l 354 960 l 354 957 q 348 947 349 947 q 372 905 353 905 q 379 885 375 901 q 375 873 375 879 l 375 856 q 395 831 395 835 l 397 819 l 397 815 l 395 811 l 399 811 q 408 815 405 815 q 391 854 402 834 q 385 869 385 864 q 393 885 389 885 l 391 908 l 391 912 q 404 935 401 931 l 399 939 l 381 910 l 373 910 q 358 932 358 922 q 361 943 358 937 l 361 953 q 375 970 366 953 q 366 984 374 984 l 366 982 m 239 982 l 234 974 l 234 964 l 235 964 q 245 976 235 969 q 239 982 245 979 m 298 960 q 300 947 300 953 l 303 947 l 305 955 l 298 960 m 439 960 l 439 959 q 443 953 443 959 l 445 953 l 445 959 q 439 960 443 959 m 416 949 l 416 935 l 420 935 q 422 941 420 937 q 416 949 419 949 m 429 947 l 427 937 l 431 935 l 435 935 l 435 943 q 429 947 431 947 m 302 926 q 303 920 303 922 q 317 932 317 920 l 313 939 q 302 926 302 935 m 183 914 q 185 908 185 910 l 191 908 q 203 928 203 915 l 199 930 q 183 914 191 930 m 456 922 l 456 916 q 463 897 463 899 l 463 891 l 445 871 l 445 869 l 449 871 l 458 871 q 472 852 463 852 q 476 864 476 859 q 465 879 476 866 l 465 887 q 478 892 478 889 l 478 895 l 468 906 l 468 922 l 465 922 q 463 920 463 922 l 458 922 l 456 922 m 321 914 l 325 912 l 329 912 l 329 914 q 325 918 329 918 q 321 914 321 918 m 284 905 q 290 887 290 892 l 294 887 l 305 899 q 302 910 302 907 l 298 910 q 284 905 291 910 m 203 889 l 207 891 l 214 891 q 235 876 235 879 q 257 852 235 872 q 262 842 258 842 q 284 844 276 844 q 286 842 284 842 q 255 856 286 856 q 230 887 246 881 l 226 899 l 220 899 q 203 889 203 895 m 129 889 l 129 881 l 131 881 q 137 883 135 883 l 137 889 l 129 889 m 187 869 q 203 848 187 860 l 203 827 l 208 827 q 214 838 214 829 l 214 842 q 197 879 197 873 q 199 885 199 883 q 187 869 187 881 m 319 881 l 319 879 l 334 856 l 334 850 q 321 827 334 844 l 321 823 q 338 800 321 800 q 331 823 331 821 q 348 835 331 831 l 346 844 l 346 854 q 348 856 346 856 q 325 885 348 859 l 323 885 q 319 881 319 884 m 424 848 q 429 829 429 834 l 431 829 l 437 833 q 431 860 437 838 l 429 860 q 424 848 424 858 m 125 844 q 151 804 141 806 l 153 804 q 140 827 153 808 q 135 854 140 854 l 133 854 q 125 844 129 853 m 495 838 l 495 835 l 509 813 l 513 813 l 517 827 q 503 840 517 834 q 495 838 500 838 m 290 833 l 290 825 q 298 813 290 815 l 300 817 q 290 833 294 833 m 45 821 l 43 813 q 50 808 47 813 q 59 821 56 808 l 45 821 m 100 813 l 98 810 q 129 777 109 777 q 166 751 152 768 l 168 751 q 191 765 191 762 l 191 767 q 180 782 182 782 q 160 781 163 781 q 119 788 154 786 q 106 813 113 795 l 100 813 m 530 808 l 530 800 q 528 794 530 794 l 530 784 l 530 768 q 515 753 517 758 q 524 741 519 743 q 542 781 529 762 l 544 800 q 536 810 540 808 q 530 808 532 808 m 275 788 l 276 788 q 284 790 279 790 l 286 790 l 290 788 q 294 792 290 792 q 284 806 290 804 q 275 788 280 806 m 237 802 q 224 786 235 793 l 224 784 q 230 779 224 781 l 232 779 q 241 794 241 783 l 241 798 q 237 802 241 802 m 375 779 q 359 781 361 781 l 348 770 l 359 765 q 379 774 366 765 l 389 774 l 402 770 l 426 792 l 426 794 q 420 796 424 794 q 375 779 405 785 m 492 782 q 486 777 492 777 l 472 779 l 467 767 q 476 743 476 749 q 472 732 472 737 l 472 728 l 486 730 l 492 730 l 492 732 q 484 755 484 753 l 484 763 q 499 777 484 765 q 497 782 497 780 l 492 782 m 562 781 l 559 770 l 559 768 q 565 781 564 768 l 562 781 m 43 697 q 75 666 43 694 l 79 666 q 90 686 87 685 l 100 687 l 100 695 q 96 699 100 699 q 77 682 90 698 l 71 682 q 63 695 66 682 q 79 751 66 751 q 96 757 93 757 l 96 761 l 90 768 q 52 711 66 768 q 43 697 43 707 m 110 749 l 108 745 l 108 728 l 115 720 q 125 738 125 724 q 110 749 121 749 m 391 718 l 412 699 l 414 699 l 414 701 q 406 745 408 718 q 400 749 401 749 l 399 749 q 391 718 391 749 m 195 728 l 195 720 q 212 734 206 720 l 212 740 q 207 745 212 743 l 205 745 q 195 728 199 745 m 501 722 q 488 682 501 705 q 490 675 490 677 l 494 675 q 511 713 497 675 l 509 722 l 501 722 m 181 713 l 181 707 q 189 705 182 707 l 193 711 l 193 718 l 187 718 q 181 713 184 718 m 456 705 q 458 699 458 701 l 465 699 q 468 718 468 713 l 467 718 q 456 705 456 713 m 370 675 q 391 646 391 661 l 391 625 l 406 606 q 412 608 410 608 q 397 646 406 646 l 393 652 l 393 656 l 397 662 q 381 691 387 671 l 379 691 q 370 675 374 691 m 530 675 l 538 672 q 544 689 544 680 l 540 691 q 530 675 537 691 m 22 677 l 22 673 l 28 673 l 28 677 l 22 677 m 454 668 l 456 645 l 456 639 q 443 600 456 631 q 445 594 445 596 l 454 594 l 465 589 q 480 590 475 590 q 494 565 492 590 l 497 563 q 505 565 500 565 l 505 569 q 480 606 505 586 q 463 616 463 611 q 468 629 463 622 l 468 633 q 463 646 463 640 l 463 666 q 458 670 463 670 l 454 668 m 317 610 q 309 590 313 604 l 323 590 l 332 592 l 332 598 q 317 610 332 602 m 276 562 q 284 542 284 548 l 284 532 q 275 507 284 530 l 278 507 q 303 530 291 530 q 307 534 307 530 l 307 536 q 288 551 293 545 l 288 555 q 305 589 288 559 l 302 589 q 276 562 282 576 m 381 553 l 395 553 q 400 562 400 553 q 391 578 399 572 q 381 553 385 578 m 429 567 l 429 565 q 439 544 433 544 q 443 548 443 544 q 439 559 439 554 l 439 575 l 437 578 q 429 567 429 576 m 319 567 q 313 549 313 557 l 317 549 q 325 563 325 553 l 319 567 m 358 530 l 359 526 q 345 503 359 512 l 345 501 q 350 494 347 494 l 352 494 q 373 544 373 517 q 375 548 375 544 q 358 530 363 548 m 370 451 q 400 456 374 454 l 404 454 q 439 472 424 454 q 480 499 463 472 q 507 528 483 500 q 497 538 507 534 q 474 509 492 538 q 429 481 435 481 q 370 451 370 463 m 235 515 l 232 509 l 232 494 l 234 484 l 237 484 q 248 488 248 484 q 235 515 238 512 m 309 480 q 311 478 311 480 q 321 490 321 481 l 317 492 q 309 480 309 490 m 292 468 l 292 460 q 290 439 292 452 l 303 379 q 311 371 303 376 q 315 375 315 371 q 305 426 307 400 q 296 454 298 426 q 300 474 300 464 l 298 474 q 292 468 295 474 m 230 472 l 226 467 q 243 447 243 452 l 245 447 q 255 463 255 452 q 249 470 252 470 l 243 467 l 237 467 l 230 472 m 201 451 q 199 443 201 446 l 201 443 l 203 447 l 203 451 l 201 451 m 342 435 l 342 431 q 348 426 342 429 l 350 426 q 368 451 353 426 l 366 451 q 342 435 347 435 m 245 431 q 269 370 245 403 q 315 294 286 326 l 340 294 q 329 321 329 314 l 329 329 l 331 338 q 325 329 328 338 q 317 327 321 327 q 284 383 304 336 q 251 431 267 431 l 245 431 m 373 402 l 373 400 l 383 398 q 387 404 387 404 l 387 418 l 383 418 q 373 402 373 413 m 368 363 q 373 330 370 330 q 387 371 383 336 l 383 370 l 375 371 q 368 363 370 370 m 368 303 l 368 300 l 377 298 l 379 298 l 379 311 l 377 311 q 368 303 368 307 m 181 212 l 384 212 l 384 -1 l 181 -1 l 181 212 m 186 168 l 186 115 l 188 115 q 208 129 201 115 q 188 168 188 165 l 186 168 m 231 115 q 262 87 239 115 q 286 73 270 87 q 297 69 293 69 q 299 74 299 72 q 271 98 299 81 q 244 121 263 111 l 239 121 q 231 115 236 121 m 202 90 l 204 90 q 210 100 208 90 q 202 90 206 100 m 337 26 l 337 24 q 340 6 340 8 l 340 2 l 362 2 l 364 12 q 360 30 364 17 q 380 66 360 46 l 380 81 q 342 45 342 73 q 337 26 337 33 z "},"@":{"ha":919,"x_min":60,"x_max":857,"o":"m 486 994 q 796 792 690 994 q 857 515 857 675 q 701 121 857 257 q 585 73 635 73 q 507 131 525 73 q 504 144 504 138 l 500 144 q 380 73 447 73 q 220 234 268 73 q 207 359 207 296 q 302 711 207 562 q 430 788 357 788 l 439 788 q 550 701 506 788 l 552 701 q 560 731 560 718 l 669 731 q 601 210 601 223 q 618 193 604 193 l 620 193 q 723 290 665 193 q 771 509 771 379 l 771 521 q 701 777 771 673 q 484 889 619 889 q 283 806 376 889 q 166 594 206 733 q 145 431 145 498 l 145 387 q 304 5 145 138 q 477 -54 387 -54 q 744 71 614 -54 l 857 71 l 857 67 q 764 -45 828 18 q 492 -156 633 -156 l 475 -156 q 116 108 239 -156 q 60 402 60 248 l 60 416 q 238 901 60 716 q 486 994 340 994 m 353 966 l 353 964 q 380 957 380 960 q 385 959 383 959 q 380 974 385 973 q 353 966 356 966 m 302 939 l 302 935 q 314 903 302 930 l 314 891 l 308 871 q 310 865 310 867 l 315 865 q 339 918 339 893 q 351 928 351 925 q 347 932 351 932 l 339 920 l 333 920 q 321 947 327 920 l 317 949 q 302 939 302 943 m 663 937 l 663 935 l 688 869 q 701 838 688 861 q 726 745 726 772 q 771 589 771 652 q 773 585 773 589 q 789 619 789 595 q 775 675 777 652 q 760 707 760 690 l 760 709 l 762 720 q 726 846 750 747 q 701 901 715 862 q 678 928 696 915 l 663 937 m 432 914 l 432 912 q 438 906 432 909 q 432 914 435 914 m 492 914 l 484 899 q 486 892 486 895 l 502 892 q 492 914 498 914 m 362 906 l 362 897 l 360 878 l 366 878 q 372 895 372 891 l 372 901 l 370 910 l 366 910 q 362 906 362 909 m 570 881 l 579 879 l 581 879 l 581 883 q 577 887 581 887 l 575 887 q 570 881 572 887 m 265 878 q 244 844 261 861 q 242 837 242 841 l 242 833 q 248 831 244 833 q 261 850 254 831 l 271 852 q 277 850 275 850 l 279 854 q 267 878 267 873 l 265 878 m 734 873 l 734 869 l 736 860 l 742 860 q 734 873 742 870 m 750 850 q 748 844 750 848 q 762 808 762 819 q 764 806 764 808 l 781 810 q 752 850 759 846 l 750 850 m 775 794 l 767 794 l 767 782 q 777 767 767 770 q 793 788 787 788 q 787 798 789 798 q 775 794 781 794 m 178 759 q 184 751 181 751 l 188 751 q 195 761 192 752 q 188 770 192 770 l 186 770 q 178 759 178 767 m 428 770 l 426 761 l 426 757 q 432 765 429 757 q 430 770 430 768 l 428 770 m 475 740 l 475 736 l 494 716 q 513 741 494 723 l 513 745 l 504 747 l 488 747 q 486 749 486 747 q 475 740 478 747 m 436 734 l 436 730 q 441 724 436 727 l 444 724 q 461 740 459 724 l 452 741 l 444 741 q 436 734 441 741 m 127 718 q 136 709 132 709 l 141 709 l 141 711 q 134 724 141 721 q 127 718 131 724 m 387 707 q 412 682 400 707 l 420 682 q 407 720 407 716 q 387 707 389 713 m 178 716 q 184 703 178 710 l 184 687 q 161 666 161 669 q 180 662 176 662 q 191 682 180 673 l 199 697 q 182 716 185 697 l 178 716 m 560 716 l 558 703 l 558 701 q 562 697 559 697 l 564 697 q 566 709 564 699 q 560 716 563 716 m 785 686 l 798 677 l 802 677 l 804 687 l 804 705 l 802 714 l 800 714 q 785 686 785 705 m 450 709 q 439 680 448 698 l 459 680 l 457 684 l 457 699 l 455 709 l 450 709 m 112 693 q 102 660 105 660 q 98 652 100 660 q 109 641 109 647 q 106 625 109 639 q 120 641 111 625 q 116 654 116 648 q 118 675 116 659 l 114 693 l 112 693 m 521 682 l 521 680 q 525 675 522 675 l 534 689 q 529 693 534 693 q 521 682 521 691 m 345 691 l 345 673 q 351 662 346 662 l 358 662 l 358 670 q 349 691 349 684 l 345 691 m 572 689 l 570 686 l 570 675 q 587 633 570 643 l 601 629 l 606 633 q 595 662 606 662 l 572 689 m 336 359 l 336 354 q 334 348 336 351 q 336 340 336 345 l 336 331 q 367 231 336 271 q 398 216 382 216 q 473 307 444 216 q 505 536 505 438 q 460 642 505 614 q 441 644 448 644 q 359 533 389 644 q 336 359 336 439 m 839 645 q 836 639 839 639 l 823 639 l 814 641 l 814 639 q 822 612 822 617 l 822 600 l 825 600 q 841 637 831 624 l 841 645 l 839 645 m 269 641 l 267 633 l 275 629 l 277 633 q 269 641 277 636 m 317 639 l 317 637 q 331 619 320 628 q 337 621 335 621 q 317 639 323 639 m 147 635 l 147 631 q 161 604 154 623 l 163 604 q 166 608 166 604 l 166 614 q 153 637 166 632 q 147 635 149 635 m 260 616 q 252 585 254 607 q 242 567 246 585 l 244 567 q 269 590 263 590 q 287 598 284 590 q 283 604 283 603 q 271 594 271 600 l 263 594 l 263 600 l 267 606 l 267 610 q 260 616 267 612 m 347 587 q 353 576 349 576 l 355 576 l 360 598 l 355 602 q 347 587 352 602 m 127 596 l 127 594 q 136 573 130 573 l 137 573 q 139 578 137 575 q 130 596 139 591 l 127 596 m 845 592 l 845 590 l 847 581 l 849 581 l 849 587 q 847 592 847 590 l 845 592 m 104 575 l 102 571 l 102 569 q 112 549 112 558 l 112 542 q 100 517 100 526 q 120 490 115 491 l 122 494 q 112 513 112 507 l 112 519 l 120 553 l 120 555 l 104 575 m 812 559 l 812 553 q 836 534 812 540 q 843 522 840 522 l 845 526 l 845 528 q 823 563 831 539 l 820 565 l 818 565 q 812 559 815 565 m 300 548 q 302 542 302 544 l 310 542 l 312 551 l 312 553 q 308 557 312 557 q 300 548 305 557 m 75 549 l 73 542 q 77 548 77 542 l 77 549 l 75 549 m 149 546 q 143 522 145 522 q 145 517 145 519 l 147 517 q 151 544 151 543 l 151 546 l 149 546 m 787 522 q 814 492 803 522 q 822 481 817 492 l 822 474 q 804 447 806 460 q 810 439 807 439 l 812 439 q 831 490 821 439 q 836 511 831 499 l 827 505 l 822 505 q 806 532 806 515 l 802 532 q 787 522 787 526 m 248 492 q 261 481 250 481 q 277 515 277 506 l 277 517 q 269 530 277 527 q 248 492 260 530 m 558 441 q 593 400 558 435 q 612 359 608 364 l 614 359 l 614 366 q 589 410 614 389 q 583 435 583 420 l 583 439 q 601 465 583 448 q 624 481 605 476 q 631 507 630 487 l 622 507 q 575 468 609 507 q 558 441 558 447 m 292 481 l 292 470 q 298 465 292 467 q 306 494 300 479 l 306 495 l 304 505 l 302 505 q 292 481 292 497 m 68 492 l 68 490 q 89 465 75 465 q 75 503 77 483 l 73 503 q 68 492 68 501 m 215 429 l 215 427 l 217 427 q 234 476 217 443 q 232 481 232 479 l 229 481 q 215 429 220 481 m 261 467 l 260 458 q 261 435 260 455 q 227 414 250 414 l 224 410 q 252 383 224 399 l 261 389 l 260 408 l 260 412 q 263 416 260 416 l 269 416 l 279 410 l 279 412 q 275 429 275 427 q 279 447 279 442 q 263 467 279 458 l 261 467 m 66 453 q 64 437 66 448 q 71 429 66 437 l 71 416 q 64 406 64 408 l 64 391 q 91 414 91 411 q 66 453 68 453 m 618 435 l 620 426 l 622 426 q 624 443 622 433 q 618 435 619 443 m 793 426 q 783 379 787 416 q 779 363 779 379 l 779 361 l 781 361 q 798 424 793 397 l 798 426 l 793 426 m 810 319 l 814 319 q 845 418 835 347 q 820 352 840 414 q 810 319 812 339 m 269 319 q 294 275 269 275 q 321 259 308 271 l 323 259 q 300 302 323 292 q 296 311 297 302 q 317 330 296 314 l 317 356 q 269 319 293 334 m 69 307 q 73 276 73 290 q 96 307 82 282 q 120 340 115 315 l 120 342 q 116 346 120 346 q 77 311 106 343 q 69 307 73 307 m 529 346 l 529 338 l 531 338 l 531 346 l 529 346 m 599 313 l 599 311 l 604 311 q 608 315 608 311 l 608 317 l 606 317 q 599 313 602 313 m 550 292 l 556 288 q 591 309 591 307 q 550 292 570 309 m 783 298 q 802 290 783 292 q 806 280 806 283 q 814 294 809 280 q 794 303 803 296 l 789 303 q 783 298 786 303 m 736 292 q 726 271 736 286 q 730 267 727 267 q 742 290 742 273 l 742 292 l 736 292 m 486 275 l 486 269 l 496 271 l 509 267 q 531 284 524 274 l 527 286 l 525 286 q 486 275 522 286 m 222 251 q 224 235 224 241 l 227 235 q 238 262 238 259 l 238 269 q 232 275 238 271 q 222 251 228 275 m 116 262 q 123 249 116 252 l 130 257 l 130 262 q 123 269 130 264 q 116 262 116 266 m 783 261 l 783 255 l 789 255 l 789 257 q 785 261 789 261 l 783 261 m 504 243 q 519 232 504 237 q 525 234 523 234 l 525 239 q 511 249 524 245 q 504 243 504 246 m 258 208 q 273 205 264 205 l 275 205 l 275 208 q 269 222 269 217 l 275 235 q 267 243 273 243 q 258 208 258 243 m 692 234 q 725 172 725 179 l 736 162 l 740 168 l 740 170 q 719 203 740 173 q 699 241 709 233 q 692 234 696 241 m 734 230 q 742 222 734 227 l 744 222 q 752 230 747 222 q 744 237 752 233 l 742 237 q 734 230 739 237 m 96 183 q 112 135 96 174 q 164 106 130 119 q 168 92 168 98 q 153 54 168 88 q 166 34 153 43 q 174 24 170 25 l 176 28 q 166 45 166 38 l 166 50 q 193 88 180 77 q 203 115 197 115 q 199 125 199 121 l 197 125 l 197 115 l 188 115 q 168 131 170 126 l 168 144 q 184 156 168 148 q 163 189 176 182 q 157 183 159 189 q 168 174 163 183 l 168 160 q 159 137 163 137 l 153 137 l 136 156 q 118 149 123 149 l 114 149 q 109 160 109 151 l 109 164 q 147 203 121 185 l 161 226 q 157 235 161 235 q 125 214 137 235 q 96 183 98 191 m 482 216 q 484 210 484 212 l 488 210 q 498 230 498 214 q 482 216 494 230 m 750 206 q 752 205 752 206 q 773 214 773 212 l 773 218 q 767 224 773 221 l 766 224 q 750 206 750 210 m 525 197 l 527 197 l 538 199 q 545 187 545 197 l 545 185 l 541 172 l 547 158 l 556 160 l 560 160 q 566 149 566 158 q 560 135 562 135 q 572 117 565 120 q 583 151 572 134 q 560 195 560 168 q 558 203 558 195 l 558 210 l 554 210 l 543 212 q 525 197 525 206 m 444 193 q 420 174 444 191 l 475 125 q 492 142 477 125 q 469 168 475 142 q 452 176 462 174 q 444 193 449 193 m 494 176 l 496 165 l 496 149 l 504 154 l 506 154 q 507 146 506 153 l 509 146 l 509 152 q 500 181 500 168 q 494 176 498 181 m 300 146 l 304 146 q 337 172 324 172 l 337 176 l 335 179 q 300 146 326 179 m 620 170 q 626 158 622 158 l 631 165 l 631 174 q 628 178 628 174 l 626 178 q 620 170 621 178 m 263 160 l 263 156 q 275 172 275 164 l 271 174 q 263 160 263 170 m 682 162 l 678 154 q 699 137 699 139 q 703 131 699 131 l 705 135 q 684 162 688 162 l 682 162 m 355 152 l 370 152 q 362 160 370 154 q 355 152 356 158 m 599 119 q 610 86 606 104 l 616 83 l 618 83 q 628 110 623 83 q 630 111 630 110 q 604 135 630 124 q 599 119 600 135 m 315 131 q 306 106 310 110 l 306 104 q 310 100 307 100 q 321 123 310 110 l 321 127 q 317 131 321 131 l 315 131 m 349 106 l 349 104 q 364 88 349 88 q 370 94 366 88 l 358 119 l 356 119 q 349 106 349 116 m 531 102 l 531 100 q 541 92 531 97 q 536 104 536 98 q 543 113 541 104 q 531 102 536 102 m 412 98 l 412 96 q 422 86 412 91 l 422 88 q 412 98 414 98 m 213 73 q 203 47 213 67 l 205 43 q 203 38 205 41 l 213 -3 q 229 -40 229 -19 q 261 -79 235 -59 l 265 -81 l 267 -81 l 267 -79 q 258 -43 263 -73 q 252 -24 252 -39 l 252 -18 q 242 9 247 -18 q 222 56 232 43 q 217 73 220 73 l 213 73 m 744 63 l 744 56 l 746 36 l 742 34 l 739 34 q 732 52 732 34 q 684 9 688 16 q 676 -9 676 -5 q 692 -20 692 -18 l 692 -26 q 686 -52 686 -47 q 694 -73 690 -73 q 707 -68 701 -68 l 717 -75 q 725 -71 722 -71 l 725 -67 q 709 -45 719 -54 l 709 -34 q 713 -30 710 -30 l 717 -30 q 723 -45 721 -30 l 725 -45 q 732 -20 731 -45 q 721 -9 728 -20 q 713 1 715 -9 q 719 28 713 12 q 746 5 746 18 q 740 -11 746 3 l 744 -11 q 755 1 744 -7 q 767 13 760 9 l 771 13 q 775 9 775 12 l 775 3 q 758 -24 775 -4 q 755 -43 758 -26 q 793 -9 756 -42 q 791 -3 791 -5 q 802 28 791 28 l 804 28 q 816 26 806 28 q 823 47 823 39 q 820 50 820 47 l 816 47 l 808 47 q 798 67 798 53 l 789 67 q 794 52 789 62 q 789 47 789 50 q 783 52 783 50 l 779 50 l 769 50 q 764 38 769 39 l 758 38 q 748 67 753 67 q 744 63 744 66 m 833 67 q 836 61 836 63 l 839 61 l 839 67 l 833 67 m 796 43 l 800 43 q 804 40 804 43 l 804 32 l 796 32 l 796 43 m 250 36 l 250 28 q 261 34 261 30 l 261 36 q 258 40 261 40 l 254 40 q 250 36 250 39 m 753 30 l 760 30 l 760 24 l 753 24 l 753 30 m 608 -79 l 604 -79 q 589 -38 589 -56 l 568 -45 q 564 -55 568 -55 l 554 -55 l 554 -47 q 507 -57 510 -57 q 504 -63 506 -63 q 521 -79 505 -70 l 527 -79 l 527 -75 l 536 -75 q 543 -86 543 -77 q 525 -98 543 -97 l 523 -102 l 523 -104 q 529 -115 529 -111 q 515 -136 529 -125 q 517 -151 517 -144 l 541 -149 l 543 -149 q 556 -135 543 -135 l 558 -135 l 566 -142 l 579 -140 l 579 -109 q 572 -94 579 -102 l 572 -86 q 577 -81 572 -83 l 589 -81 q 614 -127 614 -96 l 616 -127 q 640 -115 623 -127 q 682 -98 650 -115 q 667 -68 672 -90 q 645 -22 656 -56 l 645 -16 l 651 -9 q 630 -41 630 -16 q 608 -79 630 -79 m 372 -40 l 372 -41 q 385 -61 372 -47 q 397 -71 385 -68 l 399 -67 l 399 -63 q 385 -43 388 -52 q 372 -40 378 -40 m 430 -54 l 430 -55 q 438 -68 432 -68 l 441 -55 q 430 -54 431 -54 m 459 -61 l 461 -73 q 452 -81 461 -75 l 453 -84 q 450 -119 453 -97 l 438 -119 q 422 -94 436 -94 q 389 -136 399 -117 l 385 -136 l 385 -140 l 399 -142 q 405 -135 400 -135 l 409 -135 q 416 -146 412 -135 q 450 -149 423 -149 q 459 -135 456 -135 l 457 -125 l 457 -123 q 463 -117 457 -120 l 467 -117 q 479 -140 479 -123 q 467 -152 469 -146 l 484 -152 q 492 -138 484 -142 q 494 -136 492 -136 l 492 -127 l 492 -94 q 482 -61 482 -69 q 471 -57 476 -57 l 463 -57 q 459 -61 459 -58 m 640 -63 l 642 -63 q 647 -68 644 -63 l 647 -79 l 637 -81 l 633 -75 l 633 -68 q 640 -63 633 -66 m 471 -77 l 479 -77 l 480 -96 l 480 -113 l 471 -113 q 467 -79 467 -88 l 471 -77 m 624 -94 l 628 -94 q 631 -98 631 -94 l 631 -100 q 628 -104 631 -104 l 624 -104 l 624 -94 m 558 -96 q 570 -102 570 -97 l 570 -111 l 560 -111 q 556 -108 556 -111 l 556 -106 l 558 -96 m 536 -109 l 543 -109 l 543 -115 l 536 -115 l 536 -109 m 414 -113 l 418 -113 q 422 -117 422 -114 l 422 -119 q 418 -123 422 -123 l 410 -123 l 410 -117 q 414 -113 411 -113 m 562 -123 l 570 -123 l 570 -131 l 562 -131 l 562 -123 z "},"A":{"ha":816,"x_min":-5,"x_max":825,"o":"m 279 972 l 541 972 l 825 -1 l 574 -1 q 537 158 547 112 l 279 158 q 260 81 274 158 q 240 -1 258 80 l -5 -1 q 279 972 3 31 m 389 968 q 385 949 385 954 q 395 933 395 940 l 400 933 q 414 947 403 933 q 399 956 414 952 l 399 962 l 402 968 l 389 968 m 456 968 l 456 966 l 460 960 q 472 966 472 963 l 472 968 l 456 968 m 505 968 q 507 943 507 951 q 505 937 505 939 l 512 937 q 514 943 512 939 q 511 968 514 948 l 505 968 m 472 951 l 472 949 q 475 939 475 943 l 474 930 l 479 930 l 479 941 l 477 951 l 472 951 m 317 939 l 313 933 l 313 922 l 319 895 l 323 895 l 323 905 q 317 939 323 939 m 524 928 q 536 908 530 908 l 537 908 q 541 912 541 908 q 537 930 537 924 q 539 931 539 930 l 534 935 q 524 928 525 932 m 277 922 l 277 914 l 279 914 l 279 922 l 277 922 m 429 905 l 429 897 l 431 897 q 443 916 443 905 l 439 918 q 429 905 437 918 m 458 862 q 468 827 468 847 l 468 823 q 472 821 472 823 q 489 850 479 821 l 488 858 l 489 867 q 486 887 486 882 q 488 903 488 898 q 474 908 480 908 q 458 862 469 908 m 263 878 l 263 866 q 275 852 263 852 q 277 854 275 854 q 269 883 275 883 q 263 878 267 883 m 374 866 q 387 846 384 847 l 389 856 l 389 871 l 387 881 l 381 881 q 374 866 375 881 m 559 856 q 568 841 564 841 l 572 843 q 564 862 569 862 q 559 856 563 862 m 279 831 l 279 829 q 304 812 286 829 l 308 812 l 317 814 l 317 833 l 304 833 l 288 848 q 279 831 279 848 m 418 804 q 429 794 422 794 q 437 802 435 795 l 431 823 l 429 823 l 418 804 m 240 802 q 256 789 245 789 q 265 800 265 789 l 265 804 l 263 814 l 248 814 q 240 802 240 810 m 493 812 q 479 789 484 803 q 460 758 477 789 q 474 739 466 743 l 475 739 l 475 750 q 500 789 479 789 l 503 789 q 514 785 506 789 l 514 787 q 493 812 503 812 m 351 775 l 345 766 q 352 754 349 754 q 351 739 351 743 q 370 719 351 729 q 374 723 370 723 q 362 769 368 734 q 351 775 355 775 m 246 769 q 231 752 246 766 q 229 729 231 743 l 233 729 q 254 750 250 750 q 271 768 271 753 q 269 769 269 768 l 260 768 l 256 768 l 246 769 m 576 755 q 574 754 576 754 q 578 729 578 750 q 586 744 583 729 q 576 755 583 752 m 493 725 q 509 696 494 714 q 511 698 509 698 q 505 715 505 711 l 505 721 q 512 739 505 728 q 511 744 511 742 l 509 744 q 493 725 507 744 m 422 706 q 429 675 425 696 l 441 663 q 447 669 442 663 q 435 694 435 690 q 452 719 438 705 q 445 729 452 722 q 422 706 442 729 m 576 725 q 562 707 576 718 q 570 698 566 699 q 578 723 576 698 l 578 725 l 576 725 m 252 709 l 252 704 l 254 704 q 258 707 258 704 l 258 713 l 256 713 q 252 709 252 713 m 406 704 q 329 374 406 698 l 486 374 l 408 704 l 406 704 m 323 675 l 323 673 l 329 673 q 338 696 338 692 l 338 698 l 335 698 q 323 675 329 698 m 603 684 l 601 675 l 601 625 l 603 615 l 605 615 q 611 627 611 617 l 609 644 q 616 661 614 661 q 603 684 606 684 m 524 673 q 536 667 524 669 l 537 671 l 537 677 l 536 681 q 524 673 524 676 m 338 646 l 329 652 l 329 648 q 352 611 337 625 q 358 617 355 611 q 351 631 351 625 q 374 673 351 636 l 370 675 q 349 646 366 675 l 338 646 m 262 663 q 256 646 256 656 l 256 640 q 288 621 275 621 q 292 629 292 625 q 290 634 290 632 l 277 634 q 263 648 268 639 l 265 661 l 262 663 m 194 654 l 196 650 l 196 648 q 192 631 196 643 l 214 654 q 212 659 212 657 l 205 659 q 194 654 199 659 m 463 638 l 463 636 q 474 621 463 626 l 475 621 l 479 657 l 477 657 q 463 638 463 649 m 375 638 q 366 618 366 627 q 375 613 369 618 q 379 617 379 613 l 379 634 q 375 638 379 638 m 528 625 l 528 613 q 534 609 528 609 q 543 617 543 613 l 543 632 q 537 638 543 635 q 528 625 528 635 m 180 618 l 173 586 l 173 584 q 184 578 178 584 q 190 586 189 586 q 184 606 184 596 l 184 618 l 180 618 m 246 602 q 256 576 256 578 l 262 576 q 263 582 262 578 l 262 592 l 263 602 q 254 613 261 610 l 252 613 q 246 602 248 613 m 489 555 q 495 551 489 551 q 511 569 511 558 l 511 582 q 522 595 522 595 l 522 600 l 520 604 q 503 588 515 604 q 489 555 494 588 m 300 544 q 313 494 304 507 l 317 492 l 317 499 q 312 520 317 507 q 313 551 313 540 l 310 569 q 312 588 312 585 q 300 544 302 588 m 628 581 l 644 547 l 657 538 q 646 574 656 557 q 644 582 644 581 l 632 582 l 628 581 m 566 561 q 574 544 574 549 q 580 555 580 545 q 574 567 580 559 q 566 561 566 564 m 477 519 q 479 513 479 515 l 481 513 q 495 528 484 513 q 488 545 488 542 l 486 545 q 477 519 479 545 m 215 538 q 223 526 220 526 l 223 530 q 217 538 220 538 l 215 538 m 572 538 q 564 513 570 524 q 584 497 576 507 l 589 497 q 591 503 589 499 q 578 517 591 506 q 574 538 578 519 l 572 538 m 659 536 l 659 534 q 665 526 662 526 l 665 530 q 663 536 663 534 l 659 536 m 351 517 l 351 515 q 354 507 354 510 l 356 507 q 360 524 356 515 l 358 524 q 351 517 355 524 m 267 515 q 262 492 262 498 l 262 480 l 263 470 l 269 470 l 271 480 l 271 511 q 267 515 271 515 m 150 511 q 144 494 150 507 q 157 480 144 487 q 161 501 161 488 q 150 511 161 509 m 512 472 l 516 470 l 528 470 q 536 492 531 470 l 530 495 q 512 472 515 495 m 621 476 q 630 460 623 463 l 632 460 q 644 476 644 469 q 636 486 640 485 q 621 476 621 483 m 340 465 l 340 451 l 342 451 l 345 469 q 340 465 340 468 m 132 453 l 132 444 q 117 403 132 420 l 117 399 l 119 399 l 136 422 q 138 430 138 425 l 138 433 l 136 457 q 132 453 132 456 m 214 430 l 214 428 q 221 414 214 418 l 227 414 q 237 444 237 433 q 235 449 235 447 l 233 449 q 219 433 223 433 q 214 430 214 433 m 338 449 q 319 422 338 438 q 329 403 327 403 l 331 403 q 340 447 331 406 l 340 449 l 338 449 m 500 445 l 500 439 q 509 432 500 436 l 511 435 l 511 437 q 505 449 511 448 q 500 445 500 448 m 593 435 l 597 433 l 600 437 l 600 439 l 597 439 q 593 435 593 439 m 690 426 q 698 418 692 420 q 696 428 696 421 l 694 428 l 690 426 m 171 412 l 153 372 l 153 368 l 155 358 l 163 364 l 161 374 q 175 405 161 378 l 175 408 q 171 412 175 412 m 250 407 q 260 393 250 405 l 260 382 q 252 372 252 373 l 252 368 l 258 360 l 258 358 q 242 337 258 349 l 242 332 q 256 314 254 314 q 267 323 264 317 q 258 328 261 328 l 258 339 q 269 374 263 346 q 283 389 272 374 l 283 391 l 281 395 l 271 393 q 260 412 260 393 l 256 412 q 250 407 253 412 m 655 405 l 655 399 l 657 399 q 661 403 661 399 l 661 405 l 655 405 m 507 383 q 516 378 516 380 q 524 385 524 380 q 518 401 523 401 q 507 383 513 401 m 315 387 l 315 382 l 323 382 l 326 391 l 326 397 q 315 387 323 397 m 593 358 q 611 326 604 326 q 624 321 620 326 q 632 330 632 323 q 611 349 631 336 l 607 372 q 609 387 607 374 l 607 387 q 593 358 595 387 m 410 368 q 418 349 414 349 l 420 349 q 429 368 424 349 l 410 368 m 111 339 l 111 333 l 115 333 q 123 341 117 333 q 121 347 121 345 l 119 347 q 111 339 116 347 m 358 321 l 363 318 l 366 318 q 375 335 375 323 l 372 337 q 358 321 358 330 m 126 321 l 126 312 q 132 307 126 309 q 136 321 136 319 q 134 328 134 326 l 132 328 q 126 321 130 328 m 512 302 q 514 296 514 298 l 518 298 q 516 304 516 302 l 512 302 m 730 296 l 728 289 q 736 273 732 273 l 738 273 l 738 275 q 730 296 735 296 m 640 273 l 637 264 q 648 254 637 254 q 651 270 651 261 l 646 273 l 640 273 m 389 264 l 389 262 q 410 241 393 241 l 412 245 l 412 248 q 393 264 404 248 l 389 264 m 287 239 l 288 225 q 271 181 281 215 q 287 170 275 170 l 287 173 q 283 191 287 178 q 300 200 283 197 l 300 202 q 292 218 292 210 l 292 220 l 298 239 q 296 245 296 243 l 292 245 q 287 239 290 245 m 256 241 q 248 220 256 237 q 250 218 250 220 q 262 235 262 222 l 262 237 q 258 241 262 241 l 256 241 m 555 237 q 549 221 549 225 l 549 208 q 555 196 550 196 l 559 202 l 559 223 l 561 237 l 555 237 m 632 196 q 634 177 634 180 l 624 129 q 646 134 629 132 l 653 159 l 653 165 l 640 177 q 661 221 640 198 q 663 229 663 228 q 632 200 650 214 l 632 196 m 753 220 l 751 216 l 751 214 l 758 214 l 758 216 q 753 220 758 220 m 148 183 q 159 138 153 151 q 167 152 167 142 l 167 158 q 163 175 167 163 q 165 196 165 189 l 163 204 l 159 204 q 148 183 148 198 m 375 202 q 381 183 377 183 l 385 189 q 377 202 380 202 l 375 202 m 479 200 q 474 170 474 180 l 474 163 l 484 163 q 489 189 489 186 q 484 200 489 199 l 479 200 m 690 198 l 686 193 l 690 191 q 694 195 694 191 q 690 198 694 198 m 728 184 q 744 161 728 174 l 744 191 q 738 196 744 193 q 728 184 731 193 m 342 193 l 340 189 l 340 184 l 342 184 q 347 189 347 184 q 342 193 347 193 m 574 179 l 578 163 l 582 163 q 587 171 587 163 q 578 183 585 179 q 574 179 574 182 m 75 181 l 73 177 l 73 171 l 77 171 q 80 175 80 171 q 75 181 80 178 m 412 173 l 408 168 l 408 163 l 418 163 l 418 168 q 412 173 418 170 m 372 170 l 368 163 l 377 163 q 372 170 377 166 m 534 170 q 532 163 534 168 q 541 161 538 163 l 541 165 q 537 170 541 170 l 534 170 m 214 161 l 212 158 l 212 152 q 215 148 212 148 q 219 152 219 148 l 219 156 q 214 161 219 159 m 68 123 q 39 136 56 123 q 30 104 39 135 l 38 109 l 43 109 q 55 88 50 109 l 55 71 l 41 33 q 53 3 45 3 l 73 3 q 68 17 68 11 q 75 67 68 40 q 64 100 75 73 q 68 104 65 104 l 75 104 q 103 73 98 86 l 107 75 q 140 59 140 64 q 142 54 142 59 q 161 58 154 58 q 190 38 172 53 q 229 19 196 38 q 238 17 235 19 q 244 40 240 20 q 208 58 225 52 q 173 73 206 63 q 148 83 173 77 l 140 92 l 140 100 q 150 123 140 106 l 148 123 q 128 100 134 118 l 123 96 l 111 96 q 90 121 90 108 l 90 131 q 103 152 90 140 l 103 156 q 98 159 103 159 q 84 131 86 159 q 68 123 76 123 m 755 133 l 755 121 q 769 106 757 106 l 769 108 q 765 123 769 109 q 777 148 765 130 l 777 152 l 774 152 q 755 133 772 152 m 564 150 l 562 146 l 562 140 l 568 140 q 570 146 568 142 l 564 150 m 233 131 l 233 115 q 225 100 225 107 q 231 98 227 100 q 237 100 235 100 l 237 109 q 240 125 237 111 q 238 131 238 129 l 233 131 m 623 125 q 621 117 623 121 l 624 117 q 626 123 624 119 l 623 125 m 644 75 l 644 73 q 648 69 644 69 l 651 69 q 674 84 664 84 l 674 88 l 676 102 l 671 106 l 665 106 q 644 75 663 106 m 611 83 q 618 71 614 71 q 628 94 626 81 q 626 100 626 98 l 623 100 q 611 83 618 99 m 688 90 q 676 84 688 84 q 684 65 684 74 q 682 58 682 62 l 686 58 q 692 69 692 59 l 692 86 q 688 90 692 90 m 753 75 l 753 69 q 761 86 758 69 l 760 86 q 753 75 753 84 m 105 63 q 92 33 92 41 q 103 19 92 23 q 115 26 115 23 q 100 33 115 31 l 98 36 l 98 38 q 111 44 98 44 l 111 58 q 105 63 111 60 m 698 44 l 698 36 q 705 33 701 36 l 709 33 l 709 38 q 703 44 709 41 l 698 44 m 769 21 l 773 21 q 788 33 788 29 l 788 40 l 786 40 q 769 21 769 33 m 578 22 l 584 19 l 587 19 q 591 22 591 19 q 586 34 591 33 l 584 34 q 578 22 580 34 m 148 28 q 126 17 148 19 l 125 13 q 132 3 128 4 l 140 3 q 146 11 141 11 l 151 11 q 155 3 151 3 l 180 3 l 180 5 q 153 11 165 5 l 153 17 q 148 28 153 27 z "},"B":{"ha":833,"x_min":75,"x_max":780,"o":"m 75 973 l 517 973 q 741 781 703 973 q 745 728 745 757 q 631 519 745 576 q 667 503 633 515 q 780 282 780 440 l 780 269 q 667 37 780 119 q 566 8 642 21 q 488 1 509 1 l 75 1 l 75 973 m 79 966 l 79 918 l 81 918 q 85 931 81 923 q 83 948 83 941 l 96 964 l 96 970 l 83 970 q 79 966 79 969 m 137 970 q 133 960 137 966 q 138 952 136 952 l 140 952 l 140 970 l 137 970 m 162 970 l 160 962 q 176 950 160 956 l 176 952 q 174 970 174 962 l 162 970 m 226 970 l 226 968 q 237 952 233 968 l 241 950 l 247 950 q 251 956 251 950 l 249 970 l 226 970 m 316 970 l 318 960 l 324 960 l 326 970 l 316 970 m 359 970 q 363 966 359 966 l 374 966 q 378 970 378 966 l 359 970 m 407 970 q 391 952 407 963 l 391 950 q 416 954 415 954 l 418 950 l 418 943 l 403 931 q 380 898 393 913 q 374 857 377 857 q 399 825 393 830 q 422 779 413 782 q 432 790 432 780 q 411 821 420 811 l 411 829 l 418 836 l 418 838 q 407 844 416 844 l 390 844 q 384 852 387 844 q 397 913 395 888 q 403 921 401 921 l 405 921 q 415 911 406 921 q 420 918 418 911 l 420 932 q 422 964 420 944 q 420 970 420 968 l 407 970 m 452 970 l 452 952 q 446 939 452 945 l 446 935 q 452 932 448 935 q 465 960 465 932 l 465 970 l 452 970 m 502 970 q 532 946 502 953 q 515 968 532 960 l 515 970 l 502 970 m 559 966 q 562 941 559 964 q 577 950 572 943 q 564 966 574 959 l 559 966 m 328 943 l 328 941 l 332 935 l 332 927 q 324 918 324 918 l 324 911 q 334 895 328 895 l 336 898 l 336 925 q 345 943 342 943 q 353 956 353 943 l 347 960 q 328 943 328 944 m 177 948 l 177 939 q 189 932 179 932 q 193 941 193 937 q 187 948 190 948 l 177 948 m 226 946 q 206 911 226 936 l 212 907 q 239 921 212 916 l 239 935 q 227 946 231 935 l 226 946 m 270 943 l 268 929 l 268 920 l 274 911 q 283 923 279 913 q 277 943 277 941 l 270 943 m 544 920 l 548 918 q 562 939 562 926 l 557 939 q 544 920 544 939 m 515 937 q 490 913 499 913 q 475 925 488 913 q 453 907 454 914 l 459 898 l 459 886 q 461 865 459 878 l 450 846 q 461 838 461 846 l 467 838 q 478 859 467 844 q 480 865 478 861 q 469 884 480 871 q 463 898 463 895 q 471 911 466 911 l 475 911 q 494 892 494 907 l 498 892 q 503 898 500 892 l 502 909 l 505 911 l 509 911 q 515 906 512 911 l 530 913 q 515 937 519 937 m 104 906 q 110 900 104 903 l 113 900 q 119 920 117 900 q 129 923 125 923 l 129 927 q 123 932 129 930 l 119 932 q 112 913 114 932 q 104 906 111 913 m 152 927 l 152 925 q 160 918 152 923 q 170 925 169 921 l 170 927 q 158 932 168 932 q 152 927 155 932 m 349 929 l 349 927 q 353 923 350 923 q 357 927 357 923 l 357 929 q 353 932 357 932 q 349 929 349 932 m 181 913 l 181 911 q 187 873 187 882 q 199 896 193 873 q 201 898 201 896 l 201 902 q 181 913 191 913 m 222 869 q 237 842 231 869 l 239 842 q 247 856 242 842 q 235 869 247 858 l 235 881 q 256 895 237 886 q 260 906 260 901 l 258 906 q 222 869 222 894 m 140 904 q 121 888 140 895 q 115 867 121 872 l 117 863 q 104 815 117 831 q 127 792 111 792 q 131 804 131 798 l 131 809 q 125 823 131 816 q 142 865 125 836 l 142 873 q 140 895 142 881 q 144 904 144 901 l 140 904 m 332 865 l 332 861 q 343 856 334 856 l 345 856 q 353 869 353 859 l 353 886 q 365 898 353 888 l 365 902 l 363 902 q 345 882 345 902 q 332 865 345 876 m 79 900 l 79 815 l 81 815 q 88 823 88 817 q 87 834 87 833 l 92 846 l 92 850 l 81 863 q 87 877 83 876 l 81 900 l 79 900 m 608 871 l 612 869 q 629 896 617 869 q 623 900 624 900 l 621 900 q 608 871 608 894 m 583 898 l 578 886 l 585 882 l 587 882 l 594 890 q 592 898 592 894 l 583 898 m 281 869 q 288 857 283 857 q 295 875 295 860 l 295 882 q 291 886 295 886 q 281 869 286 886 m 542 850 q 571 825 551 832 l 573 825 q 577 832 574 832 q 555 850 576 840 l 555 852 q 559 863 555 857 l 555 865 l 553 865 q 542 850 542 857 m 608 846 l 616 836 l 616 834 l 614 823 q 627 809 616 809 l 629 809 l 631 819 l 631 825 l 648 825 q 639 865 648 833 l 633 865 q 608 846 623 865 m 675 865 l 673 861 l 675 854 l 673 840 q 675 834 675 836 l 679 834 q 685 846 685 836 q 675 865 685 861 m 191 861 l 191 844 q 208 819 191 836 l 208 817 l 214 817 q 233 806 222 817 l 235 806 l 235 807 q 214 827 235 823 l 199 859 q 191 861 194 859 m 158 842 l 158 840 q 170 834 160 834 l 172 838 l 172 842 l 158 842 m 455 831 l 453 827 l 453 825 q 459 811 459 818 q 448 804 451 811 l 448 800 l 452 794 l 452 777 q 469 769 452 770 q 471 784 469 774 q 457 798 468 784 q 467 813 457 812 l 469 817 q 455 831 469 820 m 542 825 l 542 817 q 553 815 548 815 q 555 823 555 819 l 548 827 q 542 825 544 825 m 251 817 q 264 795 262 795 l 268 795 q 270 807 268 797 q 266 823 266 822 l 264 823 q 251 817 258 823 m 357 823 l 357 821 q 365 806 359 806 l 370 806 q 372 811 370 808 q 361 823 371 818 l 357 823 m 179 804 l 179 800 q 191 788 179 797 q 199 795 194 788 l 199 800 q 195 819 199 804 l 193 819 q 179 804 191 819 m 320 817 l 318 813 q 334 777 334 781 l 345 777 q 326 807 345 789 q 320 817 325 817 m 112 817 l 121 817 l 121 807 l 112 807 l 112 817 m 498 815 q 488 798 498 809 l 488 794 q 503 777 499 785 l 502 763 l 502 744 q 507 724 507 726 l 509 724 q 521 751 521 745 q 528 788 528 751 l 525 790 l 517 784 q 502 794 507 784 l 502 800 q 503 807 502 804 q 498 815 500 815 m 646 800 l 644 800 q 633 804 640 800 q 631 784 631 787 l 637 784 q 660 804 659 804 q 658 809 658 807 l 646 800 m 566 806 l 566 804 q 575 784 570 784 l 577 788 l 577 792 q 569 806 577 802 l 566 806 m 79 804 l 79 786 q 85 792 81 786 l 85 798 q 79 804 85 800 m 176 745 l 176 742 q 193 734 176 739 q 199 730 193 732 q 220 765 207 730 l 224 767 l 229 767 q 239 759 238 759 q 247 767 242 759 l 247 784 q 239 790 247 787 q 216 772 219 772 q 189 749 195 749 q 176 745 176 749 m 382 777 l 399 777 q 391 784 399 779 l 390 784 q 382 777 387 784 m 606 765 q 619 745 617 765 q 616 742 616 745 l 616 740 q 623 732 616 736 q 631 745 631 741 q 621 782 623 762 l 617 784 q 606 765 606 774 m 163 769 l 168 767 q 172 779 172 773 l 172 781 l 170 781 q 163 769 163 779 m 288 769 q 293 749 293 757 l 297 749 l 297 770 q 293 774 297 774 q 288 769 292 774 m 316 770 l 316 593 l 401 593 q 492 622 474 593 q 509 678 509 648 l 509 684 q 461 765 509 747 q 427 770 441 770 l 316 770 m 94 767 l 88 759 q 96 742 96 747 l 96 738 q 85 720 90 730 q 87 715 87 717 l 88 715 q 102 736 102 725 q 115 740 115 736 q 98 765 115 765 q 94 767 98 767 m 573 749 q 583 711 573 726 q 604 703 583 709 q 616 690 606 697 l 625 695 q 621 711 621 703 l 621 717 l 612 715 l 606 715 q 589 744 589 715 l 581 749 l 573 749 m 274 724 l 277 707 q 276 701 276 703 q 279 697 279 701 q 293 699 282 699 q 290 715 290 709 q 293 738 293 732 l 288 738 q 274 724 274 738 m 544 726 q 555 713 550 714 q 557 732 555 722 q 555 734 555 732 q 544 726 551 732 m 127 732 q 113 713 127 727 q 123 701 113 701 q 129 711 129 707 q 127 726 127 724 l 129 730 l 129 732 l 127 732 m 154 724 l 154 718 q 160 713 154 715 l 162 713 q 165 717 165 713 l 165 730 l 160 730 q 154 724 157 730 m 172 705 q 160 656 160 669 l 160 649 l 158 645 l 163 642 q 176 647 174 642 q 168 653 168 647 l 168 678 q 183 697 176 688 q 172 705 183 705 m 642 707 q 641 699 642 703 q 648 690 644 690 q 654 697 651 690 q 646 707 650 706 l 642 707 m 564 693 q 573 678 564 684 q 581 686 576 678 l 581 693 l 578 703 l 577 703 q 564 693 564 703 m 79 701 l 79 693 q 88 674 88 693 q 83 659 85 659 q 96 642 83 652 q 98 655 96 652 q 94 667 94 661 l 94 668 q 102 682 102 675 l 102 693 q 81 699 102 697 q 79 701 81 701 m 513 699 l 513 676 q 517 680 517 676 l 517 690 l 515 699 l 513 699 m 195 668 l 195 661 q 204 651 195 658 q 210 672 208 651 q 224 676 216 676 q 218 697 218 696 l 212 697 q 195 668 195 680 m 249 653 q 258 628 249 650 q 256 622 258 626 q 258 605 258 612 l 258 603 q 254 581 258 589 l 258 580 q 279 591 279 587 l 279 593 l 260 610 l 260 614 q 270 626 270 623 q 260 647 260 640 q 277 668 262 668 q 268 688 273 688 q 252 659 267 688 q 249 653 251 659 m 542 659 q 566 628 557 628 q 581 620 574 628 q 604 651 586 620 q 629 670 629 651 l 629 672 q 619 680 628 672 q 592 655 610 662 q 583 640 583 644 l 571 640 q 555 656 555 646 l 555 665 q 557 667 555 667 l 555 670 l 555 682 l 552 682 q 542 659 547 682 m 281 630 q 286 624 281 629 l 286 622 l 283 608 q 290 601 286 608 q 299 614 299 604 q 290 628 299 616 l 290 631 q 295 637 290 634 l 301 637 l 311 635 l 313 640 l 313 643 l 295 663 q 288 637 290 663 q 281 630 286 637 m 204 637 q 193 640 194 640 q 176 624 186 624 l 163 624 l 163 610 q 168 606 164 606 q 185 624 185 606 l 191 624 q 195 620 195 623 l 195 608 q 181 591 181 598 q 172 574 177 591 q 183 558 172 558 q 201 541 197 558 l 201 537 q 183 524 191 524 l 183 519 q 195 514 185 514 l 197 514 q 210 551 203 514 l 189 570 l 189 576 q 202 601 189 583 q 224 631 202 625 l 226 642 l 224 645 q 204 637 210 637 m 681 637 q 679 622 679 631 l 683 620 l 687 626 l 687 631 q 681 637 687 634 m 96 635 l 94 626 l 94 620 q 88 616 88 620 q 102 601 92 616 q 108 603 106 603 l 117 601 l 119 610 l 119 616 q 100 630 119 630 q 98 635 98 633 l 96 635 m 542 618 l 541 608 q 546 603 541 606 q 550 608 550 608 l 550 614 q 546 618 550 618 l 542 618 m 667 618 l 664 612 l 664 603 q 669 597 664 600 l 673 599 q 667 618 672 618 m 559 595 l 555 589 l 555 585 q 564 578 555 583 l 567 578 l 569 585 q 559 595 569 591 m 79 591 l 79 566 l 81 566 l 85 583 q 79 591 82 591 m 436 585 q 452 564 436 574 l 453 574 q 444 591 444 589 l 440 591 q 436 585 436 591 m 318 589 l 318 585 q 322 581 319 581 l 324 581 q 332 589 327 581 l 318 589 m 359 589 l 359 580 q 343 558 343 568 q 349 551 346 551 l 353 551 q 363 572 357 551 q 370 580 366 572 l 368 589 l 359 589 m 382 572 q 388 564 385 564 l 390 564 q 397 583 392 564 q 401 587 401 583 l 401 589 l 391 589 q 382 572 388 589 m 573 553 q 587 545 584 545 q 591 549 587 549 l 589 562 l 589 564 q 600 581 600 573 q 596 585 600 585 l 594 585 q 573 553 585 585 m 149 580 l 152 578 q 156 581 156 578 l 156 583 l 152 583 q 149 580 149 583 m 291 583 l 290 580 l 295 570 q 293 553 293 559 q 307 545 296 545 l 311 545 l 311 549 q 291 583 311 559 m 673 583 q 644 553 655 553 q 633 556 638 556 l 631 556 l 631 545 q 610 533 626 545 q 594 526 594 533 q 602 508 594 519 q 654 547 639 534 l 664 545 q 694 580 678 557 l 694 583 l 692 583 q 681 580 686 580 l 673 583 m 237 581 l 233 576 q 258 535 244 549 q 256 500 256 508 l 258 492 q 254 481 254 486 q 258 469 258 475 l 258 467 q 247 464 247 467 l 247 462 q 252 460 249 462 q 268 485 268 472 q 264 506 264 504 q 274 543 274 520 q 249 566 249 549 q 237 581 249 578 m 463 551 q 484 539 480 543 q 488 543 488 539 l 488 545 q 480 564 486 564 l 477 564 q 463 551 473 564 m 403 553 l 403 551 l 413 539 l 413 522 q 432 517 427 517 l 432 526 q 418 539 418 526 q 422 549 418 543 q 415 562 420 562 l 413 562 q 403 553 410 562 m 79 522 q 83 510 83 515 l 79 510 l 79 500 l 87 512 q 98 519 88 512 l 102 519 q 108 514 104 519 l 108 506 l 106 503 l 108 503 q 115 506 113 506 l 115 512 q 108 528 108 520 q 129 553 108 535 l 129 555 q 79 522 79 538 m 372 541 q 388 530 372 536 l 388 537 q 382 543 388 540 l 376 543 l 372 541 m 440 530 q 444 517 444 523 l 444 514 q 436 508 436 513 l 436 506 q 440 503 437 503 q 455 537 453 520 q 453 543 453 541 l 448 543 q 440 530 440 540 m 345 535 q 322 496 345 522 l 320 487 q 324 471 324 480 l 324 467 q 311 454 324 465 l 307 454 q 301 469 302 454 l 299 469 q 290 452 290 462 l 291 448 l 301 450 l 311 448 q 309 419 309 429 l 309 417 l 311 408 l 330 408 l 330 412 l 320 421 l 320 441 q 334 464 320 448 l 332 477 l 332 496 q 338 503 332 499 l 340 503 q 357 492 347 503 q 363 514 361 492 q 349 535 356 535 l 345 535 m 140 519 l 160 512 q 168 492 168 497 l 168 487 q 152 477 162 477 l 149 471 q 152 467 152 471 l 152 460 q 137 448 148 448 l 137 444 q 140 439 137 444 l 140 429 q 135 423 140 426 l 131 423 q 112 435 124 435 q 104 441 112 437 l 100 433 l 102 423 q 88 410 102 420 q 81 391 81 395 q 90 377 81 377 q 98 389 98 387 q 94 402 94 398 q 112 412 94 407 q 113 419 113 418 l 125 419 l 125 414 q 121 398 121 399 l 121 396 q 137 387 126 387 q 142 408 142 399 q 138 412 138 408 l 138 419 q 144 425 138 422 q 158 419 151 425 l 160 419 q 163 423 163 419 l 158 431 l 158 437 q 185 467 167 451 l 185 473 l 181 473 q 176 466 181 466 l 174 466 q 170 471 170 466 q 176 494 170 474 l 176 514 q 170 531 172 518 q 140 519 140 530 m 503 526 q 494 498 503 520 l 496 498 q 517 517 503 500 q 511 526 514 526 l 503 526 m 380 506 q 407 479 380 498 q 425 448 407 456 q 430 446 427 448 l 430 450 q 411 483 422 461 q 393 522 393 483 l 391 522 q 380 506 380 517 m 467 519 l 465 516 q 478 506 467 506 l 478 508 q 467 519 478 519 m 566 506 l 566 505 l 578 505 q 629 481 607 481 q 639 489 637 481 q 629 498 635 498 q 617 487 627 498 l 608 487 q 594 500 604 500 q 581 514 591 500 l 577 516 q 566 506 569 513 m 299 512 l 299 506 l 301 506 q 304 510 304 506 l 301 512 l 299 512 m 123 503 l 123 500 q 133 481 123 491 q 138 483 136 483 l 138 492 l 137 503 l 123 503 m 480 500 q 473 479 480 492 q 471 442 473 469 q 478 431 475 431 l 480 431 q 486 437 483 431 l 486 441 l 480 448 l 480 456 q 492 483 490 467 q 480 500 488 500 m 658 500 l 658 498 q 673 460 671 498 l 689 441 l 691 444 l 691 448 q 667 494 670 492 l 658 500 m 229 487 q 233 477 233 481 l 237 477 q 235 496 235 488 q 229 487 232 496 m 541 485 q 546 477 543 477 q 553 485 546 480 l 559 485 l 559 483 q 553 452 553 454 q 566 437 559 439 l 571 437 q 575 448 575 447 q 559 489 575 475 q 548 496 559 496 l 546 496 q 541 485 541 494 m 87 487 l 87 485 q 98 473 87 482 l 100 473 l 102 487 l 96 491 l 90 491 q 87 487 87 490 m 366 473 l 366 466 q 382 458 374 466 q 386 467 384 467 q 380 477 383 477 q 366 473 372 473 m 384 450 l 382 446 q 405 421 382 421 q 413 408 413 417 l 428 408 q 432 416 428 411 l 432 421 q 397 444 407 421 q 384 450 393 444 m 226 441 q 235 429 233 429 l 239 429 q 245 441 245 431 q 241 446 243 446 q 226 441 226 445 m 193 435 q 206 404 198 404 l 212 412 q 201 442 212 433 l 199 442 q 193 435 197 442 m 541 442 q 525 431 541 437 l 509 431 l 496 433 l 496 419 q 509 404 508 419 l 507 391 q 519 382 511 391 l 519 385 q 515 406 515 398 q 541 425 515 420 q 546 442 546 437 l 541 442 m 581 416 l 581 410 q 627 361 618 381 l 629 361 q 637 379 637 364 q 633 389 633 385 l 614 387 q 594 427 594 404 q 591 431 594 431 q 581 416 581 427 m 453 412 q 484 402 458 406 q 465 421 472 412 l 461 421 q 453 412 457 420 m 229 400 q 243 391 235 391 q 247 402 247 397 l 247 408 q 243 412 247 412 q 229 400 229 402 m 376 412 l 376 408 l 384 408 q 380 412 384 412 l 376 412 m 172 408 q 189 371 172 388 l 189 357 q 185 342 189 356 q 202 336 185 338 q 220 321 205 321 q 224 325 220 325 q 214 344 224 344 q 195 361 195 344 q 197 369 195 366 q 172 410 189 410 l 172 408 m 316 404 l 316 213 l 420 213 q 532 269 515 213 q 541 309 538 288 q 463 402 541 387 q 422 404 438 404 l 316 404 m 671 389 q 658 319 664 366 q 666 300 666 305 q 658 273 660 285 l 660 269 l 660 252 l 673 252 q 675 257 673 254 l 671 305 q 681 369 674 345 q 673 389 673 370 l 671 389 m 243 385 q 222 367 243 374 l 222 363 q 229 354 225 355 l 231 354 q 256 371 252 362 q 243 385 256 377 m 737 369 l 739 366 l 739 357 q 729 338 729 345 q 733 334 730 334 q 747 348 747 334 l 747 354 q 764 369 764 354 q 760 380 760 377 q 737 369 752 372 m 127 375 q 123 363 123 368 q 135 344 123 356 l 135 330 q 133 305 135 318 q 135 292 135 298 l 133 273 q 140 265 136 273 l 140 261 q 129 228 134 228 q 154 216 129 220 q 160 222 157 216 q 142 232 160 227 l 142 236 q 170 263 150 263 q 195 288 195 269 l 195 296 q 179 313 192 313 q 174 325 179 325 l 168 317 q 183 284 178 304 l 183 279 q 168 269 178 269 l 165 269 q 154 288 159 271 q 144 304 144 288 q 140 313 144 309 l 140 319 q 151 334 151 332 l 140 350 l 140 354 q 146 371 140 357 l 127 375 m 527 375 l 527 373 q 534 363 532 363 q 536 366 534 366 q 527 375 536 370 m 79 355 l 79 350 q 92 311 92 315 q 88 302 88 305 l 94 302 q 104 323 104 310 q 92 355 97 338 q 88 357 88 355 q 79 355 85 355 m 270 354 q 276 346 273 346 l 277 350 l 277 352 q 274 355 277 355 l 270 354 m 546 350 q 544 309 546 343 l 544 305 l 546 305 q 562 336 546 330 q 550 354 557 351 q 546 350 546 353 m 286 334 l 288 323 q 283 317 286 317 q 291 290 286 290 l 301 290 q 304 294 304 290 l 304 304 q 290 319 297 319 l 290 325 q 304 334 294 334 l 304 336 l 302 340 l 286 334 m 758 325 q 764 317 761 317 l 768 317 l 774 321 l 768 338 q 758 325 764 337 m 224 282 q 245 257 224 277 l 245 254 q 233 224 245 250 q 243 213 236 216 l 245 213 q 251 224 251 215 l 251 257 q 260 298 251 269 q 254 304 258 298 l 254 305 q 262 311 254 310 l 262 317 q 254 325 262 320 q 226 296 226 313 q 224 282 224 288 m 567 304 l 569 273 l 567 265 q 569 259 569 261 l 573 259 q 591 271 591 268 l 575 282 l 575 284 l 581 313 l 577 315 l 575 315 q 567 304 572 315 m 703 298 q 708 288 704 288 l 712 288 l 714 296 l 712 313 q 703 298 703 308 m 753 313 l 747 305 q 766 261 747 294 l 766 255 q 760 232 760 238 l 760 230 q 768 201 764 201 q 776 267 774 238 q 755 313 761 286 l 753 313 m 239 307 l 245 307 q 249 304 249 307 l 249 302 l 247 282 l 243 282 q 235 305 237 282 l 239 307 m 542 292 q 536 267 542 273 q 544 257 540 258 q 550 263 545 257 l 548 273 l 548 275 q 550 277 548 277 q 542 292 545 292 m 266 259 q 277 245 269 250 q 279 252 277 248 q 277 257 277 255 q 281 275 281 270 q 279 277 279 275 q 266 259 273 277 m 311 275 l 311 254 l 313 254 l 313 275 l 311 275 m 79 269 l 79 263 q 106 243 82 263 l 112 243 q 115 261 115 258 q 112 263 112 261 q 96 259 104 259 l 88 259 q 81 269 81 263 l 79 269 m 199 241 q 204 234 201 234 q 220 248 217 234 q 210 261 215 260 l 206 261 q 199 241 201 261 m 687 259 l 687 252 l 692 252 q 694 257 692 254 l 691 259 l 687 259 m 619 250 l 619 241 q 631 227 622 227 l 631 224 q 621 176 631 201 q 629 153 626 168 l 633 151 l 639 159 l 639 165 q 631 188 639 188 l 631 195 q 642 218 637 218 q 671 190 671 211 q 677 176 677 185 l 677 174 q 658 143 677 167 l 658 140 l 660 132 l 664 132 l 679 155 q 692 165 686 155 q 679 205 679 195 q 658 224 671 224 q 625 250 658 233 l 625 254 l 623 254 q 619 250 619 253 m 562 218 q 566 213 564 213 q 577 215 567 213 q 583 211 583 213 q 594 230 593 211 l 594 240 q 589 252 594 250 l 587 252 q 577 228 579 252 q 562 218 568 228 m 519 236 q 530 222 519 222 l 532 227 l 532 230 q 527 241 532 240 l 525 241 q 519 236 522 241 m 311 236 q 293 215 311 226 q 264 188 293 209 q 249 166 264 182 q 258 145 252 166 q 266 136 266 141 q 262 124 266 132 l 264 124 l 270 127 q 260 157 270 157 l 260 166 q 288 199 260 183 q 307 209 307 199 q 313 224 307 219 l 313 236 l 311 236 m 176 209 l 195 193 l 195 182 l 197 182 q 216 186 200 182 q 233 165 221 175 l 235 188 q 227 197 231 197 q 206 190 217 197 l 201 190 q 191 220 197 190 l 187 222 l 183 222 q 176 209 176 219 m 320 186 l 320 182 q 347 161 334 161 q 353 163 351 163 l 353 166 q 345 182 353 174 l 345 188 q 359 209 359 201 l 355 209 q 334 193 338 209 q 320 186 320 190 m 386 209 l 386 207 l 393 207 l 393 209 l 386 209 m 465 157 l 471 153 q 478 176 476 159 q 496 186 483 184 q 486 207 492 201 q 471 166 472 207 q 465 157 469 166 m 515 207 l 513 197 q 521 190 513 195 l 523 190 l 528 195 q 521 207 524 207 l 515 207 m 372 188 q 378 180 375 180 q 384 188 384 180 q 378 195 381 195 q 372 188 373 195 m 397 193 q 384 161 397 175 q 380 143 380 148 q 391 138 380 140 q 397 140 395 140 q 393 166 397 146 q 403 180 393 168 l 403 190 q 399 193 403 193 l 397 193 m 735 190 q 747 180 739 182 q 755 191 755 182 l 751 193 q 735 190 743 190 m 722 178 l 724 165 q 722 140 722 152 q 731 130 730 130 l 733 130 q 739 138 736 130 q 729 170 739 144 l 728 188 q 722 178 723 188 m 527 126 q 542 116 541 121 l 542 113 q 507 68 507 85 q 517 56 510 60 l 521 56 q 546 104 524 81 q 557 109 552 109 l 566 109 q 589 76 574 108 l 591 76 q 598 90 594 76 q 587 115 587 102 q 578 132 587 130 l 567 118 l 553 118 q 538 132 538 120 q 555 174 538 159 l 555 178 q 548 186 555 181 q 527 136 538 186 l 527 126 m 131 172 l 131 168 q 137 166 133 168 q 144 178 144 168 l 144 180 l 138 180 q 131 172 136 180 m 277 157 q 288 149 287 152 l 288 143 q 281 130 281 136 q 290 122 281 127 l 293 122 q 307 143 296 122 q 291 174 291 166 q 277 157 277 165 m 172 159 q 195 132 180 132 l 195 120 l 191 115 q 197 109 191 111 q 201 118 197 118 l 208 118 q 210 116 210 118 q 220 122 220 119 l 220 124 l 197 143 q 183 170 189 151 l 181 170 q 172 159 174 167 m 79 166 l 79 159 l 81 159 l 81 166 l 79 166 m 486 149 q 494 132 486 134 q 500 147 500 141 l 494 155 q 486 149 486 152 m 96 134 l 92 134 l 83 143 l 79 143 l 79 124 q 92 132 85 132 l 92 126 q 79 111 91 111 l 79 90 l 81 90 q 112 127 81 100 l 117 138 q 110 145 115 145 l 96 134 m 432 120 l 432 116 q 446 93 443 107 l 448 93 q 455 111 455 103 l 453 120 q 461 138 457 132 l 455 145 q 440 124 448 145 q 432 120 435 120 m 407 127 l 409 118 l 413 118 q 425 124 422 118 l 425 134 q 407 127 407 132 m 694 109 q 704 93 694 98 l 716 93 q 726 111 722 93 q 708 130 726 120 q 694 109 701 130 m 168 127 q 158 93 158 98 q 183 70 158 79 l 187 70 q 189 77 187 74 q 172 95 189 81 q 170 111 172 97 q 176 126 176 123 l 172 127 l 168 127 m 251 120 q 239 109 251 112 l 237 104 q 239 90 239 91 q 227 68 239 84 l 227 66 q 229 45 229 53 q 193 12 215 36 l 181 12 l 179 22 q 197 45 179 38 q 202 54 201 54 q 193 66 200 62 l 191 66 q 179 41 191 57 q 170 24 179 39 q 176 4 176 10 l 199 4 q 224 24 199 14 q 243 76 243 50 q 256 99 247 76 q 268 106 268 103 q 262 120 262 113 l 251 120 m 361 120 l 361 116 q 365 101 365 104 q 361 87 361 93 q 378 66 369 73 q 382 70 382 66 q 374 87 374 80 l 374 91 q 388 101 374 94 q 376 116 386 107 q 370 115 372 115 l 361 120 m 307 115 l 307 109 q 332 45 332 68 q 340 29 340 38 q 334 12 334 16 l 334 4 l 345 4 l 345 14 q 355 33 345 18 q 361 56 355 38 q 345 70 350 56 q 326 102 326 81 q 313 116 326 116 q 307 115 309 115 m 199 106 l 199 104 l 204 101 l 206 104 q 199 106 202 104 m 397 97 l 397 76 q 409 62 397 62 q 418 90 415 69 q 399 97 406 92 l 397 97 m 108 87 l 108 85 q 113 62 108 81 q 108 39 108 45 q 113 31 111 31 q 123 52 113 49 l 131 52 q 152 35 142 35 q 163 47 157 35 l 163 51 q 152 62 159 60 q 131 60 139 60 q 121 93 123 60 l 117 95 l 115 95 q 108 87 113 95 m 440 81 q 416 54 430 57 q 411 35 413 54 q 413 29 413 31 l 418 29 q 438 52 438 51 q 444 79 438 70 l 440 81 m 283 79 q 276 37 281 45 q 291 27 291 31 l 291 24 l 286 16 l 286 14 l 288 4 l 301 4 l 301 6 q 299 12 301 8 l 301 24 l 301 27 q 290 51 290 44 q 291 77 291 67 l 288 79 l 283 79 m 79 76 l 79 52 l 81 52 q 87 68 81 60 q 81 76 83 76 l 79 76 m 614 76 q 606 54 606 60 q 610 51 606 51 l 619 51 l 619 47 l 614 27 l 614 24 q 631 43 624 24 q 633 45 633 43 l 633 47 q 619 74 628 52 q 614 76 616 76 m 457 45 q 484 29 478 29 l 488 29 l 488 33 q 475 70 475 50 l 473 70 q 457 45 457 54 m 315 35 q 320 29 315 33 l 320 31 q 316 35 320 35 l 315 35 m 528 26 q 553 12 547 18 l 567 14 q 544 29 567 19 q 538 35 544 32 l 534 35 q 528 26 530 35 m 372 10 l 372 8 q 376 4 373 4 l 384 4 q 390 29 386 18 l 386 31 q 372 10 372 21 m 119 22 l 115 14 q 123 4 119 5 l 138 4 l 138 6 q 119 22 136 16 m 440 4 l 478 4 q 461 22 475 22 q 440 4 449 22 m 79 18 l 79 4 l 83 4 l 81 18 l 79 18 m 503 12 l 503 6 l 517 6 l 517 10 q 509 18 517 13 q 503 12 507 18 m 231 8 l 231 4 l 241 4 q 237 8 241 8 l 231 8 z "}}}
